<svg width="50" height="50" id="&#x421;&#x43B;&#x43E;&#x439;_1" enable-background="new 0 0 16 16" viewBox="0 0 16 16" xmlns="http://www.w3.org/2000/svg"><g fill="rgb(0,0,0)"><path d="m14 .125h-12c-.7583008 0-1.375.6166992-1.375 1.375v6c0 .7583008.6166992 1.375 1.375 1.375h3.625v2.4697266l-.9716187.9716187c-.5222778-.2871094-1.1834106-.2306519-1.6255493.2114868-.5361328.5361328-.5361328 1.4082031 0 1.9443359.2680664.2680664.6201172.4018554.972168.4018554s.7041016-.1337891.972168-.4018555c.4421387-.4421387.4985962-1.1032715.2114868-1.6255493l1.0814819-1.0814819c.0678711-.0678711.1098633-.1616211.1098633-.2651367v-2.625h1.25v4.3085327c-.5753174.1644287-1 .6890259-1 1.3164673 0 .7583008.6166992 1.375 1.375 1.375s1.375-.6166992 1.375-1.375c0-.6274414-.4246826-1.1520386-1-1.3164673v-4.3085327h1.25v1.625c0 .1035156.0419922.1972656.1098633.2651367l1.0814819 1.0814819c-.2871094.5222778-.2306519 1.1834106.2114868 1.6255493.2680664.2680665.6201172.4018555.972168.4018555s.7041016-.1337891.972168-.4018555c.5361328-.5361328.5361328-1.4082031 0-1.9443359-.4421387-.4421387-1.1032715-.4985962-1.6255493-.2114868l-.9716187-.9716186v-1.4697266h3.625c.7583008 0 1.375-.6166992 1.375-1.375v-6c0-.7583008-.6166992-1.375-1.375-1.375zm-9.5581055 13.8168945c-.2441406.2431641-.6396484.2431641-.8837891 0-.2436523-.2436523-.2436523-.6401367 0-.8837891.1220704-.121582.2817384-.1826171.4418946-.1826171s.3198242.0610352.4418945.1826172c.2436524.2436523.2436524.6401367 0 .883789zm4.1831055.5581055c0 .3447266-.2802734.625-.625.625s-.625-.2802734-.625-.625.2802734-.625.625-.625.625.2802734.625.625zm3.8168945-2.4418945c.2436523.2436523.2436523.6401367 0 .8837891-.2441406.2431641-.6396484.2431641-.8837891 0-.2436523-.2436523-.2436523-.6401367 0-.8837891.1220704-.1215821.2817384-.1826172.4418946-.1826172s.3198242.0610351.4418945.1826172zm1.5581055-3.9331055h-12c-.3447266 0-.625-.2802734-.625-.625v-6c0-.3447266.2802734-.625.625-.625h12c.3447266 0 .625.2802734.625.625v6c0 .3447266-.2802734.625-.625.625z"/><path d="m5.8579102 2.3881836c-.0488282-.1567383-.1938477-.2631836-.3579102-.2631836h-.5c-.1640625 0-.309082.1064453-.3579102.2631836l-1.25 4c-.0620117.1977539.0483399.4082031.2460938.4697266.1953125.0610351.4072266-.0488282.4697266-.2460938l.2302246-.7368164h1.8237305l.2302246.7368164c.0502929.1606445.1982421.2631836.3579101.2631836.0371094 0 .074707-.0053711.1118164-.0170898.1977539-.0615234.3081055-.2719727.2460938-.4697266zm-1.2854004 2.7368164.6774902-2.1679687.6774902 2.1679687z"/><path d="m9.5 2.125h-1.5c-.2070313 0-.375.1679688-.375.375v4c0 .2070313.1679688.375.375.375s.375-.1679687.375-.375v-1.625h1.125c.7583008 0 1.375-.6166992 1.375-1.375s-.6166992-1.375-1.375-1.375zm0 2h-1.125v-1.25h1.125c.3447266 0 .625.2802734.625.625s-.2802734.625-.625.625z"/><path d="m12 2.125c-.2070313 0-.375.1679688-.375.375v4c0 .2070313.1679688.375.375.375s.375-.1679688.375-.375v-4c0-.2070312-.1679687-.375-.375-.375z"/></g></svg>