<svg id="Layer_1" enable-background="new 0 0 512 512" height="512" viewBox="0 0 512 512" width="512" xmlns="http://www.w3.org/2000/svg"><g id="_x39_5_x2C__prototype_x2C__art_x2C__design_x2C__seo_x2C__interface"><g id="XMLID_15_"><g id="XMLID_16_"><circle id="XMLID_46_" cx="175" cy="65" r="15"/><circle id="XMLID_45_" cx="465" cy="405" r="15"/><circle id="XMLID_44_" cx="50" cy="70" r="10"/><circle id="XMLID_43_" cx="250" cy="110" r="10"/><circle id="XMLID_42_" cx="270" cy="400" r="10"/><circle id="XMLID_41_" cx="380" cy="480" r="10"/><g id="XMLID_37_"><path id="XMLID_38_" d="m173.1 500h-116.2c-25.8 0-46.9-21.1-46.9-46.9v-246.2c0-25.9 21.1-46.9 46.9-46.9h116.1c25.9 0 46.9 21.1 46.9 46.9v246.1c.1 25.9-21 47-46.8 47zm-116.2-320c-14.8 0-26.9 12.1-26.9 26.9v246.1c0 14.9 12.1 26.9 26.9 26.9h116.1c14.9 0 26.9-12.1 26.9-26.9v-246.1c0-14.9-12.1-26.9-26.9-26.9z"/></g><g id="XMLID_35_"><path id="XMLID_36_" d="m210 240h-190c-5.5 0-10-4.5-10-10s4.5-10 10-10h190c5.5 0 10 4.5 10 10s-4.5 10-10 10z"/></g><g id="XMLID_33_"><path id="XMLID_34_" d="m210 440h-190c-5.5 0-10-4.5-10-10s4.5-10 10-10h190c5.5 0 10 4.5 10 10s-4.5 10-10 10z"/></g><g id="XMLID_29_"><path id="XMLID_30_" d="m453.1 350h-116.2c-25.9 0-46.9-21.1-46.9-46.9v-246.2c0-25.9 21.1-46.9 46.9-46.9h116.1c25.9 0 46.9 21.1 46.9 46.9v246.1c.1 25.9-21 47-46.8 47zm-116.2-320c-14.8 0-26.9 12.1-26.9 26.9v246.1c0 14.9 12.1 26.9 26.9 26.9h116.1c14.9 0 26.9-12.1 26.9-26.9v-246.1c0-14.9-12.1-26.9-26.9-26.9z"/></g><g id="XMLID_27_"><path id="XMLID_28_" d="m490 90h-190c-5.5 0-10-4.5-10-10s4.5-10 10-10h190c5.5 0 10 4.5 10 10s-4.5 10-10 10z"/></g><g id="XMLID_25_"><path id="XMLID_26_" d="m490 290h-190c-5.5 0-10-4.5-10-10s4.5-10 10-10h190c5.5 0 10 4.5 10 10s-4.5 10-10 10z"/></g><g id="XMLID_23_"><path id="XMLID_24_" d="m216.8 350h-76.8c-5.5 0-10-4.5-10-10s4.5-10 10-10h76.8c12.8 0 23.2-10.4 23.2-23.2v-83.5c0-23.8 19.4-43.2 43.2-43.2h126.8c5.5 0 10 4.5 10 10s-4.5 10-10 10h-126.8c-12.8 0-23.2 10.4-23.2 23.2v83.5c0 23.8-19.4 43.2-43.2 43.2z"/></g><g id="XMLID_21_"><path id="XMLID_22_" d="m382.9 217.1c-3.9-3.9-3.9-10.2 0-14.1l12.9-12.9-12.9-12.9c-3.9-3.9-3.9-10.2 0-14.1s10.2-3.9 14.1 0l20 20c3.9 3.9 3.9 10.2 0 14.1l-20 20c-3.8 3.8-10.2 3.8-14.1-.1z"/></g><g id="XMLID_17_"><path id="XMLID_18_" d="m110 380c-22.1 0-40-17.9-40-40s17.9-40 40-40 40 17.9 40 40-17.9 40-40 40zm0-60c-11 0-20 9-20 20s9 20 20 20 20-9 20-20-9-20-20-20z"/></g></g></g></g></svg>