<svg id="Layer_1" viewBox="0 0 100 100" xmlns="http://www.w3.org/2000/svg" data-name="Layer 1"><path d="m74.25 98.75h-48.51a6.58 6.58 0 0 1 -6.59-6.56v-60.37a.75.75 0 0 1 .31-.61.72.72 0 0 1 .68-.1 8.44 8.44 0 0 0 2.7.44 8.28 8.28 0 0 0 8.27-7.68.76.76 0 0 1 .75-.7.78.78 0 0 1 .79.7 8.16 8.16 0 0 0 2.42 5.26 8.32 8.32 0 0 0 14.16-5.26.76.76 0 0 1 .31-.55.77.77 0 0 1 .62-.13.82.82 0 0 1 .61.69 8.3 8.3 0 0 0 16.56 0 .76.76 0 0 1 .75-.7.81.81 0 0 1 .81.7 8.28 8.28 0 0 0 8.27 7.67 8.75 8.75 0 0 0 2.69-.43.75.75 0 0 1 .68.1.77.77 0 0 1 .31.61v60.36a6.58 6.58 0 0 1 -6.59 6.56zm-53.6-65.94v59.38a5.08 5.08 0 0 0 5.09 5.06h48.51a5.09 5.09 0 0 0 5.09-5.06v-59.38a10 10 0 0 1 -2.18.24 9.83 9.83 0 0 1 -9-6 9.86 9.86 0 0 1 -9.06 6 9.74 9.74 0 0 1 -6.93-2.86 9.87 9.87 0 0 1 -2.17-3.19 9.83 9.83 0 0 1 -18.12 0 9.82 9.82 0 0 1 -9 6 9.93 9.93 0 0 1 -2.23-.19z"/><path d="m74.25 98.75h-48.51a6.58 6.58 0 0 1 -6.59-6.56v-10a.76.76 0 0 1 .75-.75h60.19a.76.76 0 0 1 .75.75v10a6.58 6.58 0 0 1 -6.59 6.56zm-53.6-15.85v9.29a5.08 5.08 0 0 0 5.09 5.06h48.51a5.08 5.08 0 0 0 5.09-5.06v-9.29z"/><path d="m31.88 18.06h-.08a.76.76 0 0 1 -.59-.41h-17.21a.75.75 0 0 1 -.62-.34.73.73 0 0 1 -.07-.7l5.21-12.61a4.41 4.41 0 0 1 4.09-2.72h12.46a.74.74 0 0 1 .58.28.73.73 0 0 1 .15.62l-3.18 15.29a.76.76 0 0 1 -.74.59zm-16.8-1.91h16.28l2.79-13.4h-11.54a2.92 2.92 0 0 0 -2.71 1.79z"/><path d="m31.88 18.22a.78.78 0 0 1 -.59-.27.76.76 0 0 1 -.16-.63v-.11a.75.75 0 0 1 1.48.15v.11a.74.74 0 0 1 -.73.75z"/><path d="m50 17.65h-18a.75.75 0 0 1 -.74-.9l3.08-14.9a.76.76 0 0 1 .74-.6h14.92a.76.76 0 0 1 .75.75v14.9a.76.76 0 0 1 -.75.75zm-17.08-1.5h16.32v-13.4h-13.56z"/><path d="m59.05 33.05a9.79 9.79 0 0 1 -9.78-9.05c0-.28 0-.49 0-.7v-6.4a.75.75 0 0 1 .75-.75h17.98a.75.75 0 0 1 .74.59l.1.46a.86.86 0 0 1 0 .16v5.93.68a9.81 9.81 0 0 1 -9.79 9.08zm-8.3-15.4v5.64.56a8.3 8.3 0 0 0 16.56 0c0-.19 0-.39 0-.59v-5.61z"/><path d="m68 17.65h-18a.76.76 0 0 1 -.75-.75v-14.9a.76.76 0 0 1 .75-.75h14.92a.75.75 0 0 1 .73.6l3.09 14.9a.73.73 0 0 1 -.16.62.72.72 0 0 1 -.58.28zm-17.25-1.5h16.33l-2.77-13.4h-13.56z"/><path d="m68.13 18.22a.75.75 0 0 1 -.75-.75v-.11a.75.75 0 0 1 1.49-.15v.11a.73.73 0 0 1 -.15.62.74.74 0 0 1 -.59.28z"/><path d="m68.12 18.06a.75.75 0 0 1 -.74-.59l-.09-.41-3.09-14.91a.73.73 0 0 1 .15-.62.74.74 0 0 1 .58-.28h12.45a4.44 4.44 0 0 1 4.1 2.75l5.25 12.65a.73.73 0 0 1 -.07.7.75.75 0 0 1 -.62.34h-17.25a.76.76 0 0 1 -.6.41zm.52-1.91h16.28l-4.82-11.61a3 3 0 0 0 -2.72-1.79h-11.53z"/><path d="m31.88 18.22a.78.78 0 0 1 -.59-.27.76.76 0 0 1 -.16-.63v-.11a.75.75 0 0 1 1.48.15v.11a.74.74 0 0 1 -.73.75z"/><path d="m31.88 18.11h-.07a.76.76 0 0 1 -.68-.75v-.46a.75.75 0 0 1 .75-.75.85.85 0 0 1 .63.27.79.79 0 0 1 .2.62l-.09.46a.75.75 0 0 1 -.74.61z"/><path d="m68.1 18.11a.76.76 0 0 1 -.73-.59l-.1-.46a.75.75 0 0 1 .15-.63.74.74 0 0 1 .58-.28h.1a.74.74 0 0 1 .75.75v.46a.74.74 0 0 1 -.66.74z"/><path d="m68.13 18.22a.75.75 0 0 1 -.76-.75.78.78 0 0 1 .63-.77.73.73 0 0 1 .81.56v.06a.73.73 0 0 1 -.15.62.74.74 0 0 1 -.53.28z"/><path d="m77.16 33.05a9.79 9.79 0 0 1 -9.77-9.05c0-.29 0-.49 0-.69v-6.41a.74.74 0 0 1 .75-.75h17.86a.74.74 0 0 1 .69.46l.18.44a.72.72 0 0 1 .06.29v6a9.76 9.76 0 0 1 -6.64 9.24 10.06 10.06 0 0 1 -3.13.47zm-8.29-15.4v5.65.52a8.3 8.3 0 0 0 8.28 7.73 8.75 8.75 0 0 0 2.69-.43 8.26 8.26 0 0 0 5.62-7.82v-5.65z"/><path d="m54.5 90.83h-9a.75.75 0 1 1 0-1.5h9a.75.75 0 0 1 0 1.5z"/><path d="m40.94 33.05a9.79 9.79 0 0 1 -6.94-2.85 9.65 9.65 0 0 1 -2.84-6.2c0-.25 0-.46 0-.67v-5.97a.77.77 0 0 1 0-.15l.09-.46a.75.75 0 0 1 .73-.6h18.02a.75.75 0 0 1 .75.75v6.39.65a9.83 9.83 0 0 1 -9.81 9.11zm-8.31-15.4v5.65.54a8.17 8.17 0 0 0 2.42 5.29 8.32 8.32 0 0 0 14.16-5.26c0-.19 0-.39 0-.58v-5.64z"/><path d="m22.84 33.05a10 10 0 0 1 -3.18-.52 9.79 9.79 0 0 1 -3.76-2.34 9.61 9.61 0 0 1 -2.9-6.89v-6a.72.72 0 0 1 .06-.29l.18-.44a.74.74 0 0 1 .69-.46h17.95a.74.74 0 0 1 .75.75v6.4.62a9.81 9.81 0 0 1 -9.79 9.17zm-8.31-15.4v5.65a8.31 8.31 0 0 0 8.31 8.25 8.28 8.28 0 0 0 8.27-7.68c0-.21 0-.38 0-.57v-5.65z"/><path d="m52.53 69h-5.06a.76.76 0 0 1 -.75-.75v-2.43a10.58 10.58 0 0 1 -1.63-.68l-1.69 1.69a.79.79 0 0 1 -.53.22.77.77 0 0 1 -.53-.22l-3.57-3.58a.75.75 0 0 1 0-1.06l1.69-1.69a11.15 11.15 0 0 1 -.67-1.63h-2.4a.76.76 0 0 1 -.75-.75v-5a.76.76 0 0 1 .75-.75h2.4a9.78 9.78 0 0 1 .68-1.64l-1.71-1.73a.75.75 0 0 1 0-1.06l3.57-3.57a.77.77 0 0 1 1.07 0l1.69 1.69a10.58 10.58 0 0 1 1.63-.68v-2.38a.76.76 0 0 1 .75-.75h5.06a.76.76 0 0 1 .75.75v2.39a10.78 10.78 0 0 1 1.63.69l1.69-1.7a.77.77 0 0 1 1.07 0l3.57 3.57a.75.75 0 0 1 0 1.06l-1.7 1.69a9.78 9.78 0 0 1 .68 1.64h2.4a.76.76 0 0 1 .75.75v5a.76.76 0 0 1 -.75.75h-2.4a11.15 11.15 0 0 1 -.67 1.63l1.69 1.69a.75.75 0 0 1 0 1.06l-3.57 3.58a.77.77 0 0 1 -.54.22.79.79 0 0 1 -.53-.22l-1.69-1.7a10.78 10.78 0 0 1 -1.63.69v2.41a.76.76 0 0 1 -.75.8zm-4.31-1.5h3.56v-2.24a.73.73 0 0 1 .55-.72 8.74 8.74 0 0 0 2.31-1 .76.76 0 0 1 .93.11l1.56 1.57 2.52-2.52-1.57-1.56a.75.75 0 0 1 -.11-.92 8.93 8.93 0 0 0 1-2.31.74.74 0 0 1 .73-.56h2.21v-3.53h-2.25a.74.74 0 0 1 -.73-.56 8.81 8.81 0 0 0 -1-2.33.76.76 0 0 1 .11-.91l1.56-1.56-2.47-2.46-1.56 1.57a.77.77 0 0 1 -.93.11 8.74 8.74 0 0 0 -2.31-1 .74.74 0 0 1 -.55-.72v-2.2h-3.56v2.2a.73.73 0 0 1 -.55.72 9.27 9.27 0 0 0 -2.33 1 .77.77 0 0 1 -.92-.12l-1.55-1.56-2.51 2.51 1.56 1.49a.76.76 0 0 1 .11.91 8.81 8.81 0 0 0 -1 2.33.74.74 0 0 1 -.73.56h-2.17v3.55h2.21a.74.74 0 0 1 .73.56 8.93 8.93 0 0 0 1 2.31.75.75 0 0 1 -.11.92l-1.57 1.56 2.52 2.52 1.55-1.56a.77.77 0 0 1 .92-.12 8.89 8.89 0 0 0 2.33 1 .75.75 0 0 1 .55.73z"/><path d="m50 60.84a5.25 5.25 0 1 1 5.25-5.25 5.25 5.25 0 0 1 -5.25 5.25zm0-9a3.75 3.75 0 1 0 3.75 3.75 3.75 3.75 0 0 0 -3.75-3.75z"/></svg>