<svg id="Layer_1" enable-background="new 0 0 68 68" height="60" viewBox="0 0 68 68" width="60" xmlns="http://www.w3.org/2000/svg"><g id="_x39_6"><path d="m41.1 39.5h-23.9c-.6 0-1 .4-1 1v5.8c0 .6.4 1 1 1h23.9c.6 0 1-.4 1-1v-5.8c0-.5-.5-1-1-1zm-1 5.8h-21.9v-3.8h21.9z"/><path d="m17.2 29.5c-.6 0-1 .5-1 1 0 .6.4 1 1 1s1-.4 1-1c0-.5-.4-1-1-1z"/><path d="m22.2 29.5c-.6 0-1 .5-1 1 0 .6.4 1 1 1s1-.5 1-1-.5-1-1-1z"/><path d="m27.2 29.5c-.6 0-1 .5-1 1 0 .6.4 1 1 1s1-.5 1-1-.5-1-1-1z"/><path d="m58.8 43.6v-6.6c0-2.2-1.8-4-4-4h-17.2c-1 0-1.8-.7-2-1.7l-.8-3.1c-.4-1.9-2-3.2-3.9-3.2h-15.7c-2.2 0-4 1.8-4 4v29.6c0 2.2 1.8 4 4 4h31c2.1 2.1 5 3.3 8.2 3.3 6.4.1 11.6-5.1 11.6-11.6 0-4.8-3-9-7.2-10.7zm-45.6 15.1v-22.7h15.4c.6 0 1-.4 1-1s-.4-1-1-1h-15.4v-5c0-1.1.9-2 2-2h15.7c1 0 1.8.7 2 1.7l.8 3.1c.4 1.9 2 3.2 3.9 3.2h17.2c1.1 0 2 .9 2 2v5.9c-.8-.2-1.6-.3-2.5-.3-6.4 0-11.7 5.2-11.7 11.7 0 2.3.7 4.5 1.9 6.3h-29.3c-1.2.1-2-.8-2-1.9zm41.1 5.3c-5.3 0-9.7-4.3-9.7-9.7 0-5.3 4.3-9.7 9.7-9.7s9.7 4.4 9.7 9.7c0 5.4-4.3 9.7-9.7 9.7z"/><path d="m54.3 48.1c-2.5 0-4.7 1.5-5.7 3.6l-.3-.5c-.2-.5-.8-.7-1.3-.5s-.7.8-.5 1.3l1.4 2.8c.2.5.8.7 1.3.5 3.8-1.8 2.5-1.2 2.8-1.3.5-.2.7-.8.5-1.3s-.8-.7-1.3-.5l-.7.4c.7-1.4 2.1-2.5 3.8-2.5 2.3 0 4.3 1.9 4.3 4.3 0 2.3-1.9 4.3-4.3 4.3-.6 0-1 .4-1 1s.4 1 1 1c3.4 0 6.3-2.8 6.3-6.3s-2.8-6.3-6.3-6.3z"/><path d="m37.1 53h-19.9c-.6 0-1 .4-1 1s.4 1 1 1h19.9c.6 0 1-.4 1-1s-.5-1-1-1z"/><path d="m62.2 18c1.2-6.9-5.7-12.4-12.2-9.8-5.7-8.5-18.3-8.3-23.6.4-5.1-4.3-13-.4-12.8 6.3-6.5.1-11.6 5.5-11.6 11.8 0 4.2 2.3 8.1 5.9 10.1.5.3 1.1.1 1.4-.4s.1-1.1-.4-1.4c-3-1.7-4.9-4.9-4.9-8.4 0-5.5 4.7-10.2 10.6-9.6.7.1 1.2-.6 1.1-1.2-.7-3.6 2-6.9 5.7-6.9 1.7 0 3.3.8 4.4 2.1.5.5 1.3.5 1.7-.2 2-4.2 6.2-6.8 10.8-6.8 7.3 0 10.3 5.9 10.4 6 .3.4.9.7 1.4.4 5.2-2.8 11.3 1.9 10 7.7-.1.3 0 .8.3 1.1 4.4 3.6 4.8 10.2.8 14.3-.4.4-.4 1 0 1.4s1 .4 1.4 0c4.7-4.8 4.5-12.4-.4-16.9z"/><path d="m33.6 10.1c1.7-2 4.3-2.7 6.7-1.7.5.2 1.1 0 1.3-.5s0-1.1-.5-1.3c-3.1-1.3-6.7-.4-9 2.3-.4.4-.3 1.1.1 1.4s1.1.2 1.4-.2z"/><path d="m43.3 26c.5 0 1-.4 1-1 0-.5-.4-1-1-1s-1 .5-1 1c0 .6.4 1 1 1z"/><path d="m48.3 26c.5 0 1-.4 1-1 0-.5-.4-1-1-1s-1 .5-1 1c0 .6.4 1 1 1z"/><path d="m53.3 26c.6 0 1-.4 1-1 0-.5-.4-1-1-1s-1 .5-1 1c0 .6.4 1 1 1z"/></g></svg>