<svg width="100" height="100" id="Layer_1" viewBox="0 0 512 512" xmlns="http://www.w3.org/2000/svg" data-name="Layer 1"><path d="m225.547 418.525a7 7 0 0 1 7-7h30.141a7 7 0 0 1 0 14h-30.141a7 7 0 0 1 -7-7zm-176.7 7.205a7 7 0 0 0 7-7v-.411a7 7 0 0 0 -14 0v.411a7 7 0 0 0 7.001 7zm31.619 0a7 7 0 0 0 7-7v-.411a7 7 0 0 0 -14 0v.411a7 7 0 0 0 7.001 7zm31.618 0a7 7 0 0 0 7-7v-.411a7 7 0 0 0 -14 0v.411a7 7 0 0 0 7.001 7zm61.191-145.391 23.147-26.4a7 7 0 0 0 -10.526-9.231l-27.5 31.365a7 7 0 0 0 .354 9.606l29.436 28.952a7 7 0 0 0 9.814-9.976zm108.556-35.626a7 7 0 1 0 -10.525 9.231l23.146 26.4-24.722 24.316a7 7 0 1 0 9.817 9.981l29.434-28.952a7 7 0 0 0 .355-9.606zm-27.831-21.787a7 7 0 0 0 -8.9 4.34l-35.708 103.746a7 7 0 1 0 13.238 4.556l35.708-103.745a7 7 0 0 0 -4.338-8.897zm249-70.718v14.242a12.23 12.23 0 0 1 -8.548 11.692l-7.6 2.419a85.275 85.275 0 0 1 -9.472 22.839l3.661 7.028a12.224 12.224 0 0 1 -2.2 14.345l-10.072 10.071a12.225 12.225 0 0 1 -14.312 2.223l-7.089-3.664c-1.133.675-2.282 1.313-3.44 1.934v149.355h23.14a19.194 19.194 0 0 1 19.172 19.172v12.49c0 17-13.54 36-31.661 36h-413.918c-18.121.003-31.661-19.005-31.661-36v-12.49a19.194 19.194 0 0 1 19.172-19.172h23.617v-228.648a37.183 37.183 0 0 1 37.141-37.144h238.279c.657-1.232 1.333-2.456 2.053-3.661l-3.662-7.027a12.223 12.223 0 0 1 2.207-14.347l10.07-10.065a12.225 12.225 0 0 1 14.311-2.224l7.091 3.666a85.233 85.233 0 0 1 22.845-9.463l2.378-7.55a12.224 12.224 0 0 1 11.7-8.585h14.241a12.229 12.229 0 0 1 11.697 8.546l2.42 7.6a85.193 85.193 0 0 1 22.84 9.475l7.028-3.662a12.218 12.218 0 0 1 14.345 2.2l10.071 10.071a12.229 12.229 0 0 1 2.224 14.311l-3.666 7.09a85.174 85.174 0 0 1 9.463 22.848l7.55 2.377a12.222 12.222 0 0 1 8.585 11.708zm-35.937 246.484h-438.891a5.178 5.178 0 0 0 -5.172 5.172v12.49c0 9.905 8.149 22 17.661 22h413.913c9.512 0 17.661-12.1 17.661-22v-12.49a5.178 5.178 0 0 0 -5.172-5.172zm-37.14-157.392c-1.782.577-3.583 1.1-5.407 1.565l-2.377 7.549a12.224 12.224 0 0 1 -11.7 8.585h-14.246a12.229 12.229 0 0 1 -11.692-8.547l-2.42-7.6a85.232 85.232 0 0 1 -22.841-9.475l-7.027 3.661a12.22 12.22 0 0 1 -14.346-2.205l-10.07-10.07a12.228 12.228 0 0 1 -2.224-14.311l3.665-7.091a85.219 85.219 0 0 1 -9.463-22.847l-7.549-2.377a12.223 12.223 0 0 1 -8.585-11.7v-14.237a12.226 12.226 0 0 1 8.549-11.7l7.6-2.419c.442-1.747.948-3.472 1.5-5.181h-232.36a23.167 23.167 0 0 0 -23.141 23.141v228.651h364.134zm59.077-87.823-10.172-3.2a7 7 0 0 1 -4.76-5.294 71.443 71.443 0 0 0 -10.553-25.492 6.994 6.994 0 0 1 -.385-7.083l4.921-9.521-8.28-8.279-9.465 4.932a7 7 0 0 1 -7.108-.377 71.433 71.433 0 0 0 -25.482-10.574 7 7 0 0 1 -5.282-4.736l-3.25-10.206h-11.709l-3.2 10.173a7 7 0 0 1 -5.294 4.759 71.453 71.453 0 0 0 -25.49 10.555 7 7 0 0 1 -7.084.385l-9.521-4.923-8.28 8.28 4.932 9.464a7 7 0 0 1 -.378 7.109 71.473 71.473 0 0 0 -10.575 25.483 7 7 0 0 1 -4.736 5.282l-10.2 3.25v11.708l10.172 3.2a7 7 0 0 1 4.759 5.294 71.456 71.456 0 0 0 10.554 25.492 7 7 0 0 1 .385 7.083l-4.921 9.521 8.279 8.28 9.466-4.932a6.994 6.994 0 0 1 7.107.377 71.486 71.486 0 0 0 25.484 10.574 7 7 0 0 1 5.281 4.736l3.242 10.203h11.709l3.2-10.172a7 7 0 0 1 5.294-4.759 71.455 71.455 0 0 0 25.492-10.555 7 7 0 0 1 7.083-.385l9.521 4.922 8.28-8.28-4.932-9.465a7 7 0 0 1 .377-7.107 71.5 71.5 0 0 0 10.574-25.484 7 7 0 0 1 4.736-5.282l10.209-3.248zm-26.66 5.845a59.02 59.02 0 1 1 -59.02-59.022 59.087 59.087 0 0 1 59.02 59.022zm-14 0a45.02 45.02 0 1 0 -45.02 45.02 45.07 45.07 0 0 0 45.02-45.02z"/></svg>