<svg id="Layer_1" viewBox="0 0 512 512" xmlns="http://www.w3.org/2000/svg" data-name="Layer 1"><path d="m293.087 138.007h87.714c-20.782-44.234-66.931-44.234-87.714 0zm49.353 10.992v101.862c11.977-1.766 22.808-9.233 31.021-20.403 15.96-21.706 20.046-54.238 11.59-81.459zm-10.992 101.862v-101.862h-42.611c-8.455 27.221-4.37 59.753 11.59 81.459 8.213 11.17 19.044 18.637 31.021 20.403zm103.614-93.247c1.138 2.81-.217 6.011-3.027 7.149s-6.011-.217-7.149-3.027l-8.948-21.944-20.659 5.158c4.204 13.119 5.85 27.562 4.705 42.012h31.057c3.035 0 5.496 2.461 5.496 5.496s-2.461 5.496-5.496 5.496h-32.486c-1.91 10.489-5.291 20.214-9.831 28.748l26.173 11.403-.003.006c2.454 1.066 3.818 3.799 3.094 6.456l-7.548 27.449c-.794 2.917-3.803 4.637-6.72 3.843s-4.637-3.803-3.843-6.72l6.292-22.881-23.269-10.137c-25.645 35.863-68.936 34.524-93.404-2.16-.562.831-1.359 1.518-2.346 1.948l-23.755 10.349 6.292 22.881c.794 2.917-.926 5.925-3.843 6.72-2.917.794-5.925-.926-6.72-3.843l-7.548-27.449c-.724-2.657.64-5.39 3.094-6.456l-.003-.006 28.102-12.243c.564-.246 1.147-.389 1.728-.439-4.205-8.222-7.349-17.5-9.164-27.469h-32.486c-3.035 0-5.496-2.461-5.496-5.496s2.461-5.496 5.496-5.496h31.057c-1.145-14.451.501-28.892 4.705-42.013l-20.659-5.158-8.948 21.944c-1.138 2.81-4.339 4.165-7.149 3.027s-4.165-4.339-3.027-7.149l10.749-26.361c1.058-2.612 3.898-3.967 6.55-3.23l26.445 6.603c4.945-10.952 12.013-20.93 21.08-28.362l-12.447-23.235c-1.423-2.668-.414-5.984 2.254-7.406 2.668-1.423 5.984-.414 7.406 2.254l11.9 22.214c15.397-8.412 32.961-8.413 48.358 0l11.9-22.213c1.423-2.668 4.739-3.677 7.406-2.254s3.677 4.739 2.254 7.406l-12.447 23.234c9.066 7.431 16.136 17.412 21.08 28.362l26.446-6.603c2.652-.736 5.492.618 6.55 3.23l10.749 26.361zm-229.755 118.034-21.908 18.277 6.031 34.787 33.141 12.169 28.009-23.366c-17.648-10.948-33.074-25.201-45.274-41.867zm-58.426-20.869c23.198-19.352 54.734-24.089 82.26-13.269l-54.865 45.771c-1.664 1.183-2.599 3.252-2.233 5.4l7.105 40.976c.311 1.888 1.602 3.56 3.527 4.266l39.074 14.348.005-.014c1.771.648 3.829.362 5.383-.931l53.037-44.245c5.609 44.173-25.191 85.055-69.626 91.242-15.032 2.093-30.445-.018-44.381-6.164-1.877-.919-4.198-.716-5.909.707l-92.284 76.988-38.789-47.276 89.995-75.078c1.807-1.346 2.664-3.73 1.964-6.006-9.583-31.183.27-65.467 25.737-86.714zm259.235 54.594h-32.736l-.412.412v12.212h-.021c0 2.349-1.522 4.521-3.886 5.238-3.244.985-9.481 3.394-12.339 5.069-2.13 1.386-5.01 1.145-6.878-.724l-8.639-8.639.01-.01-.538-.047-23.204 23.205-.01-.01.01.594 8.639 8.639-.014.014c1.66 1.659 2.12 4.27.958 6.448-1.582 2.962-4.318 9.102-5.148 12.297-.521 2.493-2.731 4.366-5.379 4.366-1.277 0-12.249-.146-12.51.114-.071.076-.114.181-.114.297l.06 32.959.352.189h12.212v.021c2.349 0 4.522 1.522 5.238 3.886.985 3.243 3.394 9.482 5.069 12.339 1.386 2.13 1.145 5.01-.724 6.878l-8.639 8.639-.01-.01.01.594 23.148 23.148h.583l8.639-8.639.014.014c1.659-1.66 4.27-2.12 6.448-.959 2.961 1.581 9.102 4.319 12.296 5.148 2.494.521 4.367 2.731 4.367 5.38l.059 12.435.352.189h32.736l.412-.412v-12.212h.021c0-2.349 1.522-4.522 3.886-5.238 3.241-.984 9.484-3.396 12.339-5.069 2.13-1.386 5.01-1.145 6.878.724l8.639 8.639h.583l23.148-23.148v-.583s-8.639-8.639-8.639-8.639l.014-.014c-1.66-1.659-2.12-4.27-.959-6.448 1.582-2.963 4.318-9.1 5.148-12.296.521-2.493 2.732-4.367 5.38-4.367h12.212l.412-.412v-32.736c0-.108-.048-.21-.125-.287l.01-.01c-.292-.272-11.206-.114-12.509-.114v-.021c-2.349 0-4.522-1.522-5.238-3.886-.985-3.243-3.394-9.48-5.07-12.338-1.386-2.13-1.145-5.01.724-6.878l8.639-8.639v-.583s-23.148-23.148-23.148-23.148l.01-.01-.538-.047-8.695 8.696-.014-.014c-1.659 1.66-4.27 2.12-6.448.958-2.962-1.581-9.102-4.318-12.297-5.148-2.493-.521-4.366-2.731-4.366-5.379v-12.212c0-.108-.048-.21-.125-.287l.01-.01c-.076-.071-.181-.114-.297-.114zm12.294 9 6.266 2.642 6.259-6.219c4.764-4.107 11.396-3.919 15.701.385l.011-.011 23.148 23.148c4.444 4.444 4.445 11.681 0 16.125l-5.845 5.845 2.966 7.156h8.264c3.138 0 5.976 1.285 8.047 3.356l.011-.011c2.064 2.064 3.346 4.917 3.346 8.058v32.736c0 6.283-5.12 11.404-11.404 11.404h-8.263l-2.967 7.156 5.844 5.844c4.444 4.444 4.445 11.681 0 16.125l-23.148 23.148c-4.444 4.444-11.681 4.445-16.126 0l-5.845-5.845-7.156 2.966v8.264c0 6.283-5.12 11.404-11.404 11.404h-32.736c-6.281 0-11.404-5.142-11.404-11.404v-8.263l-7.156-2.967-5.845 5.845c-4.444 4.444-11.681 4.445-16.126 0l-23.148-23.148c-4.437-4.437-4.456-11.649.011-16.115l-.011-.011 5.844-5.844-2.966-7.156h-8.264c-6.281 0-11.404-5.142-11.404-11.404v-32.736c0-6.257 5.147-11.404 11.404-11.404h8.264l2.966-7.156-5.844-5.844c-4.078-4.078-4.444-10.55-.934-15.048-6.309-1.04-12.504-2.45-18.67-4.252-7.483 38.68-38.884 68.589-78.048 74.042-15.955 2.222-32.316.243-47.345-5.776l-93.988 78.412c-2.336 1.921-5.786 1.584-7.707-.751l-45.732-55.738.002-.002c-1.911-2.324-1.589-5.758.727-7.684l91.652-76.46c-13.638-51.609 19.113-104.135 71.385-114.54-7.093-23.891-8.588-49.228-4.254-73.876 12.383-70.414 70.071-124.186 141.08-131.874 88.256-9.555 167.603 54.31 177.158 142.564 6.697 61.859-22.971 122.466-76.621 154.913zm-45.03-19.991c-6.257 0-11.404 5.146-11.404 11.404v8.264l-7.156 2.966-5.844-5.844-.011.011c-4.487-4.487-11.705-4.421-16.115-.011l-14.493 14.493c-9.01-1.012-18.091-2.88-26.805-5.522.684-9.523-.094-19.161-2.37-28.549-.937-3.87-5.697-5.661-9.02-2.755l-20.682 17.253c-17.893-10.505-33.577-24.712-45.725-41.49l29.085-24.263c3.043-2.535 2.432-7.311-.991-9.074l.004-.008c-15.412-7.992-32.712-11.429-49.799-10.12-7.023-22.73-8.581-46.935-4.441-70.477 11.506-65.432 65.133-115.681 131.419-122.857 82.218-8.901 156.192 50.597 165.094 132.817 6.038 55.764-19.606 110.721-67.143 141.709-.561-1.756-1.536-3.329-2.809-4.602l-.011.011c-2.071-2.071-4.91-3.356-8.047-3.356zm38.042 75.16c11.969 11.969 11.969 31.379 0 43.349-11.969 11.969-31.38 11.969-43.349 0s-11.969-31.379 0-43.349c11.969-11.969 31.379-11.969 43.349 0zm-21.674-19.969c22.997 0 41.643 18.646 41.643 41.643s-18.646 41.643-41.643 41.643-41.643-18.646-41.643-41.643 18.646-41.643 41.643-41.643z" fill-rule="evenodd"/></svg>