<svg  width='70' height="70" id="Layer_1" viewBox="0 0 512 512" xmlns="http://www.w3.org/2000/svg" data-name="Layer 1"><g fill-rule="evenodd"><path d="m215.182 234.277h15.391a3.877 3.877 0 1 1 0 7.753h-15.391v48.1a10.173 10.173 0 0 0 9.487 10.109 32.808 32.808 0 0 1 62.662 0 10.173 10.173 0 0 0 9.487-10.109v-48.1h-44.818a3.877 3.877 0 0 1 0-7.753h44.814v-11.889a10.168 10.168 0 0 0 -10.128-10.129h-61.375a10.168 10.168 0 0 0 -10.129 10.129zm30.232 52.956a25.213 25.213 0 0 1 21.172 0v89.2a13.047 13.047 0 0 0 5.093 10.41 25.6 25.6 0 1 1 -31.358 0 13.047 13.047 0 0 0 5.093-10.41zm36.5 98.884a33.534 33.534 0 0 1 4 6.286 33.3 33.3 0 1 1 -59.826 0 33.511 33.511 0 0 1 3.626-5.817l-2.163-10.278a123.145 123.145 0 0 1 -37.181-15.5l-25.409 17.112a3.873 3.873 0 0 1 -5.044-.62l-25.739-25.358a3.866 3.866 0 0 1 -.464-4.963l16.994-26.055a123.207 123.207 0 0 1 -15.308-37.266l-30.076-5.864a3.87 3.87 0 0 1 -3.136-4.029l-.27-36.124a3.864 3.864 0 0 1 3.076-3.8l30.549-6.435a123.09 123.09 0 0 1 15.508-37.185l-17.115-25.4a3.873 3.873 0 0 1 .619-5.043l25.359-25.74a3.865 3.865 0 0 1 4.963-.463l26.054 16.993a123.151 123.151 0 0 1 37.269-15.309l5.863-30.072a3.87 3.87 0 0 1 4.029-3.137l36.124-.269a3.861 3.861 0 0 1 3.8 3.075l6.436 30.555a123.109 123.109 0 0 1 37.181 15.5l25.406-17.111a3.873 3.873 0 0 1 5.043.62l25.741 25.359a3.867 3.867 0 0 1 .463 4.963l-16.993 26.053a123.155 123.155 0 0 1 15.307 37.266l30.073 5.863a3.871 3.871 0 0 1 3.136 4.03l.27 36.124a3.863 3.863 0 0 1 -3.075 3.8l-30.556 6.435a123.109 123.109 0 0 1 -15.5 37.181l17.113 25.406a3.874 3.874 0 0 1 -.619 5.044l-25.36 25.74a3.866 3.866 0 0 1 -4.963.463l-26.053-16.993a123.155 123.155 0 0 1 -37.266 15.305l-1.882 9.658zm-7.577-54.611a77.877 77.877 0 1 0 -36.678 0v44.922a5.009 5.009 0 0 1 -1.409 3.678l-1.645-7.818a3.869 3.869 0 0 0 -2.984-3 115.266 115.266 0 0 1 -39.186-16.364 3.873 3.873 0 0 0 -4.359.08l-24.826 16.724-21.4-21.084 16.69-25.589a3.863 3.863 0 0 0 -.041-4.273 115.3 115.3 0 0 1 -16.078-39.228 3.867 3.867 0 0 0 -3.059-3.011l-29.47-5.743-.224-30.041 29.9-6.292a3.868 3.868 0 0 0 3-2.984 115.3 115.3 0 0 1 16.367-39.191 3.873 3.873 0 0 0 -.08-4.359l-16.722-24.822 21.084-21.4 25.583 16.689a3.866 3.866 0 0 0 4.274-.041 115.248 115.248 0 0 1 39.229-16.08 3.868 3.868 0 0 0 3.011-3.059l5.748-29.469 30.04-.224 6.293 29.9a3.868 3.868 0 0 0 2.984 3 115.311 115.311 0 0 1 39.187 16.365 3.873 3.873 0 0 0 4.359-.081l24.825-16.724 21.4 21.084-16.69 25.588a3.866 3.866 0 0 0 .042 4.274 115.3 115.3 0 0 1 16.08 39.229 3.869 3.869 0 0 0 3.059 3.012l29.468 5.747.225 30.04-29.9 6.293a3.868 3.868 0 0 0 -3 2.984 115.258 115.258 0 0 1 -16.365 39.187 3.875 3.875 0 0 0 .08 4.359l16.726 24.825-21.085 21.4-25.59-16.691a3.865 3.865 0 0 0 -4.273.042 115.248 115.248 0 0 1 -39.227 16.08 3.868 3.868 0 0 0 -3.011 3.059l-1.384 7.085a5.107 5.107 0 0 1 -.965-3.155v-44.923zm0-38.639a25 25 0 0 1 6.161 11.749 3.878 3.878 0 0 0 3.847 3.4h2.343a17.925 17.925 0 0 0 17.882-17.883v-67.745a17.925 17.925 0 0 0 -17.882-17.882h-61.377a17.925 17.925 0 0 0 -17.883 17.882v67.741a17.925 17.925 0 0 0 17.883 17.883h2.342a3.878 3.878 0 0 0 3.847-3.4 25 25 0 0 1 6.161-11.749v30.648a70.229 70.229 0 1 1 36.678 0v-30.644zm-18.337 106.709a7.515 7.515 0 1 0 7.515 7.514 7.513 7.513 0 0 0 -7.515-7.514zm0-7.754a15.268 15.268 0 1 0 15.268 15.268 15.27 15.27 0 0 0 -15.268-15.268z"/><path d="m256 16a240 240 0 1 0 169.705 70.3 239.269 239.269 0 0 0 -169.705-70.3zm164.22 75.78a232.243 232.243 0 1 1 -164.22-68.022 231.543 231.543 0 0 1 164.22 68.022z"/></g></svg>