<svg clip-rule="evenodd"  fill-rule="evenodd" height="0.7in" image-rendering="optimizeQuality" shape-rendering="geometricPrecision" text-rendering="geometricPrecision" viewBox="0 0 2000 2000" width="0.7in" xmlns="http://www.w3.org/2000/svg"><g id="Layer_x0020_1"><path d="m577 593c-85 0-154-69-154-153 0-85 69-154 154-154 84 0 153 69 153 154 0 84-69 153-153 153zm521 1116c-126 0-245-39-344-112-24 145-150 256-302 256-168 0-305-137-305-305 0-200 188-345 379-297-18-81-19-165-2-248-213-25-377-208-377-426 0-237 193-430 430-430 226 0 412 175 428 397 70-11 141-9 208 4-1-44 27-60 56-77l-19-11c-35-20-47-65-27-100l59-102c20-35 65-47 100-27l19 11v-22c0-40 33-73 73-73h118c40 0 73 33 73 73v23l20-12c35-20 79-8 100 27l58 102c21 35 8 80-27 100l-19 11c25 14 45 24 54 56 5 19 2 39-8 56l-58 101c-20 35-65 48-100 27l-20-11v22c0 41-33 73-73 73h-8c147 218 130 510-42 710l54 54c40-23 92-17 125 16l102 103c65 64 18 175-73 175-26 0-52-10-72-30l-103-102c-33-33-39-85-16-124l-53-54c-110 107-255 166-408 166zm-393-152c-74-67-130-151-162-245-166-63-343 59-343 235 0 140 113 253 252 253 136 0 247-108 253-243zm132-709c-114-203-407-203-521 0 156 150 365 132 521 0zm37-41c55-72 83-158 79-249-10-199-175-358-376-358-314 0-488 362-298 607 138-219 458-219 595 0zm400-243c105 33 197 94 269 178 78 0 69 8 69-71 0-21 36-43 55-32s46 31 59 28c5-2 10-5 12-10l59-101c21-37-67-39-65-77 2-39-6-29 58-65 9-6 12-18 7-28l-59-101c-21-37-66 38-99 17-33-20-27-12-27-82 0-11-9-20-20-20h-118c-42 0 0 77-34 95-35 18-23 18-85-18-10-5-22-2-27 8l-59 101c-21 37 67 39 65 77-2 39 5 29-58 66-17 9-8 25-2 35zm-696 442c-40 177 14 365 143 493 208 209 545 209 753 0 286-286 159-772-225-887-78-23-161-28-243-14-1 25-5 50-10 73 154-35 315 11 429 125 181 180 181 474 0 654-160 160-411 181-594 52l-61-52c-117-117-163-291-119-450zm134-21c-40 110-30 229 23 329v-93c0-56 45-101 101-101 55 0 100 45 100 101v279c20 8 40 15 61 20v-599c0-56 45-101 100-101 56 0 101 45 101 101v599c21-5 41-12 61-20v-413c0-55 45-100 100-100 56 0 101 45 101 100v228c81-155 57-352-73-482-108-108-264-146-409-102-47 120-145 214-266 254zm77 407c27 32 58 58 94 80v-251c0-62-94-62-94 0zm617 0v-305c0-62-94-62-94 0v385c36-22 67-49 94-80zm-356 138c32 4 63 4 95 0v-609c0-62-95-62-95 0zm598 69c-44 0-66 53-35 84l103 103c46 46 116-24 70-70l-103-103c-9-9-22-14-35-14zm-115-991c-75 0-137-61-137-137 0-75 62-137 137-137 76 0 137 62 137 137 0 76-61 137-137 137zm0-221c-46 0-84 38-84 84s38 84 84 84 84-38 84-84-38-84-84-84zm-1107 1326c-71 0-92-96-43-96 37 0 16 43 43 43 80 0 69 10 69-70 0-8-7-16-16-16h-53c-38 0-70-31-70-69v-53c0-39 31-70 70-70 0-43 53-43 53 0 70 0 92 96 43 96-37 0-16-43-43-43-80 0-69-10-69 70 0 9 7 16 16 16h53c38 0 69 31 69 69v53c0 39-31 70-69 70 0 43-53 43-53 0zm151-1374c-56 0-101 45-101 100 0 56 45 101 101 101 55 0 100-45 100-101 0-55-45-100-100-100z"/></g></svg>