<svg id="Layer_1" enable-background="new 0 0 103 103" height="75" viewBox="0 0 103 103" width="75" xmlns="http://www.w3.org/2000/svg"><g><path d="m17.3154297 85.8540039c0-2.7089844-2.2041016-4.9130859-4.9130859-4.9130859-2.7036133 0-4.902832 2.2041016-4.902832 4.9130859 0 2.703125 2.1992188 4.9023438 4.902832 4.9023438 2.7089843 0 4.9130859-2.1992188 4.9130859-4.9023438zm-7.815918 0c0-1.6064453 1.3022461-2.9130859 2.902832-2.9130859 1.6064453 0 2.9130859 1.3066406 2.9130859 2.9130859 0 1.6005859-1.3066406 2.9023438-2.9130859 2.9023438-1.6005859 0-2.902832-1.3017579-2.902832-2.9023438z"/><path d="m82.3081055 83.0991211-1.2602539-1.4960938c-.3564453-.421875-.9868164-.4765625-1.4086914-.1201172-.4223633.3554688-.4765625.9863281-.1206055 1.4091797l1.2602539 1.4960938c.1977539.234375.4804688.3554688.7651367.3554688.2275391 0 .4560547-.0771484.6435547-.2353516.4223633-.3554688.4765625-.9863281.1206055-1.4091797z"/><path d="m83.8486328 86.480957c-.4223633.3554688-.4765625.9863281-.1206055 1.4091797l1.2602539 1.4960938c.1977539.234375.4804688.3554688.7651367.3554688.2275391 0 .4560547-.0771484.6435547-.2353516.4223633-.3554688.4765625-.9863281.1206055-1.4091797l-1.2602539-1.4960938c-.355957-.4228515-.9877929-.4765625-1.4086914-.1201172z"/><path d="m87.0297852 82.1147461c-.355957-.421875-.9873047-.4765625-1.4091797-.1201172l-1.4960938 1.2607422c-.4223633.3554688-.4760742.9863281-.1201172 1.4091797.1977539.234375.4804688.3554688.7651367.3554688.2275391 0 .456543-.0771484.644043-.2353516l1.4960938-1.2607422c.4223633-.3554688.4760742-.9863281.1201172-1.4091797z"/><path d="m80.6230469 86.2045898-1.4960938 1.2597656c-.4223633.3554688-.4765625.9863281-.1210938 1.4091797.1982422.234375.480957.3554688.765625.3554688.2275391 0 .4560547-.0771484.6435547-.2353516l1.4960938-1.2597656c.4223633-.3554688.4765625-.9863281.1210938-1.4091797-.3569336-.421875-.9873047-.477539-1.4091797-.1201172z"/><path d="m4.1088867 95.8022461h3.0786133c.5522461 0 1-.4472656 1-1s-.4477539-1-1-1h-3.0786133c-.5522461 0-1 .4472656-1 1s.4477539 1 1 1z"/><path d="m92.4584961 94.8022461c0 .5527344.4477539 1 1 1h5.4326172c.5522461 0 1-.4472656 1-1s-.4477539-1-1-1h-5.4326172c-.5522461 0-1 .4472656-1 1z"/><path d="m47.1923218 45.3609619c-1.4840698-.1137085-2.8551025-.4462891-4.0697632-.9880981-.1587524-.0697632-.3355713-.1064453-.5111694-.1064453-.3175049-.000061-.6133423.1184082-.8129883.3294678-.2092896.2164917-.3151245.4828491-.3151245.7913208 0 .2411499.0709229.4510498.2188721.644043.1442871.1894531.324707.3301392.5435791.4209595 1.5549927.6765747 3.2507324 1.0909424 5.0415039 1.2316895l.567688.0444946-.0001221 2.0042725c0 .185791.0577393.336731.1755981.4533691.1082153.1112671.2585449.1671753.446167.1671753.1864014.000061.3439941-.0570679.4642334-.1677246.1239014-.1148682.184021-.2627563.184021-.4528198l.000061-1.9993896.5472412-.0613403c1.0090332-.1118164 1.9158325-.3630981 2.6951904-.7461548.9332886-.4569702 1.6644897-1.0684814 2.1744385-1.817749.5123901-.7486572.7721558-1.6115112.7722168-2.5646362 0-1.1635742-.2957764-2.1070557-.8790894-2.8046265-.5820313-.6969604-1.3048096-1.2279663-2.1490479-1.5797729-.7276001-.3031006-1.6343994-.5911255-2.6939697-.8563843l-.4666138-.1160889.0001831-6.2033081.6590576.046936c1.0992432.0776367 2.1791992.3031616 3.229126.6771851.215271.0848389.4052734.1275024.5640259.1275024.2501831 0 .446228-.1057739.6735229-.3613281.2008667-.2297363.2982788-.4846802.2982788-.7799683 0-.5441895-.2561035-.9110107-.7648315-1.0925903-1.260376-.4613037-2.6350098-.7445679-4.0842285-.842041l-.5748901-.0390625.0001221-1.9760132c0-.1881714-.0613403-.3415527-.184021-.4653931-.1118164-.1112671-.2802124-.1755981-.461792-.1755981-.184021-.000061-.3511963.0654907-.4534302.1767578-.1130371.1238403-.1707764.2802124-.1707764.4642334l-.000061 2-.5496216.0588989c-1.0679932.1148071-2.0097046.3842163-2.7974243.800293-.9320679.491272-1.6464844 1.1430664-2.1239624 1.937439-.4750977.7930908-.7168579 1.6776733-.7168579 2.6283569-.000061 1.0962524.2957764 1.9958496.880249 2.6747437.5796509.6783447 1.3024292 1.2051392 2.1466675 1.5647583.7312012.3126831 1.6428223.6199951 2.708374.9135132l.4522095.1244507-.0001831 5.96521zm1.9328613-5.6241455.7985229.2477417c.8406372.2609863 1.5117188.5406494 1.9940186.8305054.6337891.3812866.9416504.8948364.9415894 1.5706787-.000061 1.6199951-1.0175171 2.5971069-3.0259399 2.9031372l-.7083741.1082153zm-2.0684814-3.0819092c-.8250122-.2556152-1.491272-.5454712-1.9819946-.8623657-.6325684-.4125366-.9524536-1.0211182-.9524536-1.8076172.000061-.8364868.3392334-1.4924927 1.0368042-2.0048218.5231323-.387207 1.1834106-.6620483 1.9603271-.815918l.7360229-.1461182-.0001831 5.8840332z"/><path d="m48.3997192 55.9458008c4.1499634 0 7.9799805-1.4400024 11-3.8500366l.8699951 3.2200317c.2000122.7700195.789978 1.3499756 1.5599976 1.5599976.7700195.2000122 1.5700073-.0100098 2.1300049-.5700073l1.6799927-1.6900024c.0800171-.0800171.210022-.0800171.2999878.0100098l5.0800171 5.0200195c.7962646.7756958 2.0363159.7735596 2.8200073-.0100098l3.539978-3.5400391c.3800049-.3800049.5900269-.8800049.5800171-1.4199829 0-.5299683-.210022-1.039978-.5900269-1.4099731l-5.0700073-5.0100098c-.0799561-.0800171-.0799561-.2200317 0-.2999878l1.6900024-1.6800537c.5599976-.5599976.7700195-1.3599854.5700073-2.1299438-.2099609-.7700195-.789978-1.3500366-1.5599976-1.5599976l-7.0599976-1.9000244c.1099854-.7999878.1699829-1.6199951.1699829-2.460022 0-9.7699585-7.9400024-17.7099609-17.7099609-17.7099609-9.7700195 0-17.710022 7.9400024-17.710022 17.7099609.0000002 9.7700195 7.9400026 17.7200317 17.7100221 17.7200317zm24.0800171-11.4299927c.0899658.0199585.1299438.0899658.1499634.1499634.0200195.0700073 0 .1400146-.0599976.2000122l-1.6799927 1.6799927c-.8624268.8624268-.8725586 2.2474365 0 3.1199951l5.0700073 5.0200195-3.5300293 3.539978-5.0799561-5.0199585c-.8529053-.8529663-2.2403564-.8797607-3.1199951 0l-1.6800537 1.6799927c-.0599976.0599976-.1300049.0799561-.1999512.0599976-.0599976-.0200195-.1300049-.0599976-.1500244-.1500244-.0279541-.1036987-3.7307739-13.8339844-3.7000122-13.7199707-.0199585-.0800171 0-.1400146.0599976-.2000122s.1199951-.0800171.2000122-.0499878c.1036988.027893 13.8340455 3.7206421 13.7200318 3.6900024zm-24.0800171-22c8.6699829 0 15.7099609 7.0499878 15.7099609 15.7099609 0 .6500244-.039978 1.2999878-.1199951 1.9299927l-4.7099609-1.2699585c-.7700195-.2000122-1.5700073.0100098-2.1400146.5700073-.5599976.5699463-.7700195 1.3699951-.5700073 2.1399536l2.2600098 8.3800049c-2.7800293 2.4700317-6.4299927 3.9700317-10.4299927 3.9700317-8.6600342 0-15.710022-7.0599976-15.710022-15.7200317 0-8.6599731 7.0499878-15.7099609 15.7100219-15.7099609z"/><path d="m10.2324219 76.8481445h30.5281372l-1.8987427 9.9775391h-1.8256836c-4.0380859 0-7.3994141 3.003418-7.8911743 6.9765625h-18.078064c-.5522461 0-1 .4472656-1 1s.4477539 1 1 1h78.9433594c.5522461 0 1-.4472656 1-1s-.4477539-1-1-1h-16.1599731c-.4944458-3.927002-3.8478394-6.9765625-7.9064331-6.9765625h-2.3662109l-1.8987427-9.9775391h31.1028442c1.3833008 0 2.6943359-.5488281 3.668457-1.5234375.3564453-.3349609.6601563-.7353516.9301758-1.2265625.4174805-.765625.6381836-1.6376953.6381836-2.5234375 0-19.3308716 0-41.3804932 0-57.8696289 0-3.5883789-2.9111328-6.5073242-6.4892578-6.5073242h-80.0454102c-3.5874023 0-6.5063477 2.9189453-6.5063477 6.5073242v57.8696289c.0000001 2.9082032 2.3574219 5.2734375 5.2548829 5.2734375zm51.3096313 9.9775391h-20.6446533l1.8989868-9.9775391h16.8466797zm10.2943726 6.9765625h-40.6782227c.4681396-2.817627 2.9127808-4.9764404 5.8777466-4.9765625.0317993.0001831.4761963.0009766 2.6377563.0015869.005127.000061.0095825.0032959.0147705.0032959h23.0625c.0067749 0 .0126343-.0042114.0194092-.0043335 1.0219727-.0001831 2.0693359-.0003662 3.1734619-.0005493 2.9545899 0 5.4150391 2.1552734 5.8925782 4.9765625zm-64.8588867-80.097168c0-2.4853516 2.0214844-4.5073242 4.5063477-4.5073242h80.0454102c2.4755859 0 4.4892578 2.0219727 4.4892578 4.5073242v50.4047852h-5.8286133v-48.0771485c0-.5522461-.4477539-1-1-1h-75.3779298c-.5522461 0-1 .4477539-1 1v48.0771484h-5.8344726zm81.2124023 3.3276367v47.0771484h-73.3779297v-47.0771484zm-81.2124023 49.0771485c10.9334106 0 78.1035767.0001221 89.0410156 0v5.4648438c0 .5517578-.1362305 1.0927734-.3925781 1.5625-.1660156.3017578-.3442383.5400391-.5673828.7509766-.6191406.6191406-1.4277344.9599609-2.2768555.9599609-6.857666 0-19.1022949 0-32.3110352 0h-18.5019531c-13.1107788 0-25.1491699 0-31.7363281 0-1.7949219 0-3.2548828-1.46875-3.2548828-3.2734375z"/></g></svg>