<svg id="Layer_1" height="512" viewBox="0 0 512 512" width="512" xmlns="http://www.w3.org/2000/svg" data-name="Layer 1"><path d="m284 212.547 17.282-17.29-17.282-17.289a6.007 6.007 0 0 1 8.487-8.5l17.276 17.29 17.282-17.29a6.007 6.007 0 0 1 8.488 8.5l-17.283 17.289 17.283 17.29a5.935 5.935 0 0 1 0 8.431 5.935 5.935 0 0 1 -8.488 0l-17.282-17.29-17.276 17.29a5.934 5.934 0 0 1 -8.487 0 5.933 5.933 0 0 1 0-8.431zm-57.943 178.97-17.282 17.218 17.282 17.29a6.019 6.019 0 0 1 0 8.5 5.934 5.934 0 0 1 -8.487 0l-17.275-17.29-17.283 17.29a5.935 5.935 0 0 1 -8.488 0 6.02 6.02 0 0 1 0-8.5l17.276-17.29-17.28-17.218a6.007 6.007 0 1 1 8.488-8.5l17.283 17.29 17.275-17.29a6.007 6.007 0 1 1 8.487 8.5zm133.853-62.943-17.275 17.29 17.275 17.29a5.966 5.966 0 0 1 -4.237 10.216 6.07 6.07 0 0 1 -4.244-1.715l-17.279-17.289-17.283 17.289a6 6 0 0 1 -8.48-8.5l17.275-17.29-17.275-17.29a6.006 6.006 0 0 1 0-8.5 6.1 6.1 0 0 1 8.48 0l17.283 17.29 17.275-17.29a6.1 6.1 0 0 1 8.481 0 6.006 6.006 0 0 1 0 8.5zm-240.553-44.939h97.5a13.023 13.023 0 0 0 12.981-13v-72.591a13.023 13.023 0 0 0 -12.981-13h-97.5a13.017 13.017 0 0 0 -12.974 13v72.588a13.017 13.017 0 0 0 12.974 13zm271.4-38.294a3.07 3.07 0 0 0 .021-.358 2.311 2.311 0 0 0 -.021-.357l.371.357zm-16.568-34.294a6.007 6.007 0 1 0 -8.488 8.5l19.447 19.433h-86.47a31.748 31.748 0 0 0 -31.708 31.72v60.372a19.738 19.738 0 0 1 -19.7 19.719h-80.7a30.364 30.364 0 1 0 0 12h80.7a31.742 31.742 0 0 0 31.707-31.721v-60.37a19.741 19.741 0 0 1 19.7-19.718h86.47l-19.447 19.436a6.007 6.007 0 0 0 8.488 8.5l29.671-29.718a5.922 5.922 0 0 0 0-8.431l-29.671-29.721zm-78.347-81.805h165a5.969 5.969 0 0 0 6-6v-30.008a6.014 6.014 0 0 0 -6-6h-165.001a6.023 6.023 0 0 0 -6 6v30.007a5.977 5.977 0 0 0 6 6zm-110.011-.071a20.9 20.9 0 1 0 -20.9-20.933 20.917 20.917 0 0 0 20.905 20.933zm-64.022 0a20.9 20.9 0 1 0 -20.9-20.933 20.923 20.923 0 0 0 20.9 20.933zm-64.022 0a20.9 20.9 0 1 0 -20.9-20.933 20.92 20.92 0 0 0 20.9 20.933zm416.925 315a25.333 25.333 0 0 0 25.288-25.29v-258.06l-488-1.143v259.2a25.333 25.333 0 0 0 25.292 25.291zm-437.423-376.3h437.422a25.288 25.288 0 0 1 25.289 25.292v55.655l-488-1.143v-54.512a25.287 25.287 0 0 1 25.289-25.292zm437.422-12h-437.422a37.329 37.329 0 0 0 -37.289 37.292v325.718a37.329 37.329 0 0 0 37.288 37.294h437.423a37.324 37.324 0 0 0 37.289-37.294v-325.718a37.324 37.324 0 0 0 -37.287-37.295zm-289.781 178.467-25.07 14.5v-28.932zm-22.741 27.006a9.615 9.615 0 0 1 -4.78 1.286 9.582 9.582 0 0 1 -9.552-9.573v-37.437a9.56 9.56 0 0 1 14.332-8.288l32.411 18.718a9.582 9.582 0 0 1 0 16.576z" fill-rule="evenodd"/></svg>