<?xml version="1.0" encoding="UTF-8"?>
<svg xmlns="http://www.w3.org/2000/svg" id="Outline" viewBox="0 0 512 512" width="50" height="60"><path d="M480,200H467.314l6.343-6.343a24.971,24.971,0,0,0-35.314-35.314L432,164.686V152a8,8,0,0,0-8-8H392a8,8,0,0,0-5.657,2.343L360,172.686V104a8,8,0,0,0-2.343-5.657l-80-80A8,8,0,0,0,272,16H32a8,8,0,0,0-8,8V488a8,8,0,0,0,8,8H352a8,8,0,0,0,8-8V307.314L371.314,296H432a8,8,0,0,0,5.657-2.343l48-48A8,8,0,0,0,488,240V208A8,8,0,0,0,480,200Zm-30.343-30.343a8.97,8.97,0,0,1,12.686,12.686L444,200.686,431.314,188ZM296,392a55.972,55.972,0,1,1-38.207-53.106l-9.183,9.182a40,40,0,0,0-3.668,4.233,40.023,40.023,0,1,0,34.749,34.75,40.134,40.134,0,0,0,4.234-3.669l9.181-9.182A56.15,56.15,0,0,1,296,392Zm-61.657,5.657a8,8,0,0,0,7.6,2.1l21.949-5.487a24,24,0,1,1-26.163-26.163l-5.487,21.949A8,8,0,0,0,234.343,397.657Zm38.268-25.582a24,24,0,0,1-11.15,6.313h0L251,381.005l2.616-10.466a24.006,24.006,0,0,1,6.313-11.149L268,351.314,280.686,364ZM292,352.686,279.314,340,348,271.314,360.686,284Zm80-80L359.314,260,420,199.314,432.686,212ZM395.313,160H416v20.686l-64,64V203.313Zm-56.97,34.343A8,8,0,0,0,336,200v60.686l-65.9,65.905A71.993,71.993,0,0,0,168.455,384H118.624A24.119,24.119,0,0,0,104,369.376V302.624A24.119,24.119,0,0,0,118.624,288h98.752A24,24,0,1,0,248,257.376V240h56a8,8,0,0,0,8-8V168a8,8,0,0,0-8-8H248V144h56a8,8,0,0,0,8-8V112h32v76.686ZM104,392a8,8,0,1,1-8-8A8.009,8.009,0,0,1,104,392ZM88,280a8,8,0,1,1,8,8A8.009,8.009,0,0,1,88,280ZM296,176v48H184V176Zm-56,96a8,8,0,1,1-8,8A8.009,8.009,0,0,1,240,272ZM280,96V43.313L332.687,96Zm-8,16h24v16H184V80h80v24A8,8,0,0,0,272,112Zm72,368H40V32H264V64H176a8,8,0,0,0-8,8v64a8,8,0,0,0,8,8h56v16H176a8,8,0,0,0-8,8v64a8,8,0,0,0,8,8h56v17.376A24.119,24.119,0,0,0,217.376,272H118.624A24,24,0,1,0,88,302.624v66.752A24,24,0,1,0,118.624,400h49.831a72,72,0,1,0,136.954-38.1L344,323.314ZM472,236.687,428.687,280H387.314l64-64H472Z"/><path d="M90.343,229.657A8,8,0,0,0,96,232q.393,0,.788-.039a8,8,0,0,0,5.868-3.523l32-48a8,8,0,1,0-13.312-8.876L94.757,211.443l-9.1-9.1a8,8,0,0,0-11.314,11.314Z"/><path d="M90.343,133.657A8,8,0,0,0,96,136q.393,0,.788-.039a8,8,0,0,0,5.868-3.523l32-48a8,8,0,0,0-13.312-8.876L94.757,115.443l-9.1-9.1a8,8,0,0,0-11.314,11.314Z"/></svg>
