<svg id="svg8" height="60" viewBox="0 0 16.933333 16.933334" width="60" xmlns="http://www.w3.org/2000/svg" xmlns:svg="http://www.w3.org/2000/svg"><g id="layer1"><path id="rect822" d="m2.0997454 0c-.5717225 0-1.0407542.46904334-1.0407542 1.0407634v8.1529909c-.044501.0705-.0773348.138883-.0997346.2103232-.0579005.1844799-.005993.3649421.0372067.4707723.0435006.1058198.0732481.1654292.0816481.2619992.008.0966-.00501.241963-.10541905.489893-.10064039.24794-.1943412.360933-.26768154.424263-.0733003.0633-.13415584.08451-.23822623.128675-.10407045.0442-.26710033.135394-.35553071.306441-.08790032.17011-.11349336.375339-.11110335.683679 0 .000873.00001.0011 0 .0021.00001.000873 0 .000556 0 .0016-.00199998.308308.02320297.513579.11110335.683679.0884004.17105.25146026.262241.35553071.306441.10407039.0442.16488589.06591.23822623.129191.0733003.0633.16704115.175817.26768154.423747.10063055.24794.11384905.393323.10541905.489893-.008.0966-.038149.156169-.0816481.261999-.0435006.10583-.0951072.286292-.0372067.470773.0579005.18448.1841122.351222.4061731.576192.222061.22497.3885323.353378.5720531.413928.1835208.0606.3638977.01411.4707681-.02739.1068705-.0415.167934-.06916.2656146-.07596.0977-.007.242984.009.4904048.113172.2465713.104189.3559416.195584.4159917.269234.06.0736.079306.138227.1250558.248047.045801.10983.1459379.277005.3240085.363285.1780609.08629.3957071.113681.7306981.113681.3350013 0 .552121-.02741.7301816-.113689.178071-.0863.2787747-.253455.324525-.363285.045701-.10982.065006-.174407.1250561-.248047.06-.0736.1694204-.165044.4159914-.269234.247411-.10454.392208-.119951.4898884-.113171.0977.007.1587441.03446.2656144.07596.1068706.0415.2872474.08799.4707682.02739.1835207-.0606.3505187-.188959.5725696-.413929.2220613-.22497.3483029-.391712.4061734-.576192.0579-.18448.00599-.364942-.037207-.470772-.043501-.10583-.073665-.16543-.082165-.262-.008-.0966.005-.241952.1054189-.489892.1006302-.24793.1943414-.360417.2676816-.423747.0733-.0633.1341558-.08501.2382264-.129191.1040705-.0443.2671003-.135381.3555307-.306441.0882-.17057.1136634-.375967.1111033-.685747.0008202-.0987-.00228-.185867-.00827-.265616h6.3809496c.571713 0 1.041271-.469048 1.041271-1.040764v-9.8242816c-.000009-.57173006-.469546-1.0407634-1.041269-1.0407634zm0 .52916668h3.1935751v1.58801682h-3.7051673v-1.0764201c0-.28773006.2238709-.51159672.5115922-.51159672zm3.722737 0h10.0700976c.287721 0 .511075.22386666.511075.51159672v1.0764201h-10.5811726zm-3.4390359.52916672c-.1461207 0-.264581.1184632-.264581.2645833 0 .14612.1184603.2645833.264581.2645833.1461205 0 .2645811-.1184633.2645808-.2645833 0-.1461201-.1184603-.2645833-.2645808-.2645833zm1.0583238 0c-.1461207 0-.2645807.1184632-.264581.2645833 0 .14612.1184603.2645833.264581.2645833.1461206 0 .2645812-.1184633.264581-.2645833 0-.1461201-.1184604-.2645833-.264581-.2645833zm1.0583239 0c-.1461204 0-.264581.1184632-.264581.2645833 0 .14612.1184606.2645833.264581.2645833.146121 0 .2645813-.1184633.264581-.2645833 0-.1461201-.11846-.2645833-.264581-.2645833zm2.1171649.0005159c-.1461707-.0005794-.2651046.1173698-.2656147.2635498-.0005821.14693.1186741.2661969.2656147.2656169h8.4665919c.14617-.0005001.264634-.1194469.264064-.2656169-.000503-.14541-.118655-.2630498-.264064-.2635498zm-5.0291059 1.5875008h14.8155018v8.2191369c0 .287731-.223354.511597-.511075.511597h-6.5587149c-.0886003-.102607-.2019171-.163773-.2811173-.197404-.1040706-.0442-.1648761-.065306-.2382264-.128675-.0733003-.0633-.1670509-.176323-.2676816-.424263-.1006305-.24793-.1117818-.393333-.1033519-.489893.008-.0966.036598-.1561693.080098-.2619992.0435-.1058302.095107-.2862924.037207-.4707723-.0579011-.18448-.1841128-.3512223-.4061738-.5761924-.2220509-.22497-.3890489-.3554453-.5725696-.4159952-.1835208-.0606-.3638976-.011943-.4707682.029456-.1068603.0415-.1679338.069681-.2656144.076481-.0977.007-.2424673-.009-.4898884-.1136881-.2465612-.1041803-.3559511-.1976616-.4159914-.2713017-.0600006-.0736-.079296-.1361599-.1250561-.2459797-.0457005-.1098302-.1464641-.2770053-.324525-.3632854-.1780707-.0862999-.3951903-.1131716-.7301816-.1131716-.3350013 0-.5526271.026912-.7306981.1131716-.1780606.0863-.2782582.2534552-.3240085.3632854-.045701.1098198-.065006.1723398-.1250558.2459797-.06.0736-.1694207.1671214-.4159917.2713013-.2474112.1045361-.3927244.1204683-.4904048.1136881-.0977-.007-.158754-.034981-.2656146-.076481-.1068704-.0415002-.2872473-.0900557-.4707681-.0294556-.1169706.0386001-.2273391.1059691-.3493296.2077392zm.7880586.5296834c-.1494405.005-.2563497.1226799-.2568296.2635499-.0005794.1461701.1173769.265107.2635475.2656168h3.1760055c.1461706-.0005027.2641171-.1194467.2635472-.2656168-.0005027-.14541-.1181367-.2630498-.2635472-.2635499zm6.620209 0c-.1461706-.0005556-.265611.1173798-.2661311.2635499v4.7614667c-.0005556.14693.1192006.2661867.2661311.2656168h6.6150412c.14616-.0005289.264108-.119447.263548-.2656168v-4.7614667c-.000503-.14541-.118148-.2630397-.263548-.2635499zm.2635476.5291667h6.0858796v3.8566123l-1.928031-1.9290814c-.103201-.1025601-.2699-.1025601-.3731 0-.539102.5391103-1.032715 1.0327299-1.533227 1.5332398l-.739999-.738456c-.103191-.1025599-.2699-.1025599-.373101 0l-1.1384216 1.1384317zm-6.8770387.5270998c-.1461706.0005027-.2641276.1194369-.2635475.2656168.0005001.1454002.1181369.2630498.2635475.2635499h5.5567174c.1454105-.0005028.2630474-.1181497.2635475-.2635499.0005821-.1461799-.1173771-.2651168-.2635475-.2656168zm9.2598173 0c-.435222 0-.795293.3600802-.795293.7953002s.360071.7927165.795293.7927165c.435232 0 .79271-.3574965.79271-.7927165s-.357478-.7953002-.79271-.7953002zm0 .5291667c.14926 0 .263548.1168736.263548.2661335s-.114288.2635499-.263548.2635499c-.14925 0-.265614-.11429-.265614-.2635499s.116364-.2661335.265614-.2661335zm-9.2598173.5296834c-.1461706.0005027-.2641276.1194466-.2635475.2656168.0005001.1454099.1181369.2630498.2635475.2635498h5.5567174c.1454105-.0005027.2630474-.1181399.2635475-.2635498.0005821-.1461702-.1173771-.265117-.2635475-.2656168zm10.8478203.9043376 1.743548 1.7420125h-3.486062c.585353-.5853599 1.143482-1.1429722 1.742514-1.7420125zm-10.8478203.1539957c-.1461706.0005027-.2641276.119447-.2635475.2656168.0005001.1454103.1181369.2630498.2635475.2635499h5.5567174c.1454105-.0005027.2630474-.1181396.2635475-.2635499.0005821-.1461698-.1173771-.2651167-.2635475-.2656168zm8.2009773.6387206.552416.5524212c-.132511.1325099-.258275.2588051-.396355.396875h-1.1037985zm-5.8238826.9513631c.2995411.0000402.4504163.037079.4997067.060978.049301.0239.035062.014216.066662.089917.0315.0757.078806.2259016.2030868.3782714.1242404.152378.3172268.2962069.619078.4237469.3009913.1271799.5384048.1660554.7343157.1524455.1959108-.0136.3401453-.080004.4201255-.1111044.08-.031.0685-.03227.1131705-.017571.044701.0147.1656441.085017.361215.2831867.1955809.1981401.2636798.3192253.2774999.3632853.013801.0441.012864.032104-.019637.1111044-.0325.079-.1023119.2205464-.1193715.4159961-.0171.195451.018404.432172.1410754.734322.1226306.302141.263117.498407.4118573.626835.1487408.12843.2971575.181184.3767181.214974.0796.0338.072483.02493.091983.06253.0195.0377.055109.168553.052709.443384.00201.27483-.033209.403647-.052709.441317-.0195.0377-.012385.02883-.091983.06253-.0796.0338-.2279773.0881-.3767181.216524-.1487405.128431-.2892267.322619-.4118573.624769-.1226405.30214-.1581353.540939-.1410754.736389.0171.19545.086911.336995.1193715.415995.0325.079.033537.067.019637.111104-.013801.0441-.081909.165146-.2774999.363286-.1955709.19814-.3165347.268447-.361215.283187-.0447.0147-.0332.01353-.1131705-.01757-.08-.031-.224215-.09961-.4201255-.113172-.1959109-.0136-.4333244.02731-.7343157.154513-.3018515.12754-.4948376.271367-.619078.423747-.1242509.15237-.1715765.303118-.2030868.378788-.0315.0757-.017359.06602-.066662.08992-.0493.0239-.200165.06046-.4997067.06046-.2995313 0-.4488661-.03656-.4981562-.06046-.049301-.0239-.036713-.01432-.068213-.08992s-.078806-.226408-.2030865-.378788c-.1242404-.15238-.3177538-.296207-.619595-.423747-.3010013-.127188-.5384046-.168121-.7343155-.154511-.1959107.0136-.3396285.0821-.4196089.113172-.08.031-.0685.03227-.1131704.01757-.044701-.0147-.1661609-.08501-.3617318-.283187-.1955808-.19814-.2631631-.319236-.2769832-.363286-.0138-.0441-.01338-.0321.01912-.111104.032501-.079.1043785-.220545.1214385-.415995.0171-.19545-.020005-.434239-.1426256-.736389-.1226398-.302145-.2636331-.495827-.4123737-.624256-.14874071-.128432-.29715758-.183251-.37671787-.217042-.0796003-.0338-.0724834-.02493-.0919832-.06253-.0194998-.0377-.0551095-.16647-.0527095-.43925v-.0021-.0021c-.002-.27278.0332094-.403647.0527095-.441317.0194999-.0377.0123829-.02883.0919832-.06253.0796003-.03378.22796716-.08651.37671787-.214974.1487406-.128335.2897338-.324691.4123743-.626842.1226305-.302139.1596858-.538881.1426256-.734322-.0171-.1954593-.088898-.3369955-.1214385-.4159956-.0325-.079-.03292-.067104-.01912-.1111044.0138-.044.081402-.1651452.2769832-.3632854.1955709-.1981398.3170517-.2684467.3617318-.2831867.044701-.0147.0332-.013531.1131704.017571.08.031.2236982.097504.4196089.1111044.1959108.0136765.4333141-.0252278.7343154-.1523685.3018412-.1275401.4953544-.2713689.619595-.4237469.1242406-.1523699.1715662-.3031181.2030865-.3787881.0315-.0757.018912-.066017.068213-.089917.0493-.0239.1986249-.060561.4981557-.060463zm-.7689385 1.3208498c-.04359-.0035-.089394.0042-.1333239.024805-.4838523.2295099-.8532449.6287791-1.0500558 1.1069091-.943164 1.036666-.9145158 2.646126.083198 3.646806 1.0216546 1.0247 2.684966 1.035324 3.7206701.0248 1.0205645-.99573 1.0640204-2.62488.1090365-3.673677-.1970604-.4772073-.5654934-.8757283-1.0485053-1.1048384-.220791-.0880999-.3806048.0839155-.378785.2402954v1.396297l-.5296787.1757-.529162-.1757v-1.396297c.0003572-.14556-.1126242-.2545964-.2433939-.2651001zm-.2857681.7544761v1.098641c.0005556.113701.073412.213951.1813827.249597l.7952932.265617c.053901.0178.1119698.0178.1658801 0l.7947764-.265617c.1072005-.0363.1795624-.136417.1798322-.249597v-1.096057c.3617214.311881.5367121.795786.529162 1.177706-.0008731.612935-.3525941 1.169263-.9063965 1.431953-.0932.0436-.1521674.137406-.1519274.240296v1.354439c-.3470115.0898-.7121094.0896-1.0588407 0v-1.354439c.0006085-.10244-.058007-.196086-.150377-.240296-.5539424-.262759-.9056964-.818868-.9063965-1.431953.0004233-.357041.1243398-.811939.5276115-1.18029zm3.1186452 1.661397c.1683907.7008-.027509 1.46829-.5818715 2.00918-.1293206.12617-.2703383.23276-.4196091.31936v-.978751c.5059524-.285781.8674701-.787628 1.0014806-1.349789zm-4.1196088.0021c.1304104.55427.4829614 1.043631 1.0009636 1.347721v.978752c-.1570508-.091236-.3052719-.204144-.4397624-.339033-.5389023-.540501-.7262218-1.296806-.5612012-1.987476z"/></g></svg>