<svg width="70" height="70" id="Layer_1" enable-background="new 0 0 40 40" viewBox="0 0 40 40" xmlns="http://www.w3.org/2000/svg"><g id="Cross_Platform"><path d="m19.4050293 26.2998047c0-1.6914063-1.3759766-3.0673828-3.0673828-3.0673828s-3.0673828 1.3759766-3.0673828 3.0673828 1.3759766 3.0673828 3.0673828 3.0673828 3.0673828-1.3759766 3.0673828-3.0673828zm-5.6347656 0c0-1.4155273 1.1518555-2.5673828 2.5673828-2.5673828s2.5673828 1.1518555 2.5673828 2.5673828-1.1518555 2.5673828-2.5673828 2.5673828-2.5673828-1.1518555-2.5673828-2.5673828z"/><path d="m17.8288574 26.2998047c0-.0893555-.0478516-.171875-.125-.2163086l-1.8334961-1.0585938c-.1655912-.0964203-.375.0238934-.375.2163086v2.1171875c0 .1922379.2092638.3128128.375.2163086l1.8334961-1.0585938c.0771485-.0444335.125-.126953.125-.2163085zm-1.8334961.6254883v-1.2509766l1.0834961.6254883z"/><path d="m23.0705566 27.6806641c.1381836 0 .25-.1118164.25-.25v-2.2612305c0-.1381836-.1118164-.25-.25-.25s-.25.1118164-.25.25v.7827148l-1.2387695-.715332c-.1655922-.0964203-.375.0238934-.375.2163086v1.7299805c0 .1922379.2092648.3128128.375.2163086l1.2387695-.715332v.746582c0 .1381836.1118164.25.25.25z"/><path d="m9.927002 24.9194336c-.1381836 0-.25.1118164-.25.25v2.2612305c0 .1381836.1118164.25.25.25s.25-.1118164.25-.25v-.746582l1.2387695.715332c.1655493.0963955.375-.0238304.375-.2163086v-1.7299805c0-.1922894-.2093182-.3127823-.375-.2163086l-1.2387695.715332v-.7827148c0-.1381836-.1118165-.25-.25-.25z"/><path d="m6.2770996 14.6953125c-.3320313 0-.6020508.2700195-.6020508.6020508 0 .331543.2700195.6015625.6020508.6015625.331543 0 .6015625-.2700195.6015625-.6015625 0-.3320313-.2700195-.6020508-.6015625-.6020508z"/><path d="m8.3737793 14.6953125c-.331543 0-.6015625.2700195-.6015625.6020508 0 .331543.2700195.6015625.6015625.6015625s.6015625-.2700195.6015625-.6015625c0-.3320313-.2700195-.6020508-.6015625-.6020508z"/><path d="m10.6384277 14.7192383c-.1538086-.0444336-.3164063-.0263672-.4580078.0507813-.140625.0776367-.2426758.2050781-.2875977.359375-.0922852.3183594.0913086.652832.409668.7456055.0561523.0161133.1123047.0239258.1679688.0239258.2607422 0 .5014648-.1708984.578125-.4335938.0922851-.3188477-.0913086-.6533204-.4101563-.7460938z"/><path d="m35.8249512 11.6201172c.1381836 0 .25-.1118164.25-.25v-6.5102539c0-.6118164-.4980469-1.1098633-1.1098633-1.1098633h-9.3798828c-.6176758 0-1.1201172.4980469-1.1201172 1.1098633v2.2524414c-.2476807.0600586-.4360352.2731934-.4360352.5390625v1.2958984c0 .265625.1883545.4787598.4360352.5385742v.3500977c-.2476807.0600586-.4360352.2729492-.4360352.5385742v1.2963867c0 .265625.1883545.4787598.4360352.5385742v.9106445h-19.2402344c-.7167969 0-1.2998047.6816406-1.2998047 1.5200195v8.0898438c0 .1381836.1118164.25.25.25s.25-.1118164.25-.25v-5.1699219h20.0400391v2.199707h-11.2711182c-.5097485-.4586658-1.2232075-.4475498-1.7145386 0-5.4335685.0249939-4.9793878-.065361-5.2972412.1000977-.8240647.4291973-.4271374 1.5800781.3728027 1.5800781h4.7427979c.0048218.0065918.0065918.0153809.0115356.0219727.4544544.6574059 1.4909048.7559166 2.0535278-.0219727h11.1022339c0 .3932533 0 2.8183994 0 2.6801758 0 .6118164.4980469 1.1098633 1.1098633 1.1098633h3v5.5800781c0 .3139648-.2558594.5698242-.5698242.5698242h-23.0102539c-.3139648 0-.5698242-.2558594-.5698242-.5698242v-5.7900391c0-.1381836-.1118164-.25-.25-.25s-.25.1118164-.25.25v5.7900391c0 .5898438.4799805 1.0698242 1.0698242 1.0698242h6.1564331c.0735474.7280273.5809326 1.2963867 1.2009888 1.2963867h3.1328125v1.1137695h-3.4702148c-.2978516 0-.5400391.2421875-.5400391.5400391v.8798828c0 .2978516.2421875.5400391.5400391.5400391h8.4399414c.2978516 0 .5400391-.2421875.5400391-.5400391v-.8798828c0-.2978516-.2421875-.5400391-.5400391-.5400391h-3.2900391v-1.1137695h3.1425781c.6196289 0 1.1269531-.5683594 1.2005005-1.2963867h6.4972534c.5898438 0 1.0698242-.4799805 1.0698242-1.0698242v-5.5800781h5.8798828c.6176758 0 1.1201172-.4980469 1.1201172-1.1098633 0-3.6360149 0-7.2500267 0-10.8701172 0-.1381836-.1118164-.25-.25-.25s-.25.1118164-.25.25v10.1401367c.0000001.3305665-.2792968.6098634-.6098632.6098634h-9.3798828c-.3417969 0-.6201172-.2734375-.6201172-.6098633v-11.1811523c.2460327-.0605469.4331055-.2734375.4331055-.5380859v-1.2963867c0-.2646484-.1870728-.4770508-.4331055-.5380859v-.3510743c.2460327-.0605469.4331055-.2734375.4331055-.5380859v-1.2958985c0-.2651367-.1870728-.4775391-.4331055-.5385742v-2.2529297c0-.3364258.2783203-.6098633.6201172-.6098633h2.1159058l.2438965.7397461c.0700073.2299805.2999878.4001465.5299683.4001465h3.5500488c.2199707 0 .4400024-.1599121.5199585-.4001465l.2520751-.7397461h2.1680298c.3305664 0 .6098633.2792969.6098633.6098633v6.5102539c0 .1381836.1118164.25.25.25zm-15.3300782 23.2099609-.040039.9199219-8.4799805-.0400391.0400391-.9199219h3.7202148 1.1796875 3.5400391c.0219726.0000001.040039.0180665.040039.0400391zm-3.8300781-.540039h-.6796875v-1.1137695h.6796875zm-12.2397461-17.2299805v-2.4199219c0-.5527344.3662109-1.0200195.7998047-1.0200195h19.2402344v3.4399414zm7.2885742 4.1079102c-.219346-.2861938-.213769-.6999416.0302734-.9746094.4704218-.5437336 1.3813477-.2257996 1.3813477.5068359 0 .4355469-.9903974 1.0760479-1.4116211.4677735zm1.8630982-.2280274c.0157471-.0805664.0485229-.1547852.0485229-.2397461 0-.15625-.0380249-.3022461-.0897827-.4404297h10.9296265v.6801758zm17.6482544-16.1201172h-1.9099731c-.1400146 0-.25-.1098633-.25-.25 0-.1298828.1099854-.25.25-.25h1.9099731c.1400146 0 .25.1201172.25.25 0 .1401367-.1099854.25-.25.25z"/><path d="m30.442627 15.0429688c1.5507813 0 2.8120117-1.2612305 2.8120117-2.8120117s-1.2612305-2.8120117-2.8120117-2.8120117-2.8120117 1.2612305-2.8120117 2.8120117 1.2612304 2.8120117 2.8120117 2.8120117zm0-5.1240235c1.2749023 0 2.3120117 1.0371094 2.3120117 2.3120117s-1.0371094 2.3120117-2.3120117 2.3120117-2.3120117-1.0371094-2.3120117-2.3120117 1.0371093-2.3120117 2.3120117-2.3120117z"/><path d="m30.0290527 13.4101563 1.6674805-.9628906c.0771484-.0444336.125-.1269531.125-.2163086s-.0478516-.171875-.125-.2163086l-1.6674805-.9624023c-.1655922-.0964203-.375.0238943-.375.2163086v1.925293c0 .1932887.2102242.3122538.375.2163085zm.125-1.7084961.9174805.5292969-.9174805.5297852z"/><path d="m34.3352051 18.5898438c0-.1381836-.1118164-.25-.25-.25h-4.2583008v-.3447266c0-.2299805-.1875-.4169922-.4174805-.4169922h-1.3613281c-.2299805 0-.4174805.1870117-.4174805.4169922v.3447266h-1.015625c-.1381836 0-.25.1118164-.25.25s.1118164.25.25.25h1.015625v.5170898c0 .2299805.1875.4174805.4174805.4174805h1.3613281c.2299805 0 .4174805-.1875.4174805-.4174805v-.5170898h4.2583008c.1381836 0 .25-.1118165.25-.25zm-6.2045899.6845703v-.6740723c.0001831-.0041504.0043945-.0065918.0043945-.010498 0-.0043945-.0042114-.0065918-.0043945-.0107422v-.5009766h1.1962891v.5068359c-.000061.0019531-.0019531.0029297-.0019531.0048828 0 .001709.0018921.0026855.0019531.0046387v.6799316h-1.1962891z"/><path d="m26.5163574 9.4868164v-3.0620117c0-.1381836-.1118164-.25-.25-.25s-.25.1118164-.25.25v3.0620117c0 .1381836.1118164.25.25.25s.25-.1118164.25-.25z"/><path d="m19.7585449 11.144043c.0092773.1318359.1191406.2324219.2490234.2324219.0063477 0 .012207 0 .0180664-.0004883.1376953-.0097656.2416992-.1293945.2319336-.2670898-.0649414-.9130859.6245117-1.7084961 1.5366211-1.7729492.1376953-.0097656.2416992-.1293945.2319336-.2670898-.0097656-.1381836-.1455078-.2416992-.2670898-.2319336-1.1875.0844725-2.0849609 1.1196288-2.0004883 2.3071288z"/><path d="m21.6291504 7.019043c-2.1950645.1565738-3.8446045 2.0592175-3.6879883 4.2548828.0097656.1313477.1191406.2319336.2490234.2319336.0063477 0 .012207 0 .0185547-.0004883.1376953-.0097656.2412109-.1293945.2314453-.2675781-.1374073-1.9186602 1.3052406-3.5833135 3.2241211-3.7197266.1376953-.0097656.2416992-.1293945.2319336-.2670898-.0107422-.1386719-.1411132-.2470703-.2670898-.2319336z"/><path d="m28.5769043 22.6923828c-.1381836 0-.25.1118164-.25.25s.1118164.25.25.25h3.765625c.1381836 0 .25-.1118164.25-.25s-.1118164-.25-.25-.25z"/></g></svg>