<svg id="Layer_1" enable-background="new 0 0 66 66" height="50" viewBox="0 0 66 66" width="50" xmlns="http://www.w3.org/2000/svg"><g style="fill:none;stroke:#000;stroke-width:2;stroke-linecap:round;stroke-linejoin:round;stroke-miterlimit:10"><g><g><path d="m49.3 53.8h10.6c2.2 0 4-1.8 4-4v-43.6c0-2.2-1.8-4-4-4h-53.8c-2.2 0-4 1.8-4 4v43.6c0 2.2 1.8 4 4 4h10.8"/><path d="m30.6 53.8h7.6"/><path d="m63.9 11.8h-61.8"/><g><circle cx="8.8" cy="7" r="1.7"/><circle cx="16" cy="7" r="1.7"/></g></g><g><g><path d="m32.5 38.5 10.4-10.4 6.4 6.4-10.5 10.5"/><path d="m34.1 49.7-13.4 13.4c-.8.8-1.9.9-2.9.5-1.8-.8-3.1-2.2-4-4-.5-1-.3-2.2.5-2.9l13.2-13.1"/><path d="m42.9 28.1 9.9-3.5-3.5 9.9z"/><path d="m16.9 54.2 6.4 6.3"/></g><g><path d="m39.6 55.1-24.4-23.4c-1.6-1.5-1.6-4-.1-5.5 1.5-1.5 4-1.5 5.5.1l23.6 24.5"/><path d="m47.5 52.2c2.2 1.3 4.5 11.6 4.5 11.6s-3.4-3.4-8.7-4.3c-3.2-.5-4.7-4.4-2.4-6.7 0 0 0 0 .1-.1 1.9-2 4.8-2.2 6.5-.5z"/></g></g></g><path d="m6 15.7h53.9v6h-53.9z"/><circle cx="32.5" cy="28" r="2.9"/><path d="m55.8 28h4.2"/><path d="m6 28h3.7"/><g><path d="m53.8 34.6h6.2"/><path d="m6 34.6h5.7"/></g><g><path d="m48.8 41.2h11.2"/><path d="m6 41.2h12.7"/></g><g><path d="m48.8 47.8h11.2"/><path d="m6 47.8h9.7"/></g></g></svg>