<svg enable-background="new 0 0 512 512" viewBox="0 0 512 512" xmlns="http://www.w3.org/2000/svg"><g id="Layer_1"/><g id="Layer_2"/><g id="Layer_3"/><g id="Layer_4"/><g id="Layer_5"/><g id="Layer_6"/><g id="Layer_7"/><g id="Layer_8"/><g id="Layer_9"/><g id="Layer_10"/><g id="Layer_11"/><g id="Layer_12"/><g id="Layer_13"><g id="art_board_16"><g style="fill:none;stroke:#000;stroke-width:10;stroke-linecap:round;stroke-linejoin:round;stroke-miterlimit:10"><g><path id="XMLID_745_" d="m437.7 189.8c-11.3-11.4-28.4-13-41.5-5.1v58.7c13 8 30.2 6.3 41.5-5.1 13.2-13.4 13.2-35.1 0-48.5z"/><path id="XMLID_743_" d="m496 234.2v-40.3l-22.4-.4c-.9-2.8-2.4-5.1-3.7-7.8l16.1-16.3-28.2-28.5-15.8 16c-2.6-1.3-5.7-2.1-8.4-3v-23.1h-37.4v166.4h37.4v-23.1c2.7-.9 5.1-2.4 7.7-3.7l16.5 16.7 28.2-28.5-16.1-16.3c1.3-2.7 2.4-5.4 3.3-8.2z"/></g><path id="XMLID_4048_" d="m131.8 434.2h148.6"/><path id="XMLID_4047_" d="m378.2 375.4h-344.3c-9.8 0-17.8-8.1-17.8-18v-261.6c0-9.9 8-18 17.8-18h344.5c9.8 0 17.8 8.1 17.8 18v261.5c0 10-8 18.1-18 18.1z"/><path id="XMLID_4046_" d="m16 339.7h380.2"/><path id="XMLID_4045_" d="m206.1 375.4v58.8"/><g id="XMLID_4049_"><path id="XMLID_4052_" d="m246.4 287.6c-15.7 11.7-31.1 18.6-52.2 18.6-52.2 0-94.5-42.8-94.5-95.5s42.3-95.5 94.5-95.5 94.5 42.8 94.5 95.5c0 15.7-6.9 33.8-13.6 47"/><path id="XMLID_4051_" d="m255.1 313.5-17.2-65 64.2 17.5z"/><path id="XMLID_4050_" d="m278.7 289.7 33.9 34.2"/></g></g><g id="XMLID_201_"><g id="XMLID_202_"><path id="XMLID_203_" d="m196.7 270.7h-7.8v-17.3c-6-.1-11-.7-15-1.9s-7-2.4-8.9-3.6l2.5-7.5c1.1.6 2.4 1.3 3.9 1.9 1.4.6 3.1 1.2 4.9 1.7 1.9.5 4 1 6.4 1.3s5.3.5 8.6.5c3.5 0 6.4-.4 8.8-1.1s4.4-1.7 6-2.9c1.5-1.2 2.7-2.7 3.3-4.3.7-1.7 1-3.5 1-5.3 0-2.9-.6-5.4-1.7-7.4s-2.7-3.7-4.6-5.1c-2-1.5-4.4-2.8-7.2-3.9s-5.9-2.3-9.3-3.6c-2.4-.9-4.8-1.9-7.3-3.1-2.5-1.1-4.7-2.5-6.7-4.2s-3.6-3.7-4.8-6c-1.2-2.4-1.9-5.2-1.9-8.5 0-6.6 1.8-11.7 5.4-15.4 3.6-3.6 9.1-6 16.7-7v-16h7.8v15.6c4.2.1 7.8.5 11 1.3 3.1.8 5.8 1.6 7.9 2.5l-2.3 7.4c-1.5-.6-3.7-1.4-6.6-2.2s-6.9-1.3-11.8-1.3c-12.6 0-18.9 4.6-18.9 13.8 0 2.5.4 4.6 1.3 6.2.9 1.7 2.2 3.1 3.9 4.4s3.7 2.4 6.1 3.4 5 2 8 3.1c3.2 1.3 6.3 2.5 9.2 3.8 3 1.3 5.6 2.9 7.8 4.8 2.3 1.9 4.1 4.2 5.4 6.8s2 6 2 9.8c0 6.3-2 11.3-6.1 15.2s-9.7 6-16.9 6.6v17.5z" stroke="#000" stroke-linecap="round" stroke-linejoin="round" stroke-miterlimit="10" stroke-width="3"/></g></g></g></g><g id="Layer_14"/><g id="Layer_15"/><g id="Layer_16"/><g id="Layer_17"/><g id="Layer_18"/><g id="Layer_19"/><g id="Layer_20"/><g id="Layer_21"/><g id="Layer_22"/><g id="Layer_23"/><g id="Layer_24"/><g id="Layer_25"/><g id="Layer_26"/><g id="Layer_27"/><g id="Layer_28"/><g id="Layer_29"/><g id="Layer_30"/><g id="Layer_31"/><g id="Layer_32"/><g id="Layer_33"/><g id="Layer_34"/><g id="Layer_35"/><g id="Layer_36"/><g id="Layer_37"/><g id="Layer_38"/><g id="Layer_39"/><g id="Layer_40"/></svg>