<svg id="Layer_1" height="60" viewBox="0 0 66 66" width="60" xmlns="http://www.w3.org/2000/svg"><g><path d="m40.2 11.5h-10.8l-1.8-7.1h14.5z" style="fill:none;stroke:#000;stroke-linecap:round;stroke-linejoin:round;stroke-miterlimit:10;stroke-width:1.5"/><circle cx="30.1" cy="15.5" r="1.4" style="fill:none;stroke:#000;stroke-linecap:round;stroke-linejoin:round;stroke-miterlimit:10;stroke-width:1.5"/><circle cx="37.8" cy="15.5" r="1.4" style="fill:none;stroke:#000;stroke-linecap:round;stroke-linejoin:round;stroke-miterlimit:10;stroke-width:1.5"/><path d="m36.4 15.5h-4.8" style="fill:none;stroke:#000;stroke-linecap:round;stroke-linejoin:round;stroke-miterlimit:10;stroke-width:1.5"/><path d="m30.1 14v-2.5" style="fill:none;stroke:#000;stroke-linecap:round;stroke-linejoin:round;stroke-miterlimit:10;stroke-width:1.5"/><path d="m27.6 4.4-.5-1.7c-.2-.6-.7-1-1.3-1h-1.9" style="fill:none;stroke:#000;stroke-linecap:round;stroke-linejoin:round;stroke-miterlimit:10;stroke-width:1.5"/><path d="" fill="#2aabf5"/><g style="fill:none;stroke:#000;stroke-linecap:round;stroke-linejoin:round;stroke-miterlimit:10;stroke-width:1.5"><path d="m17.3 50.2v4.6c0 1.4 1.1 2.5 2.5 2.5h34.6"/><path d="m64.3 50.2v4.6c0 1.4-1.1 2.5-2.5 2.5h-3"/><path d="m45.7 57.3 2.6 7"/><path d="m33.3 64.3 2.6-7"/><path d="m30.4 64.3h20.7"/><path d="m39.8 53.8h1.9"/><path d="m17.3 28.2v22h34.9"/><path d="m62.3 21.4c1.1 0 2 .9 2 2v26.8h-3.3"/><path d="m21 21.4h30.3"/><path d="m51.9 43.2h-22.3c-.6 0-1-.4-1-1v-12.8c0-.6.4-1 1-1h22.3c.6 0 1 .4 1 1v12.8c0 .6-.4 1-1 1z"/><path d="m52.9 31.9v-2.3c0-.7-.6-1.3-1.3-1.3h-21.7c-.7 0-1.3.6-1.3 1.3v2.3z"/><path d="m35.4 39c-.3.3-.8.5-1.3.5-1 0-1.9-.9-1.9-1.9s.8-1.9 1.9-1.9c.5 0 .9.2 1.3.5"/><circle cx="36.7" cy="37.6" r="1.9"/><path d="m41.8 36.2h7.5"/><path d="m41.8 38.9h7.5"/><circle cx="56.6" cy="51.3" r="1.4"/><path d="m61.2 51.4c0 2.5-4.6 9.5-4.6 9.5s-4.6-6.9-4.6-9.5c0-2.5 2-4.6 4.6-4.6 2.5.1 4.6 2.1 4.6 4.6z"/><path d="m6.8 64.3c-2.8 0-5-2.2-5-5v-5.1c0-2.8 2.2-5 5-5 2.8 0 5 2.2 5 5v5.1c0 2.7-2.3 5-5 5z"/><path d="m6.8 53.3v.6"/><path d="m6.8 49.2v-19.6c0-.2 0-.4.1-.6"/><path d="m10.3 30.1v12.8c0 1 .8 1.8 1.8 1.8s1.8-.8 1.8-1.8v-6.7c0-1 .8-1.8 1.8-1.8h1.8"/><circle cx="11.4" cy="20.5" r="9.7"/></g><path d="m11 25.9v-1.3c-.8 0-1.5-.2-2-.6l.3-.9c.5.3 1.1.6 1.9.6.9 0 1.5-.5 1.5-1.3 0-.7-.5-1.2-1.5-1.5-1.3-.5-2.1-1.1-2.1-2.3 0-1.1.8-1.9 2-2.1v-1.3h.8v1.3c.8 0 1.3.2 1.7.5l-.3.9c-.3-.2-.8-.4-1.6-.4-1 0-1.4.6-1.4 1.1 0 .7.5 1 1.6 1.5 1.3.5 2 1.2 2 2.4 0 1-.7 2-2.1 2.2v1.4h-.8z"/><path d="m60.2 23.6h-7.2c-1 0-1.7-.8-1.7-1.7 0-1 .8-1.7 1.7-1.7h7.2c1 0 1.7.8 1.7 1.7 0 .9-.8 1.7-1.7 1.7z" style="fill:none;stroke:#000;stroke-linecap:round;stroke-linejoin:round;stroke-miterlimit:10;stroke-width:1.5"/><path d="m58.9 23.6v1.2c0 1.3-1 2.3-2.3 2.3s-2.3-1-2.3-2.3v-1.2" style="fill:none;stroke:#000;stroke-linecap:round;stroke-linejoin:round;stroke-miterlimit:10;stroke-width:1.5"/><path d="m59.2 20.1c.6-2 1.7-3.9 3.1-5.6 1.5-1.7 2.3-4.2 1.8-6.8-.6-2.9-2.9-5.2-5.8-5.8-5-1-9.3 2.7-9.3 7.5 0 1.9.7 3.6 1.7 4.9 1.4 1.7 2.6 3.7 3.3 5.8" style="fill:none;stroke:#000;stroke-linecap:round;stroke-linejoin:round;stroke-miterlimit:10;stroke-width:1.5"/><path d="m56.6 20.1v-8.2" style="fill:none;stroke:#000;stroke-linecap:round;stroke-linejoin:round;stroke-miterlimit:10;stroke-width:1.5"/><path d="m54.6 12.7c1.1-1.1 2.8-1.1 3.9 0" style="fill:none;stroke:#000;stroke-linecap:round;stroke-linejoin:round;stroke-miterlimit:10;stroke-width:1.5"/></g></svg>