<svg id="Layer_1" enable-background="new 0 0 450 450" height="512" viewBox="0 0 450 450" width="512" xmlns="http://www.w3.org/2000/svg"><g><g><path d="m440 332.2h-430c-2.8 0-5-2.2-5-5s2.2-5 5-5h430c2.8 0 5 2.2 5 5s-2.2 5-5 5z"/></g><g><path d="m409.1 373.9h-368.2c-19.8 0-35.9-16.1-35.9-35.9v-221.5c0-19.8 16.1-35.9 35.9-35.9h40.4c2.8 0 5 2.2 5 5s-2.2 5-5 5h-40.4c-14.3 0-25.9 11.6-25.9 25.9v221.5c0 14.3 11.6 25.9 25.9 25.9h368.2c14.3 0 25.9-11.6 25.9-25.9v-221.5c0-14.3-11.6-25.9-25.9-25.9h-40.4c-2.8 0-5-2.2-5-5s2.2-5 5-5h40.4c19.8 0 35.9 16.1 35.9 35.9v221.5c0 19.8-16.1 35.9-35.9 35.9z"/></g><g><path d="m264.1 433.6c-1.8 0-3.5-1-4.4-2.7-11.1-21.1-11.1-42.2 0-64.3 1.2-2.5 4.2-3.5 6.7-2.2 2.5 1.2 3.5 4.2 2.2 6.7-9.7 19.3-9.7 36.8 0 55.2 1.3 2.4.3 5.5-2.1 6.8-.8.3-1.6.5-2.4.5zm-78.2 0c-.8 0-1.6-.2-2.3-.6-2.4-1.3-3.4-4.3-2.1-6.8 9.6-18.3 9.6-35.9 0-55.2-1.2-2.5-.2-5.5 2.2-6.7 2.5-1.2 5.5-.2 6.7 2.2 11.1 22.1 11.1 43.2 0 64.3-1 1.8-2.7 2.8-4.5 2.8z"/></g><g><path d="m287.8 433.6h-125.6c-2.8 0-5-2.2-5-5s2.2-5 5-5h125.7c2.8 0 5 2.2 5 5s-2.3 5-5.1 5z"/></g><g><path d="m353.4 299.9h-256.7c-11.2 0-20.4-9.1-20.4-20.4v-242.7c0-11.2 9.1-20.4 20.4-20.4h256.7c11.2 0 20.4 9.1 20.4 20.4v242.7c-.1 11.2-9.2 20.4-20.4 20.4zm-256.7-273.5c-5.7 0-10.4 4.7-10.4 10.4v242.7c0 5.7 4.7 10.4 10.4 10.4h256.7c5.7 0 10.4-4.7 10.4-10.4v-242.7c0-5.7-4.7-10.4-10.4-10.4z"/></g><g><path d="m368.7 84.4h-287.4c-2.8 0-5-2.2-5-5s2.2-5 5-5h287.5c2.8 0 5 2.2 5 5s-2.3 5-5.1 5z"/></g><path d="m118.3 65.8c-8.5 0-15.4-6.9-15.4-15.4s6.9-15.4 15.4-15.4 15.4 6.9 15.4 15.4-6.9 15.4-15.4 15.4zm0-20.8c-3 0-5.4 2.4-5.4 5.4s2.4 5.4 5.4 5.4 5.4-2.4 5.4-5.4-2.4-5.4-5.4-5.4z"/><path d="m159.7 65.8c-8.5 0-15.4-6.9-15.4-15.4s6.9-15.4 15.4-15.4 15.4 6.9 15.4 15.4-6.9 15.4-15.4 15.4zm0-20.8c-3 0-5.4 2.4-5.4 5.4s2.4 5.4 5.4 5.4 5.4-2.4 5.4-5.4-2.4-5.4-5.4-5.4z"/><path d="m201.1 65.8c-8.5 0-15.4-6.9-15.4-15.4s6.9-15.4 15.4-15.4 15.4 6.9 15.4 15.4-6.9 15.4-15.4 15.4zm0-20.8c-3 0-5.4 2.4-5.4 5.4s2.4 5.4 5.4 5.4 5.4-2.4 5.4-5.4-2.4-5.4-5.4-5.4z"/><g><path d="m300 55.4h-62.6c-2.8 0-5-2.2-5-5s2.2-5 5-5h62.6c2.8 0 5 2.2 5 5s-2.3 5-5 5z"/></g><g><path d="m342.6 55.4h-17.3c-2.8 0-5-2.2-5-5s2.2-5 5-5h17.3c2.8 0 5 2.2 5 5s-2.2 5-5 5z"/></g><g><path d="m334 64.1c-2.8 0-5-2.2-5-5v-17.3c0-2.8 2.2-5 5-5s5 2.2 5 5v17.3c0 2.7-2.3 5-5 5z"/></g><g><path d="m368.7 145.3h-166.1c-2.8 0-5-2.2-5-5s2.2-5 5-5h166.2c2.8 0 5 2.2 5 5s-2.3 5-5.1 5zm-252.5 0h-35c-2.8 0-5-2.2-5-5s2.2-5 5-5h35c2.8 0 5 2.2 5 5s-2.2 5-5 5z"/></g><g><path d="m159.4 188.5c-26.6 0-48.2-21.6-48.2-48.2s21.6-48.2 48.2-48.2 48.2 21.6 48.2 48.2-21.6 48.2-48.2 48.2zm0-86.3c-21 0-38.2 17.1-38.2 38.2s17.1 38.2 38.2 38.2 38.2-17.1 38.2-38.2-17.2-38.2-38.2-38.2z"/></g><g><path d="m130.3 177.2c-.8 0-1.6-.2-2.3-.6-2.5-1.3-3.4-4.3-2.1-6.7 6.4-12.3 18.9-20.1 32.8-20.3h1.3c13.9.2 26.5 8 32.9 20.3 1.3 2.4.3 5.5-2.1 6.7-2.4 1.3-5.5.3-6.7-2.1-4.7-9-14-14.7-24.2-14.9-.1 0-.3 0-.4 0h-.2c-.1 0-.2 0-.3 0-10.2.2-19.5 5.9-24.1 14.9-1 1.7-2.8 2.7-4.6 2.7z"/></g><g><path d="m159.4 159.6c-12.3 0-22.2-10-22.2-22.2s10-22.2 22.2-22.2 22.2 10 22.2 22.2-10 22.2-22.2 22.2zm0-34.5c-6.7 0-12.2 5.5-12.2 12.2s5.5 12.2 12.2 12.2 12.2-5.5 12.2-12.2-5.5-12.2-12.2-12.2z"/></g><g><g><path d="m327.1 274.4h-88.2c-11.9 0-21.6-9.7-21.6-21.6v-28.2c0-11.9 9.7-21.6 21.6-21.6h88.2c11.9 0 21.6 9.7 21.6 21.6v28.2c0 11.9-9.7 21.6-21.6 21.6zm-88.2-61.3c-6.4 0-11.6 5.2-11.6 11.6v28.2c0 6.4 5.2 11.6 11.6 11.6h88.2c6.4 0 11.6-5.2 11.6-11.6v-28.2c0-6.4-5.2-11.6-11.6-11.6z"/></g><g><path d="m331.4 181.5h-96.8c-2.8 0-5-2.2-5-5s2.2-5 5-5h96.8c2.8 0 5 2.2 5 5s-2.2 5-5 5z"/></g><g><g><g><path d="m193 243.7h-86.7c-2.8 0-5-2.2-5-5s2.2-5 5-5h86.7c2.8 0 5 2.2 5 5s-2.2 5-5 5z"/></g><g><path d="m193 216.7h-86.7c-2.8 0-5-2.2-5-5s2.2-5 5-5h86.7c2.8 0 5 2.2 5 5s-2.2 5-5 5z"/></g></g><g><path d="m193 270.7h-86.7c-2.8 0-5-2.2-5-5s2.2-5 5-5h86.7c2.8 0 5 2.2 5 5s-2.2 5-5 5z"/></g></g></g></g></svg>