<svg clip-rule="evenodd" fill-rule="evenodd" height="173.397mm" image-rendering="optimizeQuality" shape-rendering="geometricPrecision" text-rendering="geometricPrecision" viewBox="0 0 173.397 173.397" width="173.397mm" xmlns="http://www.w3.org/2000/svg"><g id="Layer_x0020_1"><g id="_207698992"><path id="_207700984" d="m135.315 133.72h-120.248c-3.267 0-5.927-2.6599-5.927-5.9266l.0001-85.3336c0-3.2666 2.6599-5.9265 5.9266-5.9265h21.5479c.9346 0 1.6931.7585 1.6931 1.6934.0003.9347-.7585 1.6933-1.6933 1.6933l-21.5474-.0002c-1.4005 0-2.5403 1.1396-2.5403 2.5402l.0003 85.3331c0 1.4006 1.1392 2.5403 2.5397 2.5403l120.248-.0003c.935 0 1.6933.7588 1.6933 1.6936.0002.9345-.7585 1.6933-1.6933 1.6933zm23.0152 0h-8.1665c-.9351 0-1.6937-.7584-1.6937-1.6933.0002-.9352.7584-1.6933 1.6933-1.6933l8.1669-.0003c1.4005 0 2.5399-1.1392 2.5399-2.5397l.0001-85.3336c0-1.4005-1.1396-2.5398-2.5401-2.5398l-21.5475-.0002c-.935 0-1.6935-.7583-1.6935-1.6931.0001-.935.7585-1.6934 1.6934-1.6934h21.5477c3.2667 0 5.9266 2.66 5.9266 5.9267l.0003 85.3331c0 3.2667-2.6602 5.9269-5.9269 5.9269z"/><path id="_207700792" d="m128.249 121.486h-101.794c-2.8012 0-5.0802-2.2788-5.0802-5.0799l.0002-62.5583c0-2.8012 2.2787-5.0797 5.0798-5.0797l10.1602-.0003c.9346 0 1.6931.7587 1.6931 1.6936.0003.9345-.7585 1.6933-1.6933 1.6933h-10.1598c-.9351 0-1.6936.762-1.6936 1.6933l.0001 62.558c0 .9314.7584 1.6934 1.6933 1.6934h101.794c.9382 0 1.6931.7585 1.6931 1.6934 0 .9348-.7549 1.6933-1.6931 1.6932zm18.6936 0h-3.8417c-.9347 0-1.6935-.7583-1.6935-1.6932s.7585-1.6934 1.6933-1.6934h3.8419c.9351 0 1.6932-.7619 1.6932-1.6933l.0003-62.5583c0-.4481-.1767-.8746-.4977-1.1957-.321-.3212-.7444-.4974-1.1959-.4974h-10.1599c-.935 0-1.6935-.7585-1.6935-1.6933.0001-.9352.7585-1.6933 1.6934-1.6933l10.1601-.0003c1.3546 0 2.6316.5294 3.5912 1.4925.9598.9594 1.4887 2.2331 1.4887 3.5877l.0001 62.558c0 2.8011-2.2791 5.0801-5.08 5.08z"/><path id="_207700360" d="m93.7085 155.042h-14.0196c-2.8011 0-5.0801-2.2788-5.0801-5.0798l.0001-17.9354c0-.9351.7584-1.6932 1.6933-1.6932.9348-.0003 1.6933.7585 1.6933 1.6933l.0003 17.9351c0 .935.7582 1.6935 1.693 1.6935l14.0197-.0001c.4481 0 .8746-.1763 1.1956-.4973.3213-.3214.4974-.7479.4974-1.1959l.0001-17.9354c0-.9351.7584-1.6932 1.6933-1.6932.9352-.0003 1.6933.7585 1.6933 1.6933l.0003 17.9351c0 1.3545-.5295 2.6283-1.4925 3.5914-.9594.9595-2.2331 1.4888-3.5875 1.4886z"/><path id="_207700072" d="m105.731 108.955h-64.8827c-3.267 0-5.927-2.6599-5.927-5.9266l.0001-87.9581c0-3.2703 2.6599-5.9267 5.9266-5.9267l91.7011-.0002c3.267 0 5.9266 2.6566 5.9266 5.9269l.0003 57.2734c0 .9347-.7587 1.6934-1.6936 1.6934-.9349-.0003-1.6934-.7584-1.6934-1.6933l.0001-57.2735c0-1.4006-1.1395-2.54-2.54-2.54h-91.7008c-1.4005 0-2.5403 1.1395-2.5403 2.54l.0003 87.9578c0 1.4006 1.1392 2.5403 2.5397 2.5403l64.883-.0003c.9351 0 1.6932.7587 1.6932 1.6936.0003.9345-.7585 1.6934-1.6932 1.6933z"/><path id="_207699712" d="m136.783 30.8187h-100.168c-.9351 0-1.6936-.7585-1.6936-1.6933.0001-.9352.7585-1.6934 1.6934-1.6934l100.168-.0002c.9351 0 1.6932.7587 1.6932 1.6936.0003.9345-.7584 1.6933-1.6932 1.6933z"/><path id="_207700240" d="m51.4528 21.4663h-6.7734c-.9351 0-1.6936-.7582-1.6936-1.6931.0001-.935.7585-1.6933 1.6934-1.6933l6.7736-.0001c.9382 0 1.693.7586 1.693 1.6934.0001.9347-.755 1.6934-1.693 1.6931z"/><path id="_207699592" d="m65.0029 21.4663h-6.777c-.9346 0-1.6934-.7582-1.6934-1.6931.0003-.935.7585-1.6933 1.6933-1.6933l6.7771-.0001c.9347 0 1.6931.7586 1.6931 1.6934 0 .9347-.7585 1.6934-1.6931 1.6931z"/><path id="_207699832" d="m78.5495 21.4663h-6.7735c-.9346 0-1.6933-.7582-1.6933-1.6931.0002-.935.7585-1.6933 1.6933-1.6933l6.7735-.0001c.935 0 1.6932.7586 1.6932 1.6934.0002.9347-.7585 1.6934-1.6932 1.6931z"/><path id="_207699904" d="m128.718 21.4663h-30.0601c-.935 0-1.6935-.7582-1.6935-1.6931.0001-.935.7584-1.6933 1.6933-1.6933l30.0603-.0001c.9351 0 1.6932.7586 1.6932 1.6934.0003.9347-.7585 1.6934-1.6932 1.6931z"/><path id="_207700288" d="m62.0288 164.253c-1.351 0-2.6282-.529-3.5878-1.4885-.9592-.9598-1.4887-2.2367-1.4887-3.5913v-9.1652c0-2.8011 2.2789-5.08 5.08-5.08h14.2701c.9346 0 1.6931.7585 1.6931 1.6934.0003.9347-.7585 1.6933-1.6933 1.6933l-14.2699-.0002c-.9346 0-1.6933.7587-1.6933 1.6935l.0003 9.165c0 .4517.176.875.4971 1.1961.3212.3208.7443.4974 1.1959.4974h49.3328c.9346 0 1.693-.7584 1.693-1.6933v-9.1652c0-.935-.7585-1.6933-1.6934-1.6933l-14.2697-.0002c-.935 0-1.6935-.7583-1.6935-1.6931.0001-.935.7585-1.6934 1.6934-1.6934h14.2702c2.8007 0 5.0796 2.279 5.0796 5.08l.0004 9.165c0 2.8012-2.2793 5.0802-5.0804 5.0802l-49.3324-.0002s-.0035.0002-.0035 0z"/><path id="_207699640" d="m103.809 64.5971c-10.9788 6.3393-14.7536 20.4259-8.4141 31.4044 3.0694 5.3197 8.0257 9.1228 13.9594 10.7138 5.9303 1.5873 12.125.7726 17.4449-2.2965 10.9787-6.3397 14.7531-20.4294 8.4137-31.4079-6.3393-10.9784-20.4258-14.7532-31.4043-8.4137zm11.5391 46.2987c-2.2931 0-4.6003-.3034-6.8722-.9103-6.8049-1.8238-12.4919-6.1876-16.0161-12.2907-7.2706-12.5943-2.9387-28.7584 9.6555-36.0292l.0002-.0002c6.1032-3.5242 13.2078-4.4589 20.0164-2.635 6.8052 1.8238 12.4919 6.1877 16.0161 12.2872 7.2709 12.5974 2.9387 28.762-9.6555 36.0327-4.0639 2.3457-8.5761 3.5455-13.1444 3.5455z"/><path id="_207700168" d="m129.484 116.533c-.4727.2714-.6387.8997-.3671 1.3724l15.1416 26.2255c.1302.2294.3489.3952.6099.4622.2612.0704.5292.0388.7585-.0953l6.4667-3.7324c.2294-.1342.3949-.3492.4654-.6103.0708-.2613.0353-.5327-.0988-.762l-15.1411-26.2256c-.1306-.2294-.3494-.395-.6104-.4656-.2607-.0706-.5292-.0352-.7585.0989zm15.6563 31.4853c-.3845 0-.7693-.0491-1.1503-.1514-1.1321-.307-2.0814-1.0301-2.667-2.0426l-15.141-26.2259c-1.2101-2.099-.4871-4.7868 1.6085-5.9969v-.0002l6.4667-3.7358c1.0125-.5822 2.194-.7372 3.3299-.4338 1.1326.3032 2.0814 1.0301 2.667 2.0426l15.1415 26.2252c1.2101 2.0955.4901 4.7875-1.6089 5.9975l-6.4663 3.7323c-.6739.3913-1.4218.5893-2.1801.589z"/><path id="_207699760" d="m135.756 112.758c-.5854 0-1.1571-.3033-1.4676-.8465l-4.4696-7.7403c-.4691-.8112-.1906-1.8448.6173-2.3139.8114-.4694 1.8486-.1905 2.3142.6209l4.4698 7.7398c.4659.8076.1904 1.8451-.621 2.3143-.2644.1515-.5573.2259-.8431.2257zm-7.6763 4.4307c-.5854 0-1.1537-.3031-1.4677-.8464l-4.4696-7.74c-.4691-.8116-.1906-1.8449.6208-2.3142.808-.4659 1.845-.1904 2.3107.621l4.4698 7.7396c.4691.8081.1904 1.8453-.6175 2.3145-.2679.1517-.5609.2258-.8465.2255z"/><path id="_207700096" d="m121.649 72.2842c-1.3335 0-2.5897.5221-3.5351 1.4675-1.9509 1.9472-1.9509 5.1224 0 7.0733 1.9512 1.9506 5.1223 1.9508 7.0732 0 1.9511-1.9511 1.9508-5.1259 0-7.0733-.9453-.9456-2.2013-1.4675-3.5381-1.4675zm0 13.3878c-2.1487 0-4.2936-.8183-5.9305-2.4517-3.2699-3.274-3.2702-8.5936 0-11.8639 1.5843-1.584 3.6901-2.4589 5.9302-2.4589 2.2438-.0002 4.3498.8749 5.9337 2.4589 3.2705 3.2702 3.2703 8.5902 0 11.8639-1.6368 1.6333-3.7853 2.4518-5.9334 2.4517z"/><path id="_207699424" d="m102.26 98.3684c-.4302 0-.8644-.1656-1.196-.4937-.6594-.6636-.6597-1.7357 0-2.3953l14.6544-14.6545c.66-.6631 1.7322-.6631 2.3954.0001.6597.6596.6596 1.7321 0 2.3953l-14.6541 14.6544c-.3318.3278-.7658.4939-1.1997.4937z"/><path id="_207699400" d="m114.042 95.4934c-.4338 0-.8679-.1657-1.1995-.4938l-4.452-4.4524c-.6596-.6632-.6598-1.7353-.0001-2.395.6601-.6633 1.7322-.6632 2.3954 0l4.4524 4.452c.6596.6596.6593 1.7322-.0004 2.3954-.3314.328-.7655.4938-1.1958.4938z"/><path id="_207699304" d="m109.418 100.115c-.4306 0-.8645-.1656-1.1961-.4938l-4.4518-4.4521c-.6596-.6632-.66-1.7355-.0003-2.3952.6599-.6599 1.7321-.6597 2.3954 0l4.4522 4.4518c.6596.6596.6595 1.7323-.0001 2.3955-.3313.3279-.7656.494-1.1993.4938z"/><path id="_207699448" d="m49.2621 42.0157c-.9351 0-1.6937.7587-1.6937 1.6935l.0002 15.5257c0 .9311.7583 1.6934 1.6931 1.6934l26.2116-.0003c.9315 0 1.6932-.7617 1.6932-1.6931l.0003-15.5257c0-.935-.7623-1.6933-1.6937-1.6933zm26.2112 22.2992h-26.2112c-2.8012 0-5.0804-2.2789-5.0804-5.08l.0004-15.5257c0-2.8011 2.2786-5.08 5.0796-5.08h26.2116c2.8011 0 5.0798 2.279 5.0798 5.08l.0002 15.5257c0 2.8008-2.2791 5.08-5.08 5.08z"/><path id="_207698824" d="m127.522 53.1636h-40.2344c-.9351 0-1.6936-.7584-1.6936-1.6933.0001-.9349.7585-1.6933 1.6934-1.6933h40.2346c.9346 0 1.693.7585 1.693 1.6933s-.7585 1.6934-1.693 1.6933z"/><path id="_207698944" d="m80.4723 75.4624h-34.5972c-.9346 0-1.6934-.7582-1.6934-1.693.0004-.9351.7585-1.6933 1.6933-1.6933l34.5973-.0003c.9347 0 1.693.7588 1.693 1.6936.0001.9345-.7585 1.6933-1.693 1.693z"/><path id="_207699112" d="m80.4723 86.6138h-34.5972c-.9346 0-1.6934-.7582-1.6934-1.6931.0004-.935.7585-1.6933 1.6933-1.6933l34.5973-.0002c.9347 0 1.693.7587 1.693 1.6935.0001.9346-.7585 1.6933-1.693 1.6931z"/><path id="_207699184" d="m80.4723 97.7616h-34.5972c-.9346 0-1.6934-.7582-1.6934-1.6931.0004-.935.7585-1.6933 1.6933-1.6933l34.5973-.0001c.9347 0 1.693.7585 1.693 1.6934.0001.9347-.7585 1.6933-1.693 1.6931z"/><path id="_207698872" d="m127.522 43.3703h-40.2344c-.9351 0-1.6936-.7582-1.6936-1.6931.0001-.935.7585-1.6933 1.6934-1.6933l40.2346-.0002c.9346 0 1.693.7587 1.693 1.6935 0 .9346-.7585 1.6934-1.693 1.6931z"/></g></g></svg>