<svg id="_x31_px" enable-background="new 0 0 24 24" height="512" viewBox="0 0 24 24" width="512" xmlns="http://www.w3.org/2000/svg"><g><path d="m17.192 20.229c-.773 0-1.535-.3-2.117-.882l-3.267-3.267c-.569-.569-.881-1.325-.877-2.129.003-.799.318-1.548.887-2.109.543-.559 1.286-.874 2.085-.88.805.019 1.586.313 2.148.875l.318.318c.195.195.209.526.014.722-.195.194-.498.208-.693.014l-.347-.347c-.371-.37-.887-.582-1.419-.582-.005 0-.01 0-.015 0-.529.004-1.02.212-1.382.585-.386.38-.595.877-.597 1.408-.002.535.206 1.039.584 1.418l3.267 3.267c.678.679 1.724.779 2.542.246.232-.151.542-.085.692.146.151.231.085.541-.146.691-.519.339-1.101.506-1.677.506z"/></g><g><path d="m20.997 24c-.8 0-1.551-.312-2.117-.878l-.318-.317c-.195-.194-.195-.512 0-.707s.512-.195.708 0l.318.317c.376.378.877.585 1.409.585h.008c.531-.002 1.028-.211 1.4-.589.383-.378.593-.876.595-1.407.002-.535-.206-1.038-.584-1.417l-3.267-3.267c-.756-.756-1.889-.721-2.507-.258-.22.168-.534.121-.7-.1s-.121-.534.1-.699c.973-.731 2.667-.8 3.814.35l3.267 3.267c.569.568.88 1.324.877 2.128-.003.8-.318 1.549-.887 2.11-.555.563-1.305.879-2.104.882-.005 0-.009 0-.012 0z"/></g><g><path d="m11.5 20h-6.5c-1.103 0-2-.897-2-2v-7h-2c-.561 0-1-.439-1-1 0-.281.122-.559.326-.742l9.834-9.124c.191-.178.488-.178.68 0l3.16 2.93v-1.564c0-.276.224-.5.5-.5h3c.276 0 .5.224.5.5v5.272l2.68 2.491c.198.178.32.456.32.737 0 .561-.439 1-1 1h-1.5c-.276 0-.5-.224-.5-.5s.224-.5.5-.5h1.5l-2.84-2.644c-.102-.094-.16-.227-.16-.366v-4.99h-2v2.21c0 .199-.118.379-.3.458-.184.08-.395.044-.54-.092l-3.66-3.394-9.5 8.814 2.5.004c.276 0 .5.224.5.5v7.5c0 .552.449 1 1 1h6.5c.276 0 .5.224.5.5s-.224.5-.5.5z"/></g></svg>