<svg id="Layer_1" width="70" height="70" enable-background="new 0 0 512 512" viewBox="0 0 512 512" xmlns="http://www.w3.org/2000/svg"><g><g><path d="m443.3 447h-374.6c-15.3-.1-27.6-12.5-27.6-27.6v-326.9c0-15.2 12.4-27.5 27.6-27.5h374.7c15.3 0 27.6 12.3 27.6 27.5v326.9c-.1 15.2-12.4 27.6-27.7 27.6zm-374.6-372.2c-9.9 0-17.9 8-17.9 17.8v326.9c0 9.8 8 17.8 17.9 17.9h374.6c9.9 0 17.9-8 17.9-17.9l.2-326.9c0-9.8-8-17.8-17.9-17.8z"/></g><g><path d="m466 151.9h-420c-2.7 0-4.9-2.2-4.9-4.9s2.2-4.9 4.9-4.9h420.1c2.7 0 4.9 2.2 4.9 4.9s-2.2 4.9-5 4.9z"/></g><g><g><path d="m102.5 113.3h-15.1c-2.7 0-4.9-2.2-4.9-4.9s2.2-4.9 4.9-4.9h15.1c2.7 0 4.9 2.2 4.9 4.9 0 2.8-2.2 4.9-4.9 4.9z"/></g><g><path d="m153.8 113.3h-15.4c-2.7 0-4.9-2.2-4.9-4.9s2.2-4.9 4.9-4.9h15.4c2.7 0 4.9 2.2 4.9 4.9-.1 2.8-2.3 4.9-4.9 4.9z"/></g><g><path d="m204.7 113.3h-15.1c-2.7 0-4.9-2.2-4.9-4.9s2.2-4.9 4.9-4.9h15.1c2.7 0 4.9 2.2 4.9 4.9 0 2.8-2.2 4.9-4.9 4.9z"/></g><g><path d="m424.7 113.3h-178c-2.7 0-4.9-2.2-4.9-4.9s2.2-4.9 4.9-4.9h178c2.7 0 4.9 2.2 4.9 4.9 0 2.8-2.1 4.9-4.9 4.9z"/></g></g><g><g><g><g><path d="m88.2 344.4c-1.2 0-2.6-.4-3.7-1-2.4-1.3-3.8-3.8-3.8-6.6v-29.7c0-3.5 2-6.7 5.1-8.4l17.9-9.9c2.4-1.3 5.3-.4 6.7 2 1.3 2.4.4 5.3-2 6.7l-17.8 9.9v25.7l17.6-9.7c2.4-1.3 5.3-.4 6.7 2 1.3 2.4.4 5.3-2 6.7l-20.9 11.5c-1.3.4-2.6.8-3.8.8z"/></g><g><path d="m208.6 344.3c-1.2 0-2.3-.3-3.5-.8-.1 0-.1-.1-.2-.1l-21.1-11.6c-2.4-1.3-3.2-4.3-2-6.7 1.3-2.4 4.3-3.2 6.7-2l17.8 9.8v-25.7l-18-10c-2.4-1.3-3.2-4.3-2-6.7 1.3-2.4 4.3-3.2 6.7-2l18 10c3 1.6 5 4.9 5 8.3v29.7c0 2.7-1.3 5-3.6 6.4-1.1 1.1-2.4 1.4-3.8 1.4z"/></g></g><g><path d="m178.5 353.7h-60.5c-3.3 0-6.2-2.1-7.3-5.3v-.1c-28.7-93.1 11.9-140.4 33.8-165.9.9-1.1 2.3-1.7 3.7-1.7s2.8.6 3.7 1.7c21.9 25.4 62.5 72.8 33.8 165.9v.1c-1 3.2-4 5.3-7.2 5.3zm-58.9-9.7h57.2c24.9-82.2-6.6-124.8-28.6-150.8-22 25.9-53.4 68.6-28.6 150.8z"/></g><g><g><path d="m148.4 294.6c-11.4 0-20.6-9.2-20.6-20.6s9.2-20.6 20.6-20.6 20.6 9.3 20.6 20.6c0 11.4-9.2 20.6-20.6 20.6zm0-31.4c-6 0-10.8 4.9-10.8 10.8 0 6 4.9 10.8 10.8 10.8 6 0 10.8-4.9 10.8-10.8.1-5.9-4.8-10.8-10.8-10.8z"/></g></g><g><path d="m168.5 373.6h-40.1c-4.3 0-7.7-3.5-7.7-7.7v-17.1c0-2.7 2.2-4.9 4.9-4.9s4.9 2.2 4.9 4.9v15h36v-15c0-2.7 2.2-4.9 4.9-4.9s4.9 2.2 4.9 4.9v17.1c-.2 4.3-3.6 7.7-7.8 7.7z"/></g><g><path d="m148.4 240.6c-11.9 0-23.1-2.1-32.3-6.1-2.5-1.1-3.6-4-2.5-6.4 1.1-2.5 4-3.6 6.4-2.5 7.9 3.5 18 5.3 28.4 5.3 10.3 0 20.3-1.9 28.3-5.3 2.5-1.1 5.3.1 6.4 2.5 1.1 2.5-.1 5.3-2.5 6.4-9.2 4-20.5 6.1-32.2 6.1z"/></g><g><path d="m148.4 408.4c-1.6 0-3-.7-3.9-2l-11.2-15.4c-.1-.2-.2-.3-.3-.4-3.2-5.6-3.2-12.2 0-17.8s9-8.9 15.5-8.9c6.4 0 12.2 3.3 15.4 8.9s3.3 12.2.1 17.8c-.1.2-.2.4-.3.4l-11.2 15.4c-1.1 1.2-2.5 2-4.1 2zm-7.1-23 7.1 9.7 7.1-9.7c1.3-2.5 1.2-5.4-.2-7.8-1.5-2.6-4-4-6.9-4s-5.6 1.5-7 4-1.4 5.4-.1 7.8z"/></g></g><g><g><path d="m422.6 253h-175c-4.9 0-8.7-3.8-8.7-8.7v-22.8c0-4.9 3.8-8.7 8.7-8.7h175c4.9 0 8.7 3.8 8.7 8.7v22.7c.1 2.2-.8 4.4-2.3 6-1.7 1.8-4 2.8-6.4 2.8zm-174-9.8h172.8v-20.7h-172.8z"/></g><g><path d="m426.5 294.1h-182.7c-2.7 0-4.9-2.2-4.9-4.9s2.2-4.9 4.9-4.9h182.8c2.7 0 4.9 2.2 4.9 4.9s-2.3 4.9-5 4.9z"/></g><g><path d="m426.5 335.3h-182.7c-2.7 0-4.9-2.2-4.9-4.9s2.2-4.9 4.9-4.9h182.8c2.7 0 4.9 2.2 4.9 4.9s-2.3 4.9-5 4.9z"/></g><g><path d="m426.5 376.5h-182.7c-2.7 0-4.9-2.2-4.9-4.9s2.2-4.9 4.9-4.9h182.8c2.7 0 4.9 2.2 4.9 4.9s-2.3 4.9-5 4.9z"/></g></g></g></g></svg>