<svg id="Layer_1" enable-background="new 0 0 66 66" height="512" viewBox="0 0 66 66" width="512" xmlns="http://www.w3.org/2000/svg"><g><g><path d="m44.1 17.7-4-2.2c-.5-.3-1.1-.1-1.3.4l-2.2 3.8c-.3.5-.1 1.1.4 1.4s1.1.1 1.4-.4l1.1-2c.4 2.3-.6 4.4-1.9 5.7-1.6 1.6-4.4 2.8-7.5 1.3-.5-.2-1.1 0-1.3.5s0 1.1.5 1.3c1.2.6 2.5.9 3.8.9 2.2 0 4.3-.9 6-2.5 2-2 2.9-4.7 2.4-7.4l1.7.9c.5.3 1.1.1 1.4-.4.2-.4 0-1-.5-1.3z"/></g><g><path d="m29 18.5c-.5-.3-1.1-.1-1.4.4l-1 1.8c0-.3-.1-.6-.1-.9 0-2.3 1.2-4.3 3.1-5.5s4.3-1.3 6.3-.3c.5.3 1.1 0 1.3-.4.2-.5 0-1.1-.4-1.3-2.6-1.3-5.7-1.2-8.3.4-2.5 1.6-4 4.3-4 7.2 0 .4 0 .9.1 1.3l-1.8-1c-.5-.3-1.1-.1-1.4.4s-.1 1.1.4 1.4l3.8 2c.2.1.4.2.6.2.3 0 .7-.2.9-.5l2.2-3.8c.3-.5.1-1.1-.3-1.4z"/></g><g><path d="m61.9 19.9c-2.1-2.3-5.1-3.6-8.3-3.6-1.6 0-3.1.3-4.6 1 0-4-2.1-7.6-5.5-9.7-3.1-1.8-6.8-2.1-10-.8-2-3.6-5.7-5.8-9.9-5.8-4.1 0-7.8 2.2-9.8 5.8-1.7 3-1.9 6.4-.7 9.5-2.6-.2-5.3.7-7.5 2.4-2.8 2.1-4.4 5.4-4.4 8.9 0 3.8 1.8 7.2 4.9 9.3v25.7c0 1.1.6 2 1.6 2.3.3.1.6.2 1 .2h17.7c.4 0 .7-.1 1-.2.9-.4 1.6-1.3 1.6-2.3v-23.9h24.1c6.1 0 11-4.8 11.5-11.4.2-2.6-.8-5.3-2.7-7.4zm-53.1 10.3h17.7c.2 0 .3.1.4.2s.2.2.2.4v4.4h-18.8v-4.4c0-.2.1-.3.2-.4 0-.1.2-.2.3-.2zm-.5 7h18.8v.5 18.3h-18.8zm18.8 25.3c0 .2-.1.4-.3.5-.1 0-.1 0-.2 0h-17.8c-.1 0-.1 0-.2 0-.2-.1-.3-.3-.3-.5v-4.5h18.8zm35.5-35.4c-.4 5.5-4.4 9.6-9.5 9.6h-24v-6c0-.6-.2-1.1-.5-1.5-.5-.6-1.2-1.1-2-1.1h-17.8c-.7 0-1.3.3-1.8.7-.5.5-.7 1.1-.7 1.8v3.5c-1.9-1.7-2.9-4.2-2.9-6.8 0-2.9 1.3-5.5 3.6-7.3s5.1-2.4 7.8-1.7c.4.1.8 0 1.1-.4.2-.3.3-.8 0-1.1-1.8-2.8-1.8-6.3-.2-9.2 1.7-3 4.7-4.8 8.1-4.8 3.7 0 7 2.2 8.5 5.5.1.3.3.5.6.5.1.4.4.4.6.2 2.7-1.5 6.1-1.4 8.9.3 2.9 1.7 4.5 4.6 4.5 7.9 0 .6 0 1.1-.1 1.6-.1.4.1.8.4 1s.8.2 1.1 0c1.6-1.1 3.4-1.6 5.2-1.6 2.6 0 5 1.1 6.8 3 1.7 1.7 2.5 3.9 2.3 5.9z"/></g><g><path d="m53.6 21.6c-1.2 0-2.3.3-3.3 1-.5.3-.6.9-.3 1.4s.9.6 1.4.3c.7-.5 1.4-.7 2.2-.7 1.7 0 3.2 1.1 3.7 2.6.2.8-.1 2.4-1.1 3.6-.6.7-1.6 1.6-3.1 1.6-.6 0-1 .4-1 1s.4 1 1 1c1.8 0 3.5-.8 4.7-2.4s1.8-3.8 1.4-5.4c-.8-2.4-3.1-4-5.6-4z"/></g><g><path d="m58.5 49-1.6-.3c-.2-.6-.4-1.2-.7-1.7l1-1.4c.3-.4.2-.9-.1-1.3l-2.5-2.5c-.3-.3-.9-.4-1.3-.1l-1.4.9c-.5-.3-1.1-.5-1.7-.7l-.3-1.6c-.1-.5-.5-.8-1-.8h-3.5c-.5 0-.9.3-1 .8l-.3 1.7c-.6.2-1.2.4-1.7.7l-1.4-1c-.4-.3-.9-.2-1.3.1l-2.5 2.5c-.3.3-.4.9-.1 1.3l1 1.4c-.3.6-.5 1.1-.7 1.7l-1.7.3c-.5.1-.8.5-.8 1v3.5c0 .5.3.9.8 1l1.6.3c.2.6.4 1.2.7 1.7l-1 1.4c-.3.4-.2.9.1 1.3l2.5 2.5c.4.3 1 .3 1.4 0l1.4-1c.6.3 1.1.5 1.7.7l.3 1.6c.1.5.5.8 1 .8h3.5c.5 0 .9-.3 1-.8l.3-1.6c.6-.2 1.2-.4 1.7-.7l1.4 1c.4.3.9.2 1.3-.1l2.5-2.5c.3-.3.4-.9.1-1.3l-1-1.4c.3-.6.5-1.1.7-1.7l1.6-.3c.5-.1.8-.5.8-1v-3.4c0-.5-.4-.9-.8-1zm-1.2 3.6-1.4.3c-.4.1-.7.4-.8.8-.2.8-.5 1.6-1 2.4-.2.3-.2.8 0 1.1l.8 1.2-1.3 1.3-1.2-.8c-.3-.2-.8-.2-1.1 0-.7.4-1.5.8-2.4 1-.4.1-.7.4-.8.8l-.1 1.2h-1.8l-.3-1.4c-.1-.4-.4-.7-.8-.8-.9-.2-1.6-.5-2.4-1-.3-.2-.8-.2-1.1 0l-1.2.8-1.3-1.3.8-1.2c.2-.3.2-.8 0-1.1-.5-.7-.8-1.5-1-2.4-.1-.4-.4-.7-.8-.8l-1.4-.3v-1.8l1.4-.3c.4-.1.7-.4.8-.8.2-.8.5-1.6 1-2.4.2-.3.2-.8 0-1.1l-.8-1.2 1.3-1.3 1.2.8c.3.2.8.2 1.1 0 .8-.5 1.5-.8 2.4-1 .4-.1.7-.4.8-.8l.3-1.4h1.8l.3 1.4c.1.4.4.7.8.8.9.2 1.7.5 2.4 1 .3.2.8.2 1.1 0l1.2-.8 1.3 1.3-.8 1.2c-.2.3-.2.8 0 1.1.5.7.8 1.5 1 2.4.1.4.4.7.8.8l1.4.3v2z"/></g><g><path d="m47.1 45.6c-3.4 0-6.1 2.7-6.1 6.1 0 3.3 2.7 6.1 6.1 6.1 3.3 0 6.1-2.7 6.1-6.1 0-3.3-2.8-6.1-6.1-6.1zm0 10.2c-2.2 0-4.1-1.8-4.1-4.1 0-2.2 1.8-4.1 4.1-4.1 2.2 0 4.1 1.8 4.1 4.1s-1.9 4.1-4.1 4.1z"/></g><g><path d="m17.2 33.7h6.9c.6 0 1-.4 1-1s-.4-1-1-1h-6.9c-.6 0-1 .4-1 1s.5 1 1 1z"/></g><g><path d="m11.3 33.7h2c.6 0 1-.4 1-1s-.4-1-1-1h-2c-.6 0-1 .4-1 1s.4 1 1 1z"/></g><g><path d="m16.1 61.5h3.2c.6 0 1-.4 1-1s-.4-1-1-1h-3.2c-.6 0-1 .4-1 1s.4 1 1 1z"/></g></g></svg>