<svg id="Layer_2" enable-background="new 0 0 64 64" height="64" viewBox="0 0 64 64" width="64" xmlns="http://www.w3.org/2000/svg"><path d="m8 14.5h-2c-.276 0-.5-.224-.5-.5s.224-.5.5-.5h2c.276 0 .5.224.5.5s-.224.5-.5.5z"/><path d="m12 14.5h-1c-.276 0-.5-.224-.5-.5s.224-.5.5-.5h1c.276 0 .5.224.5.5s-.224.5-.5.5z"/><path d="m58 14.5h-43c-.276 0-.5-.224-.5-.5s.224-.5.5-.5h43c.276 0 .5.224.5.5s-.224.5-.5.5z"/><path d="m58 41.5c-.276 0-.5-.224-.5-.5v-1c0-.276.224-.5.5-.5s.5.224.5.5v1c0 .276-.224.5-.5.5z"/><path d="m58 46.5c-.276 0-.5-.224-.5-.5v-2c0-.276.224-.5.5-.5s.5.224.5.5v2c0 .276-.224.5-.5.5z"/><path d="m58 37.5c-.276 0-.5-.224-.5-.5v-27c0-.276.224-.5.5-.5s.5.224.5.5v27c0 .276-.224.5-.5.5z"/><path d="m28.523 50.5h-18.523c-.276 0-.5-.224-.5-.5s.224-.5.5-.5h18.523c.276 0 .5.224.5.5s-.224.5-.5.5z"/><path d="m30.838 54.5c-.173 0-.34-.089-.433-.25l-7.06-12.199c-.139-.239-.057-.545.182-.683.239-.14.544-.057.683.182l7.06 12.199c.139.239.057.545-.182.683-.079.047-.165.068-.25.068z"/><path d="m30.25 44.091c-.276 0-.5-.224-.5-.5v-14.439c0-.276.224-.5.5-.5s.5.224.5.5v14.439c0 .277-.224.5-.5.5z"/><path d="m30.25 44.091c-.142 0-.283-.06-.382-.177l-1.842-2.178c-.178-.211-.152-.526.059-.705.21-.179.526-.152.705.059l1.842 2.178c.178.211.152.526-.059.705-.094.08-.209.118-.323.118z"/><path d="m28.409 41.913c-.142 0-.283-.06-.382-.177-.873-1.033-2.306-1.393-3.565-.901-.257.1-.547-.025-.648-.283s.026-.547.283-.648c1.659-.65 3.545-.173 4.694 1.187.178.211.152.526-.059.705-.095.079-.21.117-.323.117z"/><path d="m23.883 42.449c-.142 0-.282-.06-.381-.176-.325-.382-.434-.904-.29-1.394.144-.489.515-.868.995-1.014.265-.081.543.069.624.333.08.264-.069.543-.333.624-.225.068-.303.259-.326.338-.023.08-.062.285.092.464.179.21.153.526-.057.705-.095.081-.21.12-.324.12z"/><path d="m54 50.5h-9.917c-.276 0-.5-.224-.5-.5s.224-.5.5-.5h9.917c.276 0 .5.224.5.5s-.224.5-.5.5z"/><path d="m42.837 54.5c-.073 0-.147-.016-.217-.05-.249-.12-.353-.419-.232-.668.891-1.843 1.362-3.899 1.362-5.947 0-.276.224-.5.5-.5s.5.224.5.5c0 2.197-.505 4.404-1.462 6.382-.086.179-.265.283-.451.283z"/><path d="m42.838 54.5h-12c-.276 0-.5-.224-.5-.5s.224-.5.5-.5h12c.276 0 .5.224.5.5s-.224.5-.5.5z"/><path d="m30.838 58.5c-.276 0-.5-.224-.5-.5v-4c0-.276.224-.5.5-.5s.5.224.5.5v4c0 .276-.224.5-.5.5z"/><path d="m42.838 58.5h-12c-.276 0-.5-.224-.5-.5s.224-.5.5-.5h12c.276 0 .5.224.5.5s-.224.5-.5.5z"/><path d="m42.838 58.5c-.276 0-.5-.224-.5-.5v-4c0-.276.224-.5.5-.5s.5.224.5.5v4c0 .276-.224.5-.5.5z"/><path d="m29.37 29.662c-.172 0-.34-.089-.433-.25-.139-.239-.057-.545.182-.683l.97-.562c.238-.139.544-.058.683.182.139.239.057.545-.182.683l-.97.562c-.078.047-.165.068-.25.068z"/><path d="m34.63 29.662c-.085 0-.171-.021-.25-.067l-.97-.562c-.239-.138-.321-.444-.182-.683.138-.24.444-.321.683-.182l.97.562c.239.138.321.444.182.683-.093.16-.261.249-.433.249z"/><path d="m33.75 42.925c-.276 0-.5-.224-.5-.5v-13.273c0-.276.224-.5.5-.5s.5.224.5.5v13.272c0 .277-.224.501-.5.501z"/><path d="m33.75 29.652c-.276 0-.5-.224-.5-.5 0-.941-.786-1.193-1.25-1.193s-1.25.251-1.25 1.193c0 .276-.224.5-.5.5s-.5-.224-.5-.5c0-2.879 4.5-2.879 4.5 0 0 .277-.224.5-.5.5z"/><path d="m44.25 48.335c-.276 0-.5-.224-.5-.5v-8.432c0-.276.224-.5.5-.5s.5.224.5.5v8.432c0 .277-.224.5-.5.5z"/><path d="m37.25 43.854c-.276 0-.5-.224-.5-.5v-6.736c0-.276.224-.5.5-.5s.5.224.5.5v6.736c0 .277-.224.5-.5.5z"/><path d="m40.75 44.784c-.276 0-.5-.224-.5-.5v-6.331c0-.276.224-.5.5-.5s.5.224.5.5v6.331c0 .277-.224.5-.5.5z"/><path d="m44.25 39.904c-.276 0-.5-.224-.5-.5 0-.941-.786-1.193-1.25-1.193s-1.25.251-1.25 1.193c0 .276-.224.5-.5.5s-.5-.224-.5-.5c0-2.879 4.5-2.879 4.5 0 0 .276-.224.5-.5.5z"/><path d="m40.75 38.453c-.276 0-.5-.224-.5-.5 0-.941-.786-1.193-1.25-1.193s-1.25.251-1.25 1.193c0 .276-.224.5-.5.5s-.5-.224-.5-.5c0-2.879 4.5-2.879 4.5 0 0 .276-.224.5-.5.5z"/><path d="m37.25 37.119c-.276 0-.5-.224-.5-.5 0-.941-.786-1.193-1.25-1.193s-1.25.251-1.25 1.193c0 .276-.224.5-.5.5s-.5-.224-.5-.5c0-2.879 4.5-2.879 4.5 0 0 .276-.224.5-.5.5z"/><path d="m22.126 29.692c-.137 0-.273-.056-.372-.166-.185-.206-.167-.521.038-.706.171-.154.122-.358.103-.417-.019-.06-.1-.255-.33-.279-.275-.029-.474-.275-.445-.549.029-.275.275-.479.549-.445.552.058 1.002.428 1.176.965.174.536.026 1.099-.386 1.469-.094.086-.213.128-.333.128z"/><path d="m21.619 28.127c-.017 0-.035-.001-.052-.002l-3.023-.314c-.274-.029-.474-.274-.446-.549.029-.274.268-.472.549-.446l3.023.314c.274.029.474.274.446.549-.027.257-.244.448-.497.448z"/><path d="m19.866 31.723c-.137 0-.273-.056-.372-.166-.185-.205-.167-.521.038-.706l2.261-2.031c.204-.184.521-.168.706.038.185.205.167.521-.038.706l-2.261 2.031c-.096.085-.215.128-.334.128z"/><path d="m19.609 35.782c-.237 0-.474-.062-.69-.187-.239-.138-.321-.444-.182-.683.138-.239.445-.321.683-.182.199.115.381.005.433-.032.063-.046.207-.178.159-.397-.058-.27.114-.536.384-.594.27-.06.536.114.594.384.117.542-.093 1.084-.548 1.416-.253.182-.543.275-.833.275z"/><path d="m19.169 35.662c-.085 0-.171-.021-.25-.067l-2.63-1.522c-.239-.138-.321-.444-.182-.683.138-.239.442-.322.683-.182l2.63 1.522c.239.138.321.444.182.683-.092.16-.26.249-.433.249z"/><path d="m20.5 34.695c-.231 0-.438-.161-.488-.396l-.635-2.973c-.058-.27.114-.536.384-.593.268-.063.536.114.593.384l.635 2.973c.058.27-.114.536-.384.593-.035.009-.07.012-.105.012z"/><path d="m13.468 35.783c-.288 0-.576-.092-.826-.273-.458-.333-.669-.876-.553-1.419.058-.27.32-.444.594-.384.27.058.442.324.384.594-.048.226.113.363.164.4.063.045.233.142.428.029.238-.139.545-.057.684.182s.057.545-.182.684c-.218.124-.455.187-.693.187z"/><path d="m13.91 35.662c-.173 0-.34-.089-.433-.25-.139-.239-.057-.545.182-.683l2.63-1.522c.239-.14.545-.057.683.182.139.239.057.545-.182.683l-2.63 1.522c-.079.047-.165.068-.25.068z"/><path d="m12.579 34.695c-.035 0-.07-.003-.105-.011-.27-.058-.442-.323-.384-.593l.635-2.973c.057-.27.323-.447.593-.384.27.058.442.323.384.593l-.635 2.973c-.05.235-.257.395-.488.395z"/><path d="m10.953 29.692c-.119 0-.239-.042-.334-.128-.412-.371-.56-.935-.385-1.472.174-.536.625-.905 1.176-.962.275-.032.521.17.549.445.029.274-.17.521-.445.549-.229.024-.309.218-.329.277-.019.059-.069.264.103.419.205.185.222.501.037.706-.099.11-.236.166-.372.166z"/><path d="m13.213 31.723c-.119 0-.239-.042-.334-.128l-2.261-2.031c-.206-.185-.223-.501-.038-.706.185-.207.501-.223.706-.038l2.261 2.031c.206.185.223.501.038.706-.098.11-.235.166-.372.166z"/><path d="m11.46 28.127c-.253 0-.47-.191-.497-.448-.028-.275.171-.521.446-.549l3.023-.314c.276-.026.521.171.549.446s-.171.521-.446.549l-3.023.314c-.017.001-.034.002-.052.002z"/><path d="m15.716 25.035c-.068 0-.137-.014-.203-.043-.252-.112-.366-.408-.253-.66.225-.506.716-.82 1.28-.82.563 0 1.053.314 1.278.82.112.252-.001.548-.254.66-.25.112-.547-.001-.66-.254-.093-.21-.303-.227-.365-.227-.063 0-.273.016-.367.227-.082.186-.264.297-.456.297z"/><path d="m14.483 27.813c-.067 0-.136-.014-.202-.043-.252-.112-.366-.407-.254-.66l1.233-2.778c.111-.252.405-.368.66-.254.252.112.366.407.254.66l-1.233 2.778c-.083.186-.266.297-.458.297z"/><path d="m18.596 27.813c-.192 0-.375-.111-.458-.297l-1.233-2.778c-.112-.252.002-.548.254-.66.252-.113.547.002.66.254l1.233 2.778c.112.252-.002.548-.254.66-.066.029-.135.043-.202.043z"/><path d="m41.874 29.692c-.119 0-.239-.042-.334-.128-.412-.371-.56-.935-.385-1.472.174-.536.625-.905 1.176-.962.275-.032.521.17.549.445.029.274-.17.521-.445.549-.229.024-.309.218-.329.277-.019.059-.069.264.103.419.205.185.222.501.037.706-.1.11-.236.166-.372.166z"/><path d="m42.381 28.127c-.253 0-.47-.191-.497-.448-.028-.275.171-.521.446-.549l3.023-.314c.277-.026.521.171.549.446s-.171.521-.446.549l-3.023.314c-.017.001-.035.002-.052.002z"/><path d="m44.134 31.723c-.119 0-.239-.042-.334-.128l-2.261-2.031c-.206-.185-.223-.501-.038-.706.184-.207.501-.223.706-.038l2.261 2.031c.206.185.223.501.038.706-.098.11-.235.166-.372.166z"/><path d="m44.39 35.782c-.289 0-.577-.092-.827-.274-.457-.332-.669-.875-.553-1.417.058-.271.323-.445.593-.384.27.058.442.323.384.593-.048.226.113.363.163.4.063.046.233.142.429.03.239-.14.545-.057.683.182.139.239.057.545-.182.683-.216.125-.454.187-.69.187z"/><path d="m44.831 35.662c-.173 0-.34-.089-.433-.25-.139-.239-.057-.545.182-.683l2.63-1.522c.24-.14.544-.057.683.182s.057.545-.182.683l-2.63 1.522c-.08.047-.165.068-.25.068z"/><path d="m43.5 34.695c-.035 0-.07-.003-.105-.011-.27-.058-.442-.323-.384-.593l.635-2.973c.057-.27.323-.447.593-.384.27.058.442.323.384.593l-.635 2.973c-.05.235-.258.395-.488.395z"/><path d="m50.53 35.782c-.237 0-.474-.062-.69-.188-.239-.138-.321-.444-.182-.683s.444-.321.683-.182c.2.114.38.004.431-.031.064-.046.208-.178.16-.399-.057-.27.115-.536.385-.593.268-.057.535.115.593.385.115.543-.096 1.085-.551 1.416-.251.183-.54.275-.829.275z"/><path d="m50.09 35.662c-.085 0-.171-.021-.25-.067l-2.63-1.522c-.239-.138-.321-.444-.182-.683.138-.239.442-.322.683-.182l2.63 1.522c.239.138.321.444.182.683-.092.16-.26.249-.433.249z"/><path d="m51.421 34.695c-.231 0-.438-.161-.488-.396l-.635-2.973c-.058-.27.114-.536.384-.593.268-.063.536.114.593.384l.635 2.973c.058.27-.114.536-.384.593-.035.009-.07.012-.105.012z"/><path d="m53.047 29.692c-.137 0-.273-.056-.372-.166-.185-.206-.167-.521.038-.706.171-.154.122-.358.103-.417-.019-.06-.1-.255-.33-.279-.275-.029-.474-.275-.445-.549.028-.275.274-.479.549-.445.552.058 1.002.428 1.176.965.174.536.026 1.099-.386 1.469-.094.086-.213.128-.333.128z"/><path d="m50.787 31.723c-.137 0-.273-.056-.372-.166-.185-.205-.167-.521.038-.706l2.261-2.031c.204-.184.521-.168.706.038.185.205.167.521-.038.706l-2.261 2.031c-.096.085-.215.128-.334.128z"/><path d="m52.54 28.127c-.017 0-.035-.001-.052-.002l-3.023-.314c-.274-.029-.474-.274-.446-.549.029-.274.268-.472.549-.446l3.023.314c.274.029.474.274.446.549-.027.257-.245.448-.497.448z"/><path d="m46.637 25.035c-.068 0-.137-.014-.203-.043-.252-.112-.366-.408-.253-.66.225-.506.716-.82 1.28-.82.563 0 1.053.314 1.278.82.112.252-.001.548-.254.66-.252.112-.548-.001-.66-.254-.093-.21-.303-.227-.365-.227-.063 0-.273.016-.367.227-.082.186-.264.297-.456.297z"/><path d="m49.517 27.813c-.192 0-.375-.111-.458-.297l-1.233-2.778c-.112-.252.002-.548.254-.66.253-.113.547.002.66.254l1.233 2.778c.112.252-.002.548-.254.66-.066.029-.135.043-.202.043z"/><path d="m45.404 27.813c-.067 0-.136-.014-.202-.043-.252-.112-.366-.407-.254-.66l1.233-2.778c.111-.252.406-.368.66-.254.252.112.366.407.254.66l-1.233 2.778c-.083.186-.266.297-.458.297z"/><path d="m26.413 23.692c-.119 0-.239-.042-.334-.128-.412-.371-.56-.935-.385-1.472.174-.536.625-.905 1.176-.962.275-.034.521.17.549.445.029.274-.17.521-.445.549-.229.024-.309.218-.329.277-.019.059-.069.264.103.419.205.185.222.501.037.706-.099.11-.235.166-.372.166z"/><path d="m26.921 22.127c-.253 0-.47-.191-.497-.448-.028-.275.171-.521.446-.549l3.023-.314c.277-.028.521.172.549.446.028.275-.171.521-.446.549l-3.023.314c-.017.001-.035.002-.052.002z"/><path d="m28.674 25.723c-.119 0-.239-.042-.334-.128l-2.261-2.031c-.206-.185-.223-.501-.038-.706.184-.206.501-.223.706-.038l2.261 2.031c.206.185.223.501.038.706-.099.11-.235.166-.372.166z"/><path d="m28.929 29.783c-.288 0-.576-.092-.826-.273-.458-.333-.669-.876-.553-1.419.058-.27.32-.445.594-.384.27.058.442.324.384.594-.048.226.113.363.164.4.063.046.233.141.428.029.239-.14.544-.057.684.182.139.239.057.545-.182.684-.218.124-.456.187-.693.187z"/><path d="m28.039 28.695c-.035 0-.07-.003-.105-.011-.27-.058-.442-.323-.384-.593l.635-2.973c.057-.271.321-.448.593-.384.27.058.442.323.384.593l-.635 2.973c-.049.235-.257.395-.488.395z"/><path d="m35.07 29.782c-.237 0-.474-.062-.69-.188-.239-.138-.321-.444-.182-.683.138-.239.444-.322.683-.182.2.114.38.005.431-.031.064-.046.208-.178.16-.399-.057-.27.115-.536.385-.593.266-.058.535.115.593.385.115.543-.096 1.085-.551 1.416-.251.183-.54.275-.829.275z"/><path d="m35.961 28.695c-.231 0-.438-.161-.488-.396l-.635-2.973c-.058-.27.114-.536.384-.593.266-.063.536.114.593.384l.635 2.973c.058.27-.114.536-.384.593-.035.009-.07.012-.105.012z"/><path d="m37.587 23.692c-.137 0-.273-.056-.372-.166-.185-.206-.167-.521.038-.706.171-.154.122-.358.103-.417-.019-.06-.1-.255-.33-.279-.275-.029-.474-.275-.445-.549.028-.275.278-.476.549-.445.552.058 1.002.428 1.176.965.174.536.026 1.099-.386 1.469-.094.086-.214.128-.333.128z"/><path d="m35.326 25.723c-.137 0-.273-.056-.372-.166-.185-.205-.167-.521.038-.706l2.261-2.031c.204-.184.521-.168.706.038.185.205.167.521-.038.706l-2.261 2.031c-.095.085-.215.128-.334.128z"/><path d="m37.079 22.127c-.017 0-.035-.001-.052-.002l-3.023-.314c-.274-.029-.474-.274-.446-.549.029-.274.268-.474.549-.446l3.023.314c.274.029.474.274.446.549-.027.257-.244.448-.497.448z"/><path d="m31.177 19.035c-.068 0-.137-.014-.203-.043-.252-.112-.366-.408-.253-.66.225-.506.716-.82 1.28-.82.563 0 1.053.314 1.278.82.112.252-.001.548-.254.66-.252.113-.548-.001-.66-.254-.093-.21-.303-.227-.365-.227-.063 0-.273.016-.367.227-.082.186-.265.297-.456.297z"/><path d="m34.056 21.813c-.192 0-.375-.111-.458-.297l-1.233-2.778c-.112-.252.002-.548.254-.66.252-.114.548.002.66.254l1.233 2.778c.112.252-.002.548-.254.66-.066.029-.134.043-.202.043z"/><path d="m29.944 21.813c-.067 0-.136-.014-.202-.043-.252-.112-.366-.407-.254-.66l1.233-2.778c.111-.252.405-.369.66-.254.252.112.366.407.254.66l-1.233 2.778c-.083.186-.266.297-.458.297z"/><path d="m6 10.5c-.276 0-.5-.224-.5-.5 0-2.481 2.019-4.5 4.5-4.5.276 0 .5.224.5.5s-.224.5-.5.5c-1.93 0-3.5 1.57-3.5 3.5 0 .276-.224.5-.5.5z"/><path d="m54 6.5h-44c-.276 0-.5-.224-.5-.5s.224-.5.5-.5h44c.276 0 .5.224.5.5s-.224.5-.5.5z"/><path d="m58 10.5c-.276 0-.5-.224-.5-.5 0-1.93-1.57-3.5-3.5-3.5-.276 0-.5-.224-.5-.5s.224-.5.5-.5c2.481 0 4.5 2.019 4.5 4.5 0 .276-.224.5-.5.5z"/><path d="m6 46.5c-.276 0-.5-.224-.5-.5v-36c0-.276.224-.5.5-.5s.5.224.5.5v36c0 .276-.224.5-.5.5z"/><path d="m10 50.5c-2.481 0-4.5-2.019-4.5-4.5 0-.276.224-.5.5-.5s.5.224.5.5c0 1.93 1.57 3.5 3.5 3.5.276 0 .5.224.5.5s-.224.5-.5.5z"/><path d="m14 10.5h-4c-.276 0-.5-.224-.5-.5s.224-.5.5-.5h4c.276 0 .5.224.5.5s-.224.5-.5.5z"/><path d="m30 10.5h-12c-.276 0-.5-.224-.5-.5s.224-.5.5-.5h12c.276 0 .5.224.5.5s-.224.5-.5.5z"/><path d="m54 50.5c-.276 0-.5-.224-.5-.5s.224-.5.5-.5c1.93 0 3.5-1.57 3.5-3.5 0-.276.224-.5.5-.5s.5.224.5.5c0 2.481-2.019 4.5-4.5 4.5z"/></svg>