<svg width="80" height="80" enable-background="new 0 0 128 128" viewBox="0 0 128 128" xmlns="http://www.w3.org/2000/svg"><g id="Layer_1" display="none"><g id="XMLID_155_" display="inline" fill="none" stroke="#000" stroke-miterlimit="10" stroke-width=".1"><path id="XMLID_218_" d="m0 0h128v128h-128z"/><path id="XMLID_217_" d="m0 124h128"/><path id="XMLID_216_" d="m0 120h128"/><path id="XMLID_215_" d="m0 116h128"/><path id="XMLID_214_" d="m0 112h128"/><path id="XMLID_213_" d="m0 108h128"/><path id="XMLID_212_" d="m0 104h128"/><path id="XMLID_211_" d="m0 100h128"/><path id="XMLID_210_" d="m0 96h128"/><path id="XMLID_209_" d="m0 92h128"/><path id="XMLID_208_" d="m0 88h128"/><path id="XMLID_207_" d="m0 84h128"/><path id="XMLID_206_" d="m0 80h128"/><path id="XMLID_205_" d="m0 76h128"/><path id="XMLID_204_" d="m0 72h128"/><path id="XMLID_203_" d="m0 68h128"/><path id="XMLID_202_" d="m0 64h128"/><path id="XMLID_201_" d="m0 60h128"/><path id="XMLID_200_" d="m0 56h128"/><path id="XMLID_199_" d="m0 52h128"/><path id="XMLID_198_" d="m0 48h128"/><path id="XMLID_197_" d="m0 44h128"/><path id="XMLID_196_" d="m0 40h128"/><path id="XMLID_195_" d="m0 36h128"/><path id="XMLID_194_" d="m0 32h128"/><path id="XMLID_193_" d="m0 28h128"/><path id="XMLID_192_" d="m0 24h128"/><path id="XMLID_191_" d="m0 20h128"/><path id="XMLID_190_" d="m0 16h128"/><path id="XMLID_189_" d="m0 12h128"/><path id="XMLID_188_" d="m0 8h128"/><path id="XMLID_187_" d="m0 4h128"/><path id="XMLID_186_" d="m124 0v128"/><path id="XMLID_185_" d="m120 0v128"/><path id="XMLID_184_" d="m116 0v128"/><path id="XMLID_183_" d="m112 0v128"/><path id="XMLID_182_" d="m108 0v128"/><path id="XMLID_181_" d="m104 0v128"/><path id="XMLID_180_" d="m100 0v128"/><path id="XMLID_179_" d="m96 0v128"/><path id="XMLID_178_" d="m92 0v128"/><path id="XMLID_177_" d="m88 0v128"/><path id="XMLID_176_" d="m84 0v128"/><path id="XMLID_175_" d="m80 0v128"/><path id="XMLID_174_" d="m76 0v128"/><path id="XMLID_173_" d="m72 0v128"/><path id="XMLID_172_" d="m68 0v128"/><path id="XMLID_171_" d="m64 0v128"/><path id="XMLID_170_" d="m60 0v128"/><path id="XMLID_169_" d="m56 0v128"/><path id="XMLID_168_" d="m52 0v128"/><path id="XMLID_167_" d="m48 0v128"/><path id="XMLID_166_" d="m44 0v128"/><path id="XMLID_165_" d="m40 0v128"/><path id="XMLID_164_" d="m36 0v128"/><path id="XMLID_163_" d="m32 0v128"/><path id="XMLID_162_" d="m28 0v128"/><path id="XMLID_161_" d="m24 0v128"/><path id="XMLID_160_" d="m20 0v128"/><path id="XMLID_159_" d="m16 0v128"/><path id="XMLID_158_" d="m12 0v128"/><path id="XMLID_157_" d="m8 0v128"/><path id="XMLID_156_" d="m4 0v128"/></g></g><g id="Layer_2" display="none"/><g id="ARTBOARD"><g id="_x32_"><g fill="none" stroke="#000" stroke-linecap="round" stroke-miterlimit="10" stroke-width="3"><path id="XMLID_4724_" d="m7.2 39.8h43.3"/><path id="XMLID_4723_" d="m23.3 34.6h11.1"/><path id="XMLID_4722_" d="m51.7 32c0-1.6-1.5-2.8-3.3-2.8h-39.2c-1.8 0-3.2 1.3-3.2 2.8v64c0 1.6 1.5 2.8 3.3 2.8h39.2c1.8 0 3.3-1.3 3.3-2.8v-64z"/><path id="XMLID_4721_" d="m7.2 88.2h43.3"/><path id="XMLID_4715_" d="m77.5 39.8h43.3"/><path id="XMLID_4714_" d="m93.6 34.6h11.1"/><path id="XMLID_4713_" d="m122 32c0-1.6-1.5-2.8-3.3-2.8h-39.1c-1.8 0-3.3 1.3-3.3 2.8v64c0 1.6 1.5 2.8 3.3 2.8h39.2c1.8 0 3.3-1.3 3.3-2.8v-64z"/><path id="XMLID_4712_" d="m77.5 88.2h43.3"/><circle id="XMLID_4711_" cx="99.2" cy="93.3" r=".6"/><path id="XMLID_4705_" d="m57.3 57.5h11.4"/><path id="XMLID_4704_" d="m67 54 3.5 3.5-3.1 3.1"/><path id="XMLID_4703_" d="m70.5 68.7h-11.4"/><path id="XMLID_4702_" d="m60.7 65.3-3.4 3.4 3 3.1"/><circle id="XMLID_4701_" cx="29" cy="93.3" r=".6"/></g><g id="XMLID_4747_"><circle id="XMLID_4748_" cx="28.9" cy="64" fill="none" r="11.2" stroke="#000" stroke-miterlimit="10" stroke-width="3"/></g><g><path d="m28.4 69.6v-1.5c-.9 0-1.8-.3-2.3-.7l.4-1c.5.4 1.3.6 2.1.6 1.1 0 1.8-.6 1.8-1.5 0-.8-.6-1.3-1.7-1.8-1.5-.6-2.5-1.3-2.5-2.6 0-1.2.9-2.2 2.2-2.4v-1.5h.9v1.4c.9 0 1.5.3 1.9.5l-.4 1c-.3-.2-.9-.5-1.9-.5-1.1 0-1.6.7-1.6 1.3 0 .8.6 1.2 1.8 1.7 1.5.6 2.3 1.4 2.3 2.7 0 1.2-.8 2.3-2.4 2.5v1.5h-.6z" stroke="#000" stroke-miterlimit="10"/></g><g id="XMLID_4750_"><circle id="XMLID_4751_" cx="99.1" cy="64" fill="none" r="11.2" stroke="#000" stroke-miterlimit="10" stroke-width="3"/></g><g><path d="m98.5 69.6v-1.5c-.9 0-1.8-.3-2.3-.7l.4-1c.5.4 1.3.6 2.1.6 1.1 0 1.8-.6 1.8-1.5 0-.8-.6-1.3-1.7-1.8-1.5-.6-2.5-1.3-2.5-2.6 0-1.2.9-2.2 2.2-2.4v-1.5h.9v1.4c.9 0 1.5.3 1.9.5l-.4 1c-.3-.2-.9-.5-1.9-.5-1.1 0-1.6.7-1.6 1.3 0 .8.6 1.2 1.8 1.7 1.5.6 2.3 1.4 2.3 2.7 0 1.2-.8 2.3-2.4 2.5v1.5h-.6z" stroke="#000" stroke-miterlimit="10"/></g></g></g></svg>