<?xml version="1.0" encoding="UTF-8"?>
<svg xmlns="http://www.w3.org/2000/svg" id="Layer_1" data-name="Layer 1" viewBox="0 0 64 64" width="512" height="512"><path d="M32,32a3,3,0,1,0,3,3A3,3,0,0,0,32,32Zm0,4a1,1,0,1,1,1-1A1,1,0,0,1,32,36Z"/><path d="M9,19a3,3,0,1,0,3,3A3,3,0,0,0,9,19Zm0,4a1,1,0,1,1,1-1A1,1,0,0,1,9,23Z"/><path d="M55,1a8,8,0,0,0-8,7.81L39.12,33.37a8,8,0,0,0-14.69,1.05L17,23.66a8,8,0,1,0-.41,2.92L24,37.34a8,8,0,0,0,16-.15l7.89-24.56A8,8,0,1,0,55,1ZM9,30a6,6,0,0,1-3.14-.89,5,5,0,0,1,6.28,0A6,6,0,0,1,9,30Zm4.65-2.22a7,7,0,0,0-9.3,0,6,6,0,1,1,9.3,0ZM32,43a6,6,0,0,1-3.14-.89,5,5,0,0,1,6.28,0A6,6,0,0,1,32,43Zm4.65-2.22a7,7,0,0,0-9.3,0,6,6,0,1,1,9.3,0ZM55,15a6,6,0,0,1-3.14-.89,5,5,0,0,1,6.28,0A6,6,0,0,1,55,15Zm4.65-2.22a7,7,0,0,0-9.3,0,6,6,0,1,1,9.3,0Z"/><path d="M55,4a3,3,0,1,0,3,3A3,3,0,0,0,55,4Zm0,4a1,1,0,1,1,1-1A1,1,0,0,1,55,8Z"/><path d="M13,34H5a1,1,0,0,0-1,1V61H2v2H62V61H60V20a1,1,0,0,0-1-1H51a1,1,0,0,0-1,1V61H37V48a1,1,0,0,0-1-1H28a1,1,0,0,0-1,1V61H14V35A1,1,0,0,0,13,34ZM12,61H6V36h6ZM52,21h6V61H52ZM29,49h6V61H29Z"/><path d="M20,13a3,3,0,1,0,3,3,2.94,2.94,0,0,0-.34-1.35L27,9.82A3,3,0,0,0,28,10a2.67,2.67,0,0,0,.75-.11l1.79,2.4A3,3,0,0,0,30,14a3,3,0,1,0,5.59-1.49l5.19-5.77A3.1,3.1,0,0,0,42,7a3,3,0,1,0-3-3,2.94,2.94,0,0,0,.34,1.35l-5.27,5.86A2.91,2.91,0,0,0,33,11a2.76,2.76,0,0,0-.82.13L30.41,8.77A3,3,0,0,0,31,7a3,3,0,0,0-6,0,3,3,0,0,0,.45,1.56l-4.23,4.7A3.1,3.1,0,0,0,20,13Zm0,4a1,1,0,1,1,1-1A1,1,0,0,1,20,17ZM42,3a1,1,0,1,1-1,1A1,1,0,0,1,42,3ZM33,13a1,1,0,1,1-1,1A1,1,0,0,1,33,13ZM28,6a1,1,0,1,1-1,1A1,1,0,0,1,28,6Z"/></svg>
