<?xml version="1.0"?>
<svg width="60" height="60" xmlns="http://www.w3.org/2000/svg" id="Layer_1" data-name="Layer 1" viewBox="0 0 512 512"><path d="M97.742,111.513a7,7,0,1,1-7.015-6.988h.028A6.987,6.987,0,0,1,97.742,111.513Zm-57.39-6.988H40.3a7.017,7.017,0,1,0,.057,0Zm25.2,0H65.5a7.016,7.016,0,1,0,.056,0Zm335.183,0H125.225a6.988,6.988,0,1,0,0,13.975H400.736a6.988,6.988,0,1,0,0-13.975Zm-111.2,208.758a6.984,6.984,0,0,1,0,9.881l-49.274,49.274a22.088,22.088,0,1,1-9.878-9.884l49.271-49.271A6.983,6.983,0,0,1,289.536,313.283Zm-60.912,69.034a8.108,8.108,0,1,0-8.095,8.094A8.118,8.118,0,0,0,228.624,382.317ZM329.648,264.854,300.2,294.306a6.989,6.989,0,0,1-9.335.492A111.245,111.245,0,0,0,232.467,270.6a6.989,6.989,0,0,1-6.254-6.949V222.011a6.988,6.988,0,0,1,7.533-6.966,166.087,166.087,0,0,1,95.5,39.554,6.987,6.987,0,0,1,.4,10.255Zm-15.357-4.408a151.924,151.924,0,0,0-74.1-30.7v27.772a125.114,125.114,0,0,1,54.459,22.567ZM208.563,270.6a111.428,111.428,0,0,0-58.4,24.2,6.988,6.988,0,0,1-9.329-.5l-29.454-29.452a6.986,6.986,0,0,1,.4-10.255,166.105,166.105,0,0,1,95.5-39.554,6.987,6.987,0,0,1,7.532,6.966v41.643A6.988,6.988,0,0,1,208.563,270.6Zm-7.721-40.852a151.956,151.956,0,0,0-74.1,30.7l19.647,19.647a125.293,125.293,0,0,1,54.455-22.569ZM387.519,368.817a6.988,6.988,0,0,1-6.967,7.533H338.909a6.99,6.99,0,0,1-6.95-6.255,111.42,111.42,0,0,0-24.2-58.4,6.99,6.99,0,0,1,.5-9.331l29.454-29.452a6.987,6.987,0,0,1,10.254.4A166.125,166.125,0,0,1,387.519,368.817Zm-14.706-6.443a151.955,151.955,0,0,0-30.7-74.1L322.47,307.919a125.284,125.284,0,0,1,22.569,54.455ZM512,237.6a80.232,80.232,0,0,1-.715,10.625,7,7,0,0,1-5.229,5.859l-9.935,2.506a64.007,64.007,0,0,1-4.748,11.449l5.261,8.8a7,7,0,0,1-.443,7.845,78.583,78.583,0,0,1-15.1,15.06,7,7,0,0,1-7.8.423l-8.788-5.244a64.709,64.709,0,0,1-11.439,4.751l-2.509,9.916a7,7,0,0,1-5.8,5.216c-1.228.175-2.473.309-3.725.423V399.41a39.235,39.235,0,0,1-39.19,39.191H39.19A39.235,39.235,0,0,1,0,399.41V112.59A39.235,39.235,0,0,1,39.19,73.4H401.841a39.235,39.235,0,0,1,39.19,39.191v47.357c1.252.113,2.5.246,3.725.421a7,7,0,0,1,5.8,5.216l2.509,9.917a64.7,64.7,0,0,1,11.439,4.75l8.788-5.243a7,7,0,0,1,7.8.422,77.976,77.976,0,0,1,15.108,15.1,7,7,0,0,1,.426,7.841l-5.251,8.753a64.355,64.355,0,0,1,4.76,11.457l9.918,2.5a7,7,0,0,1,5.23,5.86A80.466,80.466,0,0,1,512,237.6ZM13.975,135.65H427.056V112.59a25.244,25.244,0,0,0-25.215-25.216H39.19A25.244,25.244,0,0,0,13.975,112.59ZM427.056,399.41V315.229c-1.245-.114-2.487-.246-3.716-.42a7,7,0,0,1-5.808-5.217l-2.5-9.92a64.189,64.189,0,0,1-11.426-4.743l-8.82,5.247a7,7,0,0,1-7.792-.43,78.509,78.509,0,0,1-15.1-15.061,7,7,0,0,1-.444-7.844l5.258-8.793a63.6,63.6,0,0,1-4.746-11.455l-9.933-2.506a7,7,0,0,1-5.23-5.859,79.525,79.525,0,0,1,0-21.28,7,7,0,0,1,5.231-5.86l9.937-2.5a64.655,64.655,0,0,1,4.751-11.438l-5.261-8.77a7,7,0,0,1,.426-7.841A77.87,77.87,0,0,1,387,175.43a7,7,0,0,1,7.792-.429l8.82,5.246a64.259,64.259,0,0,1,11.426-4.742l2.5-9.921a7,7,0,0,1,5.808-5.217c1.228-.174,2.471-.306,3.716-.418V149.626H13.975V399.41A25.244,25.244,0,0,0,39.19,424.626H401.841A25.244,25.244,0,0,0,427.056,399.41ZM498,237.6c0-1.371-.044-2.753-.131-4.135l-9.137-2.319a7,7,0,0,1-5.085-5.168,50.447,50.447,0,0,0-6.319-15.189,7,7,0,0,1-.08-7.309l4.847-8.1a64.269,64.269,0,0,0-5.832-5.838l-8.1,4.832a7,7,0,0,1-7.27-.056,50.792,50.792,0,0,0-15.2-6.308,7.007,7.007,0,0,1-5.2-5.1l-2.318-9.155a63.7,63.7,0,0,0-8.267,0l-2.281,9.124a7,7,0,0,1-5.206,5.129,50.339,50.339,0,0,0-15.185,6.3,7,7,0,0,1-7.285.065l-8.117-4.838A63.891,63.891,0,0,0,386,195.38l4.847,8.1a7,7,0,0,1-.057,7.272,50.782,50.782,0,0,0-6.308,15.2,7,7,0,0,1-5.1,5.2l-9.158,2.317c-.087,1.382-.131,2.764-.131,4.135s.043,2.731.131,4.106l9.157,2.316a7,7,0,0,1,5.1,5.2,49.641,49.641,0,0,0,6.285,15.16,7,7,0,0,1,.08,7.309L386,279.807a64.391,64.391,0,0,0,5.837,5.833l8.118-4.838a7,7,0,0,1,7.285.065,50.339,50.339,0,0,0,15.185,6.3,7,7,0,0,1,5.206,5.129l2.282,9.124a63.51,63.51,0,0,0,8.266,0l2.318-9.156a7.007,7.007,0,0,1,5.2-5.1,50.792,50.792,0,0,0,15.2-6.308,7,7,0,0,1,7.27-.056l8.1,4.832a64.919,64.919,0,0,0,5.832-5.827l-4.847-8.115a7,7,0,0,1,.07-7.293,50.052,50.052,0,0,0,6.293-15.175,7,7,0,0,1,5.1-5.2l9.158-2.316C497.953,240.334,498,238.962,498,237.6Zm-21.43,0a42.508,42.508,0,1,1-42.522-42.522A42.557,42.557,0,0,1,476.566,237.6Zm-14,0a28.5,28.5,0,1,0-28.518,28.488A28.55,28.55,0,0,0,462.562,237.6ZM132.774,302.367a6.99,6.99,0,0,1,.5,9.331,111.428,111.428,0,0,0-24.2,58.4,6.989,6.989,0,0,1-6.95,6.255H60.479a6.988,6.988,0,0,1-6.966-7.533,166.124,166.124,0,0,1,39.553-95.5,6.987,6.987,0,0,1,10.254-.4Zm-14.212,5.552L98.914,288.273a151.945,151.945,0,0,0-30.7,74.1H95.992A125.285,125.285,0,0,1,118.562,307.919Z"/></svg>
