<svg id="Layer_1" width="75" height="75" enable-background="new 0 0 53 53" viewBox="0 0 53 53" xmlns="http://www.w3.org/2000/svg"><g><g><path d="m40.2430038 50.637207c-.2744141 0-.5283203-.1503906-.6591797-.3925781l-3.0966797-5.7177734h-5.0634784c-.4140625 0-.75-.3359375-.75-.75s.3359375-.75.75-.75h5.5097675c.2753906 0 .5283203.1503906.6591797.3925781l2.6044922 4.8076172 7.9580078-16.8701172c.1757812-.3720703.6230469-.5361328.9990234-.3583984.3740234.1767578.5351562.6240234.3583984.9990234l-8.5908203 18.2099609c-.1210938.2558594-.375.421875-.6582031.4296875-.0068359 0-.0136718 0-.0205078 0z"/></g><g><path d="m2.572104 50.637207c-.1298828 0-.2607422-.0332031-.3808594-.1044922-.3564453-.2109375-.4746094-.6708984-.2636719-1.0273438l7.5908208-12.8398438c.1484375-.25.4287109-.3847656.7158203-.3652344.2890625.0273438.5361328.21875.6347656.4921875l4.0820312 11.2958984 2.6181631-4.6777344c.1328125-.2373047.3828125-.3837891.6542969-.3837891h4.5302734c.4140625 0 .75.3359375.75.75s-.3359375.75-.75.75h-4.0908203l-3.2050772 5.7265625c-.1425781.2568359-.4189453.4130859-.7158203.3808594-.2919922-.0234375-.5439453-.2158203-.6435547-.4921875l-4.0986327-11.3427732-6.7812504 11.4697266c-.1396485.2363281-.3896485.368164-.6464844.368164z"/></g><g><path d="m27.0838223 36.6186523c-9.609375 0-17.4267578-7.8173828-17.4267578-17.4257812 0-9.6171875 7.8173819-17.4414062 17.4267578-17.4414062s17.4267597 7.8242187 17.4267597 17.4414062c0 9.6083984-7.8173828 17.4257812-17.4267597 17.4257812zm0-33.3671875c-8.7822266 0-15.9267569 7.1513672-15.9267569 15.9414062 0 8.78125 7.1445303 15.9257812 15.9267569 15.9257812s15.9267597-7.1445311 15.9267597-15.9257811c0-8.7900391-7.1445313-15.9414063-15.9267597-15.9414063z"/></g><g><path d="m27.0838223 30.9897461c-6.5068359 0-11.8007803-5.2929688-11.8007803-11.7998047 0-6.5117188 5.2939444-11.8095703 11.8007803-11.8095703s11.7998066 5.2978516 11.7998066 11.8095703c-.0000001 6.5068359-5.2929688 11.7998047-11.7998066 11.7998047zm0-22.109375c-5.6796875 0-10.3007812 4.625-10.3007812 10.3095703 0 5.6796875 4.6210938 10.2998047 10.3007812 10.2998047s10.2998066-4.6201172 10.2998066-10.2998047c-.0000001-5.6845703-4.6201172-10.3095703-10.2998066-10.3095703z"/></g><g><path d="m33.1453476 40.762207h-12.1152363c-1.2138672 0-2.2021484-.9882812-2.2021484-2.2021484v-4.4785156c0-.2607422.1357422-.5029297.3583984-.6396484.2207031-.1357422.5009766-.1474609.7314453-.0283203 2.2275391 1.1328125 4.6396484 1.7080078 7.1699219 1.7080078s4.9423847-.5751953 7.1699238-1.7080078c.2294922-.1191406.5097656-.1083984.7314453.0283203.2226562.1367188.3583984.3789062.3583984.6396484v4.4785156c0 1.2138672-.9882812 2.2021484-2.2021484 2.2021484zm-12.8173847-5.5039062v3.3017578c0 .3867188.3154297.7021484.7021484.7021484h12.1152363c.3867188 0 .7021484-.3154297.7021484-.7021484v-3.3017578c-4.2597675 1.8105469-9.2597675 1.8105469-13.5195331 0z"/></g><g><path d="m31.4187832 51.2485352h-8.6621094c-.4140625 0-.75-.3359375-.75-.75v-10.4863282c0-.4140625.3359375-.75.75-.75h8.6621094c.4140625 0 .7500019.3359375.7500019.75v10.4863281c0 .4140626-.3359394.7500001-.7500019.7500001zm-7.9121094-1.5h7.1621094v-8.9863282h-7.1621094z"/></g><g><path d="m33.6346054 51.2485352h-13.0937519c-.4140625 0-.75-.3359375-.75-.75s.3359375-.75.75-.75h13.0937519c.4140625 0 .75.3359375.75.75s-.3359375.75-.75.75z"/></g><g><path d="m50.4265976 37.5004883c-.3193359 0-.6152344-.2050781-.7158203-.5253906l-1.3671875-4.3554688-4.3574219 1.3730469c-.4003906.1220703-.8164062-.0976562-.9414062-.4902344-.1240234-.3955078.0957031-.8164062.4902344-.9414062l5.0742188-1.5976562c.1904297-.0576172.3964844-.0419922.5722656.0507812.1767578.0917969.3095703.2509766.3691406.4404297l1.5917969 5.0712891c.1240234.3955078-.0957031.8164062-.4912109.9404297-.0751954.0234374-.1503908.0341796-.2246095.0341796z"/></g><g><path d="m25.3992519 21.4555664c-.0605469 0-.1210938-.0078125-.1816406-.0224609-.1972656-.0488281-.3671875-.1767578-.46875-.3544922l-1.4677734-2.5556641c-.2060547-.3583984-.0820312-.8173828.2773438-1.0234375.3574219-.2080078.8173828-.0830078 1.0234375.2773438l1.0791016 1.8779297 4.1748047-2.625c.3515625-.2226562.8144531-.1142578 1.0341797.2353516.2207031.3505859.1152344.8134766-.2353516 1.0341797l-4.8359376 3.0410155c-.1210937.0761719-.2597656.1152344-.3994141.1152344z"/></g></g></svg>