<svg id="Layer_1" enable-background="new 0 0 512 512" viewBox="0 0 512 512" xmlns="http://www.w3.org/2000/svg"><path d="m505.899 98.286-167.587-65.161c-1.865-.726-3.934-.726-5.799 0l-122.191 47.511c-1.707-4.201-3.698-8.284-5.966-12.222l8.3-8.3c.596-.596 1.135-1.258 1.516-2.01 1.662-3.281.935-6.999-1.442-9.377l-25.612-25.613c-2.375-2.375-6.086-3.102-9.367-1.449-.754.38-1.419.92-2.016 1.517l-8.303 8.304c-7.493-4.321-15.457-7.623-23.795-9.864v-11.832c0-4.418-3.582-8-8-8h-36.22c-4.418 0-8 3.582-8 8v11.833c-8.34 2.242-16.304 5.543-23.796 9.863l-8.371-8.372c-3.124-3.123-8.189-3.125-11.313 0l-25.536 25.533c-.595.595-1.135 1.256-1.516 2.007-1.667 3.281-.941 7.006 1.437 9.385l8.373 8.373c-4.321 7.494-7.623 15.459-9.864 23.795h-11.831c-4.418 0-8 3.582-8 8v36.221c0 4.418 3.582 8 8 8h11.832c2.241 8.34 5.543 16.306 9.863 23.796l-8.297 8.297c-.596.596-1.135 1.258-1.516 2.01-1.662 3.281-.935 6.999 1.442 9.377l25.612 25.613c3.125 3.125 8.19 3.125 11.313 0l8.372-8.372c7.494 4.321 15.459 7.623 23.796 9.864v11.831c0 4.418 3.582 8 8 8h36.221c4.418 0 8-3.582 8-8v-11.832c5.574-1.499 10.976-3.49 16.189-5.925v39.766c0 3.299 2.025 6.26 5.101 7.456l167.586 65.163c.933.363 1.916.544 2.899.544s1.967-.181 2.899-.544l167.587-65.163c3.075-1.196 5.101-4.157 5.101-7.456v-143.111c0-3.299-2.025-6.26-5.101-7.456zm-80.45-14.114-145.508 56.58-34.562-13.439 145.508-56.58zm-153.513 70.634v28.557l-16.357-13.932c-2.09-1.779-4.941-2.363-7.563-1.549l-16.711 5.197v-34.072zm63.477-105.642 33.398 12.986-145.507 56.58-33.402-12.988zm-175.586 56.578v36.186c-8.951 16.034-26.038 25.644-44.64 24.769-25.781-1.213-46.294-22.951-46.094-48.76.205-26.532 21.853-48.054 48.433-48.054 19.952 0 37.509 12.192 44.823 30.057-1.568 1.483-2.522 3.557-2.522 5.802zm-42.301-51.858c-35.638 0-64.612 29.082-64.434 64.761.172 34.562 28.093 63.147 62.643 64.084 16.567.449 32.152-5.349 44.092-15.755v24.083c-7.987 4.661-16.615 7.942-25.711 9.761-3.758.751-6.479 4.022-6.479 7.854v10.173h-20.221v-10.173c0-3.832-2.719-7.103-6.477-7.854-10.771-2.152-20.881-6.345-30.051-12.464-3.173-2.118-7.4-1.7-10.097.998l-7.2 7.199-14.299-14.299 7.199-7.199c2.704-2.704 3.108-6.935.986-10.115-6.113-9.163-10.303-19.274-12.456-30.052-.749-3.75-4.026-6.457-7.85-6.457h-10.171v-20.221h10.173c3.825 0 7.102-2.708 7.85-6.459 2.149-10.77 6.341-20.881 12.457-30.052 2.121-3.181 1.717-7.411-.987-10.114l-7.2-7.2 14.3-14.298 7.199 7.2c2.704 2.704 6.934 3.108 10.115.986 9.164-6.114 19.275-10.305 30.053-12.457 3.75-.749 6.457-4.025 6.457-7.849v-10.175h20.221v10.174c0 3.831 2.719 7.103 6.476 7.854 10.773 2.153 20.883 6.347 30.05 12.465 3.174 2.118 7.399 1.699 10.098-.998l7.2-7.201 14.299 14.299-7.2 7.2c-2.718 2.718-3.088 6.961-.957 10.16 3.091 4.64 5.692 9.564 7.794 14.695l-18.366 7.141c-9.807-23.609-33.079-39.695-59.506-39.695zm209.887 248.438-151.586-58.941v-125.945l39.477 15.35v47.915c0 1.299.181 2.604.649 3.815 2.082 5.389 7.729 7.688 12.615 6.171l19.991-6.217 22.521 19.18c1.883 1.604 4.253 2.438 6.645 2.438 2.796 0 5.624-1.142 7.724-3.527 1.671-1.898 2.488-4.403 2.488-6.932v-34.602l39.478 15.35v125.945zm8-140.001-33.398-12.986 145.509-56.58 33.401 12.987zm159.587 81.06-151.587 58.941v-125.944l151.587-58.942zm-30.765 59.749c-10.336-2.771-21.102-1.365-30.313 3.954l-105.55 60.937c-.619-5.936-2.468-11.746-5.533-17.104-5.77-10.084-15.072-17.306-26.197-20.334l-119.104-32.417c-.334-.091-.677-.162-1.02-.207-17.974-2.389-34.382 1.99-48.765 13.007l-31.892 24.424-1.35-5.038v-.001c-2.147-8.01-10.41-12.779-18.419-10.634l-28.34 7.594c-3.873 1.038-7.113 3.528-9.124 7.011-2.011 3.484-2.547 7.536-1.509 11.408l41.085 153.333c1.8 6.711 7.892 11.148 14.531 11.148 1.284 0 2.59-.166 3.888-.514l28.339-7.593c3.873-1.038 7.113-3.528 9.124-7.011 2.012-3.484 2.548-7.536 1.51-11.409l-1.588-5.927c16.919-12.697 32.47-16.27 51.323-11.947l68.222 15.64c5.908 1.354 11.663 2.03 17.256 2.03 11.581 0 22.455-2.902 32.472-8.685l170.603-98.495c19.079-11.016 25.641-35.503 14.626-54.587-5.319-9.214-13.939-15.814-24.275-18.583zm-370.825 190.863-40.588-151.478 26.482-7.096 40.588 151.479zm372.038-131.298-170.168 98.244c-11.397 6.581-23.878 8.188-38.151 4.916l-68.223-15.64c-21.661-4.966-40.329-1.554-59.311 11.074l-29.254-109.179 37.14-28.443c10.901-8.35 22.812-11.597 36.39-9.918l118.568 32.272c7.001 1.905 12.864 6.466 16.512 12.84 3.646 6.375 4.605 13.741 2.7 20.741-3.962 14.554-19.025 23.174-33.581 19.21l-63.327-17.236c-3.947-1.074-8.25.799-9.793 4.588-1.848 4.54.715 9.523 5.296 10.77l63.622 17.316c3.798 1.034 7.614 1.527 11.375 1.527 17.635-.002 33.941-10.867 40.446-27.734l116.232-67.104c5.513-3.183 11.968-4.019 18.172-2.355 7.102 1.903 12.847 6.802 15.808 13.607 4.893 11.239.163 24.375-10.453 30.504z"/></svg>