<svg id="Layer_1" height="50" viewBox="0 0 2500 2500" width="50" xmlns="http://www.w3.org/2000/svg"><g><g><path d="m1230.5 1339.8h-484.4c-7.8 0-15.6-3.9-23.4-7.8s-7.8-15.6-7.8-23.4c11.7-140.6 128.9-250 269.5-250s257.8 105.5 269.5 250c0 7.8-3.9 15.6-7.8 23.4 0 7.8-7.8 7.8-15.6 7.8zm-449.2-58.5h414.1c-23.4-93.8-109.4-164.1-207-164.1-101.7 0-183.7 70.3-207.1 164.1z"/></g><g><path d="m988.3 992.2c-66.4 0-121.1-54.7-121.1-121.1s54.7-125 121.1-125 125 54.7 125 125c0 62.5-58.6 121.1-125 121.1zm0-191.4c-35.2 0-62.5 27.3-62.5 66.4 0 35.2 27.3 62.5 62.5 62.5s66.4-27.3 66.4-62.5-31.3-66.4-66.4-66.4z"/></g><g><path d="m1738.3 2468.8h-1554.7c-93.8 0-175.8-78.1-175.8-175.8v-2086c0-93.8 78.1-171.9 175.8-171.9h1550.8c93.8 0 171.9 78.1 171.9 171.9v2086c3.9 43-15.6 89.8-46.9 121.1-27.4 35.1-74.2 54.7-121.1 54.7zm-1554.7-2375c-62.5 0-117.2 54.7-117.2 113.3v2085.9c0 62.5 54.7 117.2 117.2 117.2h1554.7c31.3 0 62.5-11.7 82-35.2 19.5-19.5 31.2-50.8 27.3-78.1v-2086c0-62.5-54.7-113.3-113.3-113.3h-1550.7z"/></g><g><path d="" stroke="rgb(0,0,0)" stroke-linecap="round" stroke-linejoin="round" stroke-miterlimit="10" stroke-width="1.5"/></g><g><path d="m1882.8 421.9h-1843.7c-15.6 0-31.3-11.7-31.3-31.3s15.6-27.3 31.3-27.3h1843.8c15.6 0 31.3 11.7 31.3 31.3s-15.8 27.3-31.4 27.3z"/></g><g><path d="m410.2 257.8h-152.4c-15.6 0-31.3-11.7-31.3-31.3s11.7-31.3 31.3-31.3h152.3c15.6 0 31.3 11.7 31.3 31.3s-15.6 31.3-31.2 31.3z"/></g><g><path d="m675.8 257.8h-152.4c-15.6 0-31.3-11.7-31.3-31.3s11.7-31.3 31.3-31.3h152.3c15.6 0 31.2 11.7 31.2 31.3s-15.5 31.3-31.1 31.3z"/></g><g><path d="m941.4 257.8h-156.2c-15.6 0-31.2-11.7-31.2-31.3s11.7-31.3 31.2-31.3h156.3c15.6 0 31.3 11.7 31.3 31.3s-15.8 31.3-31.4 31.3z"/></g><g><path d="m988.3 1562.5c-269.5 0-484.4-218.8-484.4-484.4 0-269.5 218.8-488.3 484.4-488.3 269.5 0 488.3 218.8 488.3 488.3s-218.8 484.4-488.3 484.4zm0-914.1c-234.4 0-425.8 191.4-425.8 429.7 0 234.4 191.4 425.8 425.8 425.8s429.7-191.4 429.7-425.8-195.3-429.7-429.7-429.7z"/></g><g><path d="m1648.4 1730.5h-976.5c-15.6 0-31.2-11.7-31.2-31.3s11.7-31.3 31.2-31.3h976.6c15.6 0 31.3 11.7 31.3 31.3s-15.7 31.3-31.4 31.3z"/></g><g><path d="m1648.4 1984.4h-976.5c-15.6 0-31.2-11.7-31.2-31.3s11.7-31.3 31.2-31.3h976.6c15.6 0 31.3 11.7 31.3 31.3s-15.7 31.3-31.4 31.3z"/></g><g><path d="m1648.4 2238.3h-976.5c-15.6 0-31.2-11.7-31.2-31.3s11.7-31.3 31.2-31.3h976.6c15.6 0 31.3 11.7 31.3 31.3s-15.7 31.3-31.4 31.3z"/></g><g><path d="m375 1730.5h-136.7c-15.6 0-31.3-11.7-31.3-31.3s11.7-31.3 31.3-31.3h136.7c15.6 0 31.3 11.7 31.3 31.3s-15.7 31.3-31.3 31.3z"/></g><g><path d="m375 1984.4h-136.7c-15.6 0-31.3-11.7-31.3-31.3s11.7-31.3 31.3-31.3h136.7c15.6 0 31.3 11.7 31.3 31.3s-15.7 31.3-31.3 31.3z"/></g><g><path d="m375 2238.3h-136.7c-15.6 0-31.3-11.7-31.3-31.3s11.7-31.3 31.3-31.3h136.7c15.6 0 31.3 11.7 31.3 31.3s-15.7 31.3-31.3 31.3z"/></g><g><path d="m2277.3 2468.8c-125 0-226.6-113.3-226.6-253.9v-1796.9c0-3.9 0-7.8 3.9-15.6l195.4-359.4c11.7-19.5 43-19.5 50.8 0l195.3 359.4c3.9 3.9 3.9 7.8 3.9 15.6v1793c0 140.6-97.7 257.8-222.7 257.8zm-167.9-2043v1789.1c0 105.5 74.2 195.3 168 195.3s168-89.8 168-199.2v-1785.2l-168-304.7z"/></g><g><path d="m2472.7 2160.2h-390.7c-15.6 0-31.3-11.7-31.3-31.3s11.7-31.3 31.3-31.3h390.6c15.6 0 31.3 11.7 31.3 31.3s-15.6 31.3-31.2 31.3z"/></g><g><path d="m2472.7 449.2h-390.7c-15.6 0-31.3-11.7-31.3-31.3s11.7-31.3 31.3-31.3h390.6c15.6 0 31.3 11.7 31.3 31.3s-15.6 31.3-31.2 31.3z"/></g></g></svg>