<svg clip-rule="evenodd" width="60" height="60" fill-rule="evenodd" stroke-linejoin="round" stroke-miterlimit="2" viewBox="0 0 510 510" xmlns="http://www.w3.org/2000/svg"><path d="m128.552 401.471h-76.274c-10.348 0-18.749-8.401-18.749-18.749v-115.973c0-10.348 8.401-18.749 18.749-18.749h71.093c-5.359-3.598-11.922-5.76-19.375-5.76-10.716 0-19.408-8.692-19.408-19.408v-37.781c0-10.717 8.692-19.408 19.408-19.408 30.993 0 46.526-37.534 24.619-59.441-7.575-7.575-7.575-19.864 0-27.44l26.735-26.735c7.576-7.575 19.865-7.575 27.44 0 21.907 21.907 59.441 6.374 59.441-24.619 0-10.716 8.691-19.408 19.408-19.408h37.781c10.716 0 19.408 8.692 19.408 19.408 0 30.993 37.533 46.526 59.44 24.619 7.572-7.572 19.89-7.572 27.463 0l26.712 26.735c7.576 7.576 7.576 19.865 0 27.44-21.906 21.907-6.354 59.441 24.62 59.441 10.751 0 19.408 8.691 19.408 19.408v37.781c0 10.716-8.657 19.408-19.408 19.408-9.95 0-18.315 3.858-24.346 9.845v42.49h25.748c9.904 0 18.006 8.102 18.006 18.005v129.63c0 9.904-8.102 18.006-18.006 18.006h-65.504c-9.891 0-17.997-8.1-17.997-18.006v-16.35h-50.359c.633 13.442 3.903 27.309 8.011 36.76h15.796c10.829 0 19.69 8.861 19.69 19.69 0 10.83-8.861 19.69-19.69 19.69h-135.748c-10.83 0-19.69-8.86-19.69-19.69 0-10.829 8.86-19.69 19.69-19.69h15.731c3.982-9.46 6.968-23.326 7.452-36.76h-79.653c-14.226 0-25.945-10.644-27.642-24.389zm17.718-139.471h-93.992c-2.621 0-4.749 2.128-4.749 4.749v115.973c0 2.621 2.128 4.749 4.749 4.749h93.992c2.621 0 4.749-2.128 4.749-4.749v-115.973c0-2.621-2.128-4.749-4.749-4.749zm0-14c10.348 0 18.749 8.401 18.749 18.749v103.646h209.945v-57.815c0-9.905 8.106-18.005 17.997-18.005h25.756v-68.773c0-4.59-3.723-8.313-8.313-8.313h-254.21c-7.656 0-13.853 6.197-13.853 13.852v16.659zm18.676 136.395c-.848 9.565-8.892 17.076-18.676 17.076h-3.496c1.532 5.974 6.957 10.389 13.42 10.389h218.77v-27.465zm267.771-149.795c6.956-4.002 15.166-6.36 24.346-6.36 2.996 0 5.408-2.422 5.408-5.408v-37.781c0-2.986-2.412-5.408-5.408-5.408-43.429 0-65.234-52.625-34.519-83.34 2.109-2.11 2.109-5.532 0-7.641l-26.713-26.735c-2.113-2.113-5.55-2.113-7.663 0-30.715 30.715-83.34 8.935-83.34-34.519 0-2.986-2.422-5.408-5.408-5.408h-37.781c-2.986 0-5.408 2.422-5.408 5.408 0 43.454-52.625 65.234-83.34 34.519-2.11-2.11-5.532-2.11-7.641 0l-26.735 26.735c-2.11 2.109-2.11 5.531 0 7.641 30.715 30.715 8.935 83.34-34.519 83.34-2.986 0-5.408 2.422-5.408 5.408v37.781c0 2.986 2.422 5.408 5.408 5.408 9.181 0 17.391 2.356 24.345 6.355v-3.254c0-15.392 12.461-27.852 27.853-27.852h26.565c.251-53.656 44.069-97.319 97.781-97.319 53.689 0 97.531 43.663 97.782 97.319h32.082c12.319 0 22.313 9.994 22.313 22.313zm-235.958-31.111h167.563c-.251-45.943-37.802-83.319-83.782-83.319-46 0-83.53 37.376-83.781 83.319zm120.866 259.131c-3.679-10.448-6.463-23.799-7.026-36.76h-60.752c-.439 12.966-3.001 26.318-6.533 36.76zm30.787 14h-135.748c-3.13 0-5.69 2.561-5.69 5.69 0 3.13 2.56 5.69 5.69 5.69h135.748c3.129 0 5.69-2.56 5.69-5.69 0-3.129-2.561-5.69-5.69-5.69zm114.059-34.41v-129.63c0-2.203-1.803-4.005-4.006-4.005h-65.504c-2.199 0-3.997 1.804-3.997 4.005v129.63c0 2.202 1.798 4.006 3.997 4.006h65.504c2.203 0 4.006-1.803 4.006-4.006zm-42.735 2.738c-3.864 0-7-3.137-7-7 0-3.864 3.136-7 7-7h11.963c3.864 0 7 3.136 7 7 0 3.863-3.136 7-7 7zm-336.061-63.125c-3.864 0-7-3.137-7-7 0-3.864 3.136-7 7-7h28.402c3.863 0 7 3.136 7 7 0 3.863-3.137 7-7 7zm185.391 23.305c-3.864 0-7-3.137-7-7 0-3.864 3.136-7 7-7h22.927c3.864 0 7 3.136 7 7 0 3.863-3.136 7-7 7zm12.01-250.581c1.522-3.551 5.641-5.198 9.192-3.676 3.55 1.522 5.198 5.641 3.676 9.192l-13.939 32.518c-1.522 3.551-5.641 5.198-9.192 3.676s-5.198-5.641-3.676-9.192zm-20.297 29.438c3.222 2.132 4.108 6.478 1.976 9.7-2.131 3.223-6.478 4.108-9.7 1.976l-25.354-16.772c-1.96-1.296-3.138-3.489-3.138-5.838 0-2.35 1.178-4.542 3.138-5.839l25.354-16.772c3.222-2.132 7.569-1.246 9.7 1.976 2.132 3.222 1.246 7.569-1.976 9.7l-16.529 10.935zm39.523-21.869c-3.222-2.131-4.108-6.478-1.976-9.7 2.131-3.222 6.478-4.108 9.7-1.976l25.354 16.772c1.96 1.297 3.138 3.489 3.138 5.839 0 2.349-1.178 4.542-3.138 5.838l-25.354 16.772c-3.222 2.132-7.569 1.247-9.7-1.976-2.132-3.222-1.246-7.568 1.976-9.7l16.529-10.934z"/></svg>