<svg width="60" height="60" clip-rule="evenodd" fill-rule="evenodd" stroke-linejoin="round" stroke-miterlimit="2" viewBox="0 0 510 510" xmlns="http://www.w3.org/2000/svg"><path d="m37.078 8h366.384.026c16.054.004 29.068 13.017 29.071 29.071v.029 54.717 161.139c17.28 11.049 38.769 20.536 62.994 22.456 3.64.288 6.447 3.326 6.447 6.978v91.691c0 31.391-15.725 60.368-37.611 82.999-21.572 22.307-49.052 38.385-72.518 44.681-1.188.319-2.439.319-3.627 0-23.474-6.295-50.957-22.374-72.531-44.681-16.97-17.546-30.235-38.907-35.34-62.25h-243.273c-16.071 0-29.1-13.028-29.1-29.1v-273.913-54.746c.003-16.054 13.017-29.067 29.071-29.071zm0 14c-8.323.012-15.066 6.756-15.078 15.078v47.739h151.933l25.376-28.891c1.329-1.513 3.245-2.38 5.259-2.38s3.93.867 5.259 2.38l25.377 28.891h183.355v-47.717-.022c-.012-8.322-6.756-15.066-15.078-15.078h-.022zm311.301 19.868c6.373 0 11.548 5.175 11.548 11.549 0 6.373-5.175 11.548-11.548 11.548-6.374 0-11.549-5.175-11.549-11.548 0-6.374 5.175-11.549 11.549-11.549zm-33.876 0c6.373 0 11.548 5.175 11.548 11.549 0 6.373-5.175 11.548-11.548 11.548-6.374 0-11.549-5.175-11.549-11.548 0-6.374 5.175-11.549 11.549-11.549zm67.752 0c6.374 0 11.548 5.175 11.548 11.549 0 6.373-5.174 11.548-11.548 11.548s-11.549-5.175-11.549-11.548c0-6.374 5.175-11.549 11.549-11.549zm-90.155 246.825v85.388c0 27.778 14.308 53.24 33.677 73.267 19.129 19.779 43.276 34.311 64.28 40.385 20.997-6.074 45.141-20.606 64.268-40.385 19.367-20.027 33.675-45.489 33.675-73.267v-85.388c-27.112-3.531-50.887-15.327-69.424-28.246h-57.052c-18.537 12.919-42.312 24.715-69.424 28.246zm71.479-14.002c.14-.521.241-.829.241-.829 1.26-.683 2.64-.941 3.971-.819.204-.019.42-.028.65-.028h44.501c1.382 0 2.732.409 3.882 1.175 16.479 10.983 34.712 19.361 54.035 23.486 0 0 5.539.299 5.539 6.867v69.528c0 17.898-7.233 35.613-18.574 51.228-16.511 22.733-41.719 41.006-65.564 48.911-1.431.474-2.976.474-4.406 0-23.845-7.905-49.053-26.183-65.563-48.917-11.342-15.616-18.575-33.33-18.575-51.222v-69.549c0-3.303 2.309-6.156 5.539-6.846 19.322-4.125 37.543-12.503 54.022-23.486zm98.819 35.383c-18.311-4.647-35.669-12.715-51.554-23.059-7.643 0-33.943 0-41.586 0-15.885 10.344-33.234 18.412-51.542 23.059v63.997c0 15.054 6.36 29.857 15.902 42.995 14.273 19.652 35.759 35.646 56.439 43.093 20.68-7.447 42.167-23.436 56.439-43.087 9.542-13.138 15.902-27.943 15.902-43.001zm-28.198 29.018c2.999-2.436 7.411-1.979 9.847 1.02 2.435 2.999 1.978 7.411-1.021 9.847l-71.764 58.284c-1.527 1.24-3.505 1.781-5.45 1.489-1.945-.291-3.678-1.387-4.774-3.02l-25.362-37.772c-2.154-3.208-1.299-7.56 1.909-9.714 3.207-2.154 7.56-1.298 9.713 1.909l21.089 31.408zm-368.334-110.767v18.486c24.982.447 37.465 30.612 20.118 48.584l13.084 13.073c17.988-17.354 48.133-4.871 48.579 20.124h18.486c.447-24.967 30.613-37.465 48.585-20.118l13.078-13.078c-17.346-17.973-4.849-48.138 20.118-48.585v-18.486c-24.964-.447-37.462-30.606-20.124-48.579l-13.072-13.084c-17.973 17.347-48.138 4.864-48.585-20.118h-18.486c-.447 24.979-30.606 37.462-48.579 20.124l-13.078 13.078c17.338 17.973 4.855 48.132-20.124 48.579zm91.03 63.347c-29.802 0-54.099-24.31-54.099-54.098 0-29.803 24.297-54.099 54.099-54.099 29.789 0 54.099 24.296 54.099 54.099 0 29.788-24.31 54.098-54.099 54.098zm0-14c22.08 0 40.099-18.019 40.099-40.098 0-22.09-18.019-40.099-40.099-40.099-22.09 0-40.099 18.009-40.099 40.099 0 22.079 18.009 40.098 40.099 40.098zm-134.896-178.855v266.913c0 8.34 6.76 15.1 15.1 15.1h241.242c-.16-2.236-.242-4.486-.242-6.749v-91.691c0-3.652 2.807-6.69 6.447-6.978 27.964-2.216 52.281-14.515 70.688-27.661 1.187-.848 2.609-1.304 4.068-1.304h59.256v-147.63h-171.058l12.758 14.525c1.814 2.065 2.252 5.001 1.118 7.506-1.133 2.504-3.628 4.113-6.377 4.113h-22.277v39.914l5.363 5.367c5.245 5.246 5.245 13.755 0 19-9.246 9.246-2.682 25.088 10.391 25.088 7.443 0 13.437 6.018 13.437 13.437v19.601c0 7.42-5.994 13.438-13.437 13.438-13.073 0-19.637 15.841-10.391 25.088 5.242 5.241 5.242 13.769 0 19.011l-13.859 13.858c-5.242 5.242-13.769 5.242-19.011 0-9.246-9.246-25.088-2.682-25.088 10.391 0 7.444-6.018 13.438-13.437 13.438h-19.602c-7.419 0-13.437-5.994-13.437-13.438 0-13.089-15.834-19.645-25.088-10.391-5.245 5.246-13.754 5.246-18.997.003l-13.873-13.861c-5.242-5.242-5.242-13.77 0-19.011 9.247-9.247 2.691-25.088-10.391-25.088-7.419 0-13.437-6.018-13.437-13.438v-19.601c0-7.419 6.018-13.437 13.437-13.437 13.082 0 19.638-15.842 10.391-25.088-5.245-5.245-5.245-13.754 0-19l13.871-13.87c5.245-5.245 13.754-5.245 18.999 0 9.247 9.246 25.088 2.69 25.088-10.391 0-7.419 6.018-13.437 13.437-13.437h19.602c3.819 0 7.267 1.594 9.713 4.154v-11.737h-22.268c-2.749 0-5.243-1.609-6.377-4.113-1.134-2.505-.696-5.441 1.118-7.506l12.758-14.525zm196.723 54.229v-35.085c0-3.866 3.134-7 7-7h13.811l-34.966-39.808-34.966 39.808h13.802c3.866 0 7 3.134 7 7v42.027c4.872 1.553 10.544.652 14.812-3.616 3.649-3.649 8.89-4.758 13.507-3.326z"/></svg>