<svg id="Layer_1" height="80" viewBox="0 0 64 64" width="80" xmlns="http://www.w3.org/2000/svg" data-name="Layer 1"><g fill="none" stroke="#000" stroke-linejoin="round"><circle cx="32" cy="30" r="6.5"/><path d="m27.3152 34.5024a4.8767 4.8767 0 0 1 9.3707.0039"/><path d="m34.1667 28.7812a2.1667 2.1667 0 1 1 -2.1667-2.1666 2.1667 2.1667 0 0 1 2.1667 2.1666z"/><path d="m43 45.5v10.5a2 2 0 0 1 -2 2h-18a2 2 0 0 1 -2-2v-3.5" stroke-linecap="round"/><path d="m43 23v-3a2 2 0 0 0 -2-2h-18a2 2 0 0 0 -2 2v9.5" stroke-linecap="round"/><circle cx="32" cy="54.5" r="1"/><g stroke-linecap="round"><rect height="8" rx="2" width="10" x="9" y="36"/><path d="m13 38v4l3-2z"/><path d="m24 40a10 10 0 0 0 -10.2835-9.9961 10.11 10.11 0 0 0 -9.7126 9.7125 10 10 0 0 0 9.9961 10.2836h10l-1.6356-1.6356a1.9705 1.9705 0 0 1 -.2406-2.5319 9.9543 9.9543 0 0 0 1.8762-5.8325z"/><path d="m41 33a10 10 0 0 1 10.2835-9.9961 10.11 10.11 0 0 1 9.7126 9.7125 10 10 0 0 1 -9.9961 10.2836h-10l1.6356-1.6356a1.9705 1.9705 0 0 0 .2406-2.5319 9.9543 9.9543 0 0 1 -1.8762-5.8325z"/><path d="m51.5 27.5a3.0033 3.0033 0 0 0 -3 3v2a1 1 0 0 0 0 2v4a1 1 0 0 0 2 0v-4h1a1 1 0 0 0 0-2h-1v-2a1 1 0 0 1 2 0 1 1 0 0 0 2 0 3.0033 3.0033 0 0 0 -3-3z"/><path d="m27.5 40.5h9"/><path d="m29.5 43.5h5"/><path d="m32 3.816.708 2.179h2.292l-1.854 1.348.708 2.179-1.854-1.347-1.854 1.347.708-2.179-1.854-1.348h2.292z"/><path d="m22.014 8.724.708 2.18h2.292l-1.854 1.347.708 2.18-1.854-1.348-1.854 1.348.708-2.18-1.854-1.347h2.292z"/><path d="m41.986 8.724.708 2.18h2.292l-1.854 1.347.708 2.18-1.854-1.348-1.854 1.348.708-2.18-1.854-1.347h2.292z"/><path d="m29 20h5"/></g></g></svg>