<svg id="Layer_1" enable-background="new 0 0 100 100" height="85" viewBox="0 0 100 100" width="85" xmlns="http://www.w3.org/2000/svg"><g><path d="m94.94 44.41c-1.458-7.062-6.773-12.547-13.404-14.379 2.818-1.667 4.717-4.729 4.717-8.234 0-5.355-4.293-9.711-9.571-9.711-5.354 0-9.709 4.356-9.709 9.711 0 3.512 1.935 6.581 4.804 8.246-1.619.447-3.167 1.113-4.604 1.963-3.174-3.393-7.261-5.743-11.803-6.807 4.01-2.03 6.69-6.2 6.69-11.13 0-6.8-5.54-12.33-12.34-12.33s-12.34 5.53-12.34 12.33c0 4.85 2.75 9.07 6.77 11.13-4.439 1.035-8.528 3.311-11.754 6.572-1.318-.743-2.718-1.324-4.176-1.727 2.871-1.665 4.807-4.733 4.807-8.247 0-5.355-4.356-9.711-9.711-9.711-5.278 0-9.571 4.356-9.571 9.711 0 3.505 1.9 6.568 4.719 8.235-6.632 1.833-11.948 7.322-13.414 14.408-.18 1.08.14 2.19.89 3.14.79.99 1.8 1.48 3 1.48h19.507c-2.994 7.834-1.356 17.049 4.947 23.352 4.133 4.134 9.638 6.411 15.5 6.411 4.726 0 9.206-1.502 12.936-4.243l5.64 5.64-2.163 2.124 14.953 14.955 2.096 2.096 9.006-9.17-16.885-16.886-2.229 2.189-5.637-5.751c4.417-6.078 5.333-13.915 2.729-20.723.004.002.007.003.011.005h21.71c1.2 0 2.21-.49 2.99-1.48.759-.939 1.079-2.059.889-3.169zm-25.967-22.613c0-4.252 3.458-7.711 7.709-7.711 4.174 0 7.571 3.459 7.571 7.711 0 4.174-3.396 7.571-7.571 7.571-4.251 0-7.709-3.397-7.709-7.571zm-29.593-7.729c0-5.7 4.64-10.33 10.34-10.33s10.34 4.63 10.34 10.33c0 5.88-4.54 10.48-10.34 10.48-5.7 0-10.34-4.699-10.34-10.48zm10.34 12.48c6.077 0 11.708 2.377 15.759 6.576-1.917 1.429-3.563 3.221-4.809 5.296.065.042.117.079.167.116-3.521-2.295-7.633-3.536-11.943-3.536-3.61 0-7.082.87-10.185 2.5-1.289-1.829-2.849-3.385-4.596-4.636 4.153-4.031 9.765-6.316 15.607-6.316zm-33.975-4.751c0-4.252 3.396-7.711 7.571-7.711 4.252 0 7.711 3.459 7.711 7.711 0 4.174-3.459 7.571-7.711 7.571-4.175 0-7.571-3.397-7.571-7.571zm-6.805 25.263c-.6 0-1.02-.21-1.43-.73-.4-.49-.57-1.05-.49-1.52 1.6-7.79 8.46-13.44 16.3-13.44 5.38 0 10.41 2.64 13.64 7.11.013.011.026.017.039.027-1.285.833-2.497 1.796-3.604 2.904-1.697 1.698-3.043 3.612-4.066 5.649zm79.607 43.177-6.203 6.315-1.765-1.766 6.203-6.315zm-3.18-3.179-6.203 6.316-11.016-11.018 6.315-6.202zm-14.542-10.133-1.927 1.893-5.478-5.478c-.004-.013-.008-.021-.012-.034.332-.294.67-.578.986-.894.341-.341.646-.705.959-1.062zm-7.846-5.927c-3.756 3.756-8.758 5.825-14.085 5.825s-10.33-2.069-14.085-5.825c-7.767-7.766-7.767-20.404 0-28.173 3.755-3.756 8.758-5.825 14.085-5.825s10.329 2.069 14.085 5.825c7.767 7.769 7.767 20.407 0 28.173zm29.511-24.668c-.41.52-.84.73-1.43.73h-22.58c-.006.003-.01.006-.016.01-1.024-2.04-2.371-3.958-4.071-5.659-.667-.667-1.381-1.267-2.114-1.835.023-.029.047-.044.071-.076 2.95-4.96 8.49-8.13 14.33-8.13 7.84 0 14.69 5.65 16.3 13.4.08.51-.09 1.07-.49 1.56z"/><path d="m48.893 39.184c-9.699 0-17.589 7.953-17.589 17.728 0 9.7 7.891 17.592 17.589 17.592 9.776 0 17.729-7.892 17.729-17.592.001-9.776-7.953-17.728-17.729-17.728zm0 33.319c-4.468 0-8.493-1.9-11.337-4.923 2.222-4.214 6.598-6.9 11.334-6.9 4.896 0 9.293 2.707 11.395 6.951-2.868 2.994-6.909 4.872-11.392 4.872zm0-13.826c-3.184 0-5.773-2.59-5.773-5.774s2.59-5.775 5.773-5.775c3.185 0 5.775 2.591 5.775 5.775 0 3.183-2.59 5.774-5.775 5.774zm12.765 7.31c-1.833-3.224-4.858-5.579-8.401-6.654 2.057-1.4 3.412-3.76 3.412-6.43 0-4.287-3.488-7.775-7.775-7.775-4.286 0-7.773 3.488-7.773 7.775 0 2.68 1.364 5.048 3.433 6.446-3.454 1.076-6.456 3.402-8.355 6.579-1.815-2.549-2.894-5.656-2.894-9.017 0-8.672 6.993-15.728 15.589-15.728 8.673 0 15.729 7.055 15.729 15.728 0 3.387-1.107 6.516-2.965 9.076z"/></g></svg>