<?xml version="1.0" encoding="iso-8859-1"?>
<!-- Generator: Adobe Illustrator 19.0.0, SVG Export Plug-In . SVG Version: 6.00 Build 0)  -->
<svg version="1.1" id="Capa_1" xmlns="http://www.w3.org/2000/svg" xmlns:xlink="http://www.w3.org/1999/xlink" x="0px" y="0px"
	 viewBox="0 0 512 512" style="enable-background:new 0 0 512 512;" xml:space="preserve">
<g>
	<g>
		<path d="M138.667,197.333h-21.333C105.551,197.333,96,187.782,96,176c0-11.782,9.551-21.333,21.333-21.333h21.333
			c11.782,0,21.333,9.551,21.333,21.333h21.333c0-23.564-19.102-42.667-42.667-42.667h-21.333
			c-23.564,0-42.667,19.102-42.667,42.667s19.102,42.667,42.667,42.667h21.333c11.782,0,21.333,9.551,21.333,21.333
			c0,11.782-9.551,21.333-21.333,21.333h-21.333C105.551,261.333,96,251.782,96,240H74.667c0,23.564,19.102,42.667,42.667,42.667
			h21.333c23.564,0,42.667-19.103,42.667-42.667S162.231,197.333,138.667,197.333z"/>
	</g>
</g>
<g>
	<g>
		<path d="M309.333,154.666v-21.333h-96c-5.891,0-10.667,4.776-10.667,10.667v128c0,5.891,4.776,10.667,10.667,10.667h96v-21.333
			H224V154.666H309.333z"/>
	</g>
</g>
<g>
	<g>
		<rect x="202.667" y="197.333" width="85.333" height="21.333"/>
	</g>
</g>
<g>
	<g>
		<path d="M384,133.333c-29.455,0-53.333,23.878-53.333,53.333v42.667c0.035,29.441,23.893,53.298,53.333,53.333
			c29.441-0.035,53.298-23.893,53.333-53.333v-42.667C437.333,157.211,413.455,133.333,384,133.333z M416,229.333
			c0,17.673-14.327,32-32,32s-32-14.327-32-32v-42.667c0-17.673,14.327-32,32-32s32,14.327,32,32V229.333z"/>
	</g>
</g>
<g>
	<g>
		<path d="M458.667,16H53.333C23.893,16.035,0.035,39.893,0,69.333v245.333h21.333V69.333c0-17.673,14.327-32,32-32h405.333
			c17.673,0,32,14.327,32,32v245.333H512V69.333C511.965,39.893,488.107,16.035,458.667,16z"/>
	</g>
</g>
<g>
	<g>
		<rect x="10.667" y="80" width="458.667" height="21.333"/>
	</g>
</g>
<g>
	<g>
		<rect x="53.333" y="48" width="96" height="21.333"/>
	</g>
</g>
<g>
	<g>
		<rect x="170.667" y="48" width="21.333" height="21.333"/>
	</g>
</g>
<g>
	<g>
		<rect x="213.333" y="48" width="21.333" height="21.333"/>
	</g>
</g>
<g>
	<g>
		<rect x="256" y="48" width="21.333" height="21.333"/>
	</g>
</g>
<g>
	<g>
		<rect x="298.667" y="48" width="21.333" height="21.333"/>
	</g>
</g>
<g>
	<g>
		<path d="M500.405,421.333H432c-11.782,0-21.333-9.551-21.333-21.333c0-11.782,9.551-21.333,21.333-21.333h68.405
			c1.376,0.001,2.74-0.265,4.015-0.783c5.459-2.215,8.088-8.436,5.873-13.895c-8.806-21.719-25.252-39.466-46.239-49.897
			c-47.479-23.597-105.097-4.238-128.694,43.241H176.64c-10.431-20.987-28.178-37.433-49.897-46.239
			c-49.134-19.921-105.115,3.761-125.036,52.895c-0.517,1.275-0.783,2.638-0.783,4.015c0.002,5.891,4.78,10.665,10.671,10.663H80
			c11.782,0,21.333,9.551,21.333,21.333c0,11.782-9.551,21.333-21.333,21.333H11.595c-1.376-0.001-2.74,0.265-4.015,0.783
			c-5.459,2.215-8.088,8.436-5.873,13.895c8.806,21.719,25.252,39.466,46.239,49.897c47.479,23.597,105.097,4.238,128.694-43.241
			h158.72c16.125,32.734,49.483,53.428,85.973,53.333c39.136,0.094,74.378-23.671,88.96-59.989c0.517-1.275,0.783-2.638,0.783-4.015
			C511.074,426.105,506.296,421.331,500.405,421.333z M449.385,469.166c-38.221,15.48-81.755-2.955-97.235-41.177
			c-1.633-4.025-5.544-6.658-9.888-6.656H169.739c-4.344-0.002-8.255,2.631-9.888,6.656c-5.429,13.405-14.635,24.945-26.499,33.218
			c-33.826,23.586-80.368,15.285-103.954-18.541H80c23.564,0,42.667-19.102,42.667-42.667c0-23.564-19.102-42.667-42.667-42.667
			H29.397c8.272-11.864,19.813-21.07,33.218-26.499c38.221-15.48,81.755,2.955,97.235,41.177c1.633,4.025,5.544,6.658,9.888,6.656
			h172.523c4.344,0.002,8.255-2.631,9.888-6.656c5.429-13.405,14.635-24.945,26.499-33.218
			c33.826-23.586,80.368-15.285,103.954,18.541H432c-23.564,0-42.667,19.102-42.667,42.667c0,23.564,19.102,42.667,42.667,42.667
			h50.603C474.33,454.53,462.79,463.736,449.385,469.166z"/>
	</g>
</g>
<g>
	<g>
		<rect x="32" y="165.333" width="21.333" height="21.333"/>
	</g>
</g>
<g>
	<g>
		<rect x="32" y="208" width="21.333" height="21.333"/>
	</g>
</g>
<g>
	<g>
		<rect x="32" y="250.666" width="21.333" height="21.333"/>
	</g>
</g>
<g>
	<g>
		<rect x="458.667" y="165.333" width="21.333" height="21.333"/>
	</g>
</g>
<g>
	<g>
		<rect x="458.667" y="208" width="21.333" height="21.333"/>
	</g>
</g>
<g>
	<g>
		<rect x="458.667" y="250.666" width="21.333" height="21.333"/>
	</g>
</g>
<g>
</g>
<g>
</g>
<g>
</g>
<g>
</g>
<g>
</g>
<g>
</g>
<g>
</g>
<g>
</g>
<g>
</g>
<g>
</g>
<g>
</g>
<g>
</g>
<g>
</g>
<g>
</g>
<g>
</g>
</svg>
