<svg width="60" height="60" id="Layer_1" enable-background="new 0 0 66 66" viewBox="0 0 66 66" xmlns="http://www.w3.org/2000/svg"><g><path d="m22.07 7.24h7.84c.33 0 .6-.27.6-.6s-.27-.6-.6-.6h-7.84c-.33 0-.6.27-.6.6s.27.6.6.6z"/><path d="m19.22 7.69c.6 0 1.08-.48 1.08-1.08s-.48-1.08-1.08-1.08-1.08.48-1.08 1.08.48 1.08 1.08 1.08zm0-1.2c.07 0 .12.05.12.12 0 .13-.24.13-.24 0 0-.07.05-.12.12-.12z"/><path d="m33.99 13.18h-19.32c-1.56 0-2.83 1.27-2.83 2.83v10.34c0 1.56 1.27 2.83 2.83 2.83h19.32c1.56 0 2.83-1.27 2.83-2.83v-10.34c0-1.56-1.27-2.83-2.83-2.83zm1.63 13.16c0 .9-.73 1.63-1.63 1.63h-19.32c-.9 0-1.63-.73-1.63-1.63v-10.33c0-.9.73-1.63 1.63-1.63h19.32c.9 0 1.63.73 1.63 1.63z"/><path d="m27.33 18.21h-6.01c-.83 0-1.51.68-1.51 1.51v2.91c0 .83.68 1.51 1.51 1.51h6.01c.83 0 1.51-.68 1.51-1.51v-2.91c0-.83-.68-1.51-1.51-1.51zm.31 4.42c0 .17-.14.31-.31.31h-6.01c-.17 0-.31-.14-.31-.31v-2.91c0-.17.14-.31.31-.31h6.01c.17 0 .31.14.31.31z"/><path d="m32.31 18.82c-.24-.22-.62-.21-.85.03s-.21.62.03.85l1.6 1.48-1.6 1.48c-.24.23-.26.6-.03.85.12.13.28.19.44.19.15 0 .29-.05.41-.16l2.07-1.92c.12-.11.19-.27.19-.44s-.07-.33-.19-.44z"/><path d="m17.19 18.85c-.22-.24-.6-.26-.85-.03l-2.07 1.92c-.12.11-.19.27-.19.44s.07.33.19.44l2.07 1.92c.12.11.26.16.41.16.16 0 .32-.06.44-.19.23-.24.21-.62-.03-.85l-1.6-1.48 1.6-1.48c.24-.23.26-.61.03-.85z"/><path d="m35.26 31.9h-21.86c-.86 0-1.56.7-1.56 1.56v4.52c0 .86.7 1.56 1.56 1.56h21.86c.86 0 1.56-.7 1.56-1.56v-4.52c0-.86-.7-1.56-1.56-1.56zm.36 6.08c0 .2-.16.36-.36.36h-21.86c-.2 0-.36-.16-.36-.36v-4.52c0-.2.16-.36.36-.36h21.86c.2 0 .36.16.36.36z"/><path d="m12.44 43.6h18.98c.33 0 .6-.27.6-.6s-.27-.6-.6-.6h-18.98c-.33 0-.6.27-.6.6s.26.6.6.6z"/><path d="m12.44 47.66h18.98c.33 0 .6-.27.6-.6s-.27-.6-.6-.6h-18.98c-.33 0-.6.27-.6.6s.26.6.6.6z"/><path d="m17.58 50.08h-4.18c-.86 0-1.56.7-1.56 1.56v4.18c0 .86.7 1.56 1.56 1.56h4.18c.86 0 1.56-.7 1.56-1.56v-4.18c0-.86-.7-1.56-1.56-1.56zm-4.18 6.11c-.2 0-.36-.16-.36-.36v-4.18c0-.2.16-.36.36-.36h4.18c.2 0 .36.16.36.36v4.18c0 .2-.16.36-.36.36z"/><path d="m26.42 50.08h-4.18c-.86 0-1.56.7-1.56 1.56v4.18c0 .86.7 1.56 1.56 1.56h4.18c.86 0 1.56-.7 1.56-1.56v-4.18c0-.86-.7-1.56-1.56-1.56zm.36 5.75c0 .2-.16.36-.36.36h-4.18c-.2 0-.36-.16-.36-.36v-4.18c0-.2.16-.36.36-.36h4.18c.2 0 .36.16.36.36z"/><path d="m31.07 50.08c-.86 0-1.56.7-1.56 1.56v4.18c0 .86.7 1.56 1.56 1.56h4.18c.86 0 1.56-.7 1.56-1.56v-4.18c0-.86-.7-1.56-1.56-1.56zm4.55 1.56v4.18c0 .2-.16.36-.36.36h-4.18c-.2 0-.36-.16-.36-.36v-4.18c0-.2.16-.36.36-.36h4.18c.2 0 .36.17.36.36z"/><path d="m61.91 11.56c-.14-.47-.46-.86-.89-1.1l-4.94-2.69c-.9-.49-2.02-.15-2.5.74l-2.72 5.01-6.22 11.43v-16.26c0-3.86-3.14-7-7-7h-26.62c-3.86 0-7 3.14-7 7v48.61c0 3.86 3.14 7 7 7h26.61c3.86 0 7-3.14 7-7v-12.87l14.4-26.46 2.72-5.01c.25-.43.3-.93.16-1.4zm-19.4 33.12-4.56 2.29-.55-5.07 2.56 1.39zm9.11-30.06 2.51 1.37-14.13 25.96-2.51-1.37zm-12.02 19.58-3.45 6.33v.01c-.03.06-.05.13-.06.2v.05c0 .03-.01.06 0 .09l.77 7.07c.02.2.14.37.31.46.09.05.19.07.29.07.09 0 .18-.02.27-.06l1.88-.94v9.82c0 1.08-.88 1.97-1.97 1.97h-26.62c-1.08 0-1.97-.88-1.97-1.97v-48.61c0-1.08.88-1.97 1.97-1.97h2.17c.14 0 .27.08.33.21l1.03 2.23c.41.89 1.31 1.46 2.29 1.46h14.98c.98 0 1.88-.57 2.29-1.46l1.03-2.23c.06-.13.19-.21.33-.21h2.17c1.08 0 1.97.88 1.97 1.97v25.51zm3.97 9.69-2.51-1.37 14.13-25.96 2.51 1.37zm-5.94 19.22h-26.61c-3.2 0-5.81-2.6-5.81-5.81v-48.61c0-3.2 2.6-5.81 5.81-5.81h26.61c3.2 0 5.81 2.6 5.81 5.81v18.46l-2.64 4.85v-23.31c0-1.75-1.42-3.17-3.17-3.17h-2.17c-.61 0-1.16.35-1.41.9l-1.03 2.23c-.21.46-.68.76-1.2.76h-14.98c-.51 0-.98-.3-1.2-.77l-1.03-2.23c-.25-.55-.81-.9-1.42-.9h-2.17c-1.75 0-3.17 1.42-3.17 3.17v48.61c0 1.75 1.42 3.17 3.17 3.17h26.61c1.75 0 3.17-1.42 3.17-3.17v-10.41l2.64-1.33v11.75c0 3.21-2.61 5.81-5.81 5.81zm23.08-50.72-2.44 4.48-3.03-1.65-3.04-1.65 2.44-4.48c.17-.31.56-.43.88-.26l4.94 2.69c.15.08.26.22.31.38.04.16.02.34-.06.49z"/></g></svg>