<svg width="1455" height="254" viewBox="0 0 1455 254" fill="none" xmlns="http://www.w3.org/2000/svg">
<g clip-path="url(#clip0_2619_131)">
<path d="M252.942 192H223.283L268.474 61.0909H304.142L349.27 192H319.611L286.82 91.0057H285.797L252.942 192ZM251.088 140.544H321.145V162.149H251.088V140.544ZM365.026 192V61.0909H392.704V169.18H448.826V192H365.026ZM445.822 83.9105V61.0909H553.336V83.9105H513.258V192H485.9V83.9105H445.822ZM571.042 192V61.0909H622.69C632.576 61.0909 641.013 62.8594 648.002 66.3963C655.033 69.8906 660.381 74.8551 664.046 81.2898C667.754 87.6818 669.607 95.2031 669.607 103.854C669.607 112.547 667.732 120.026 663.982 126.29C660.232 132.511 654.799 137.284 647.683 140.608C640.609 143.932 632.043 145.594 621.987 145.594H587.406V123.349H617.512C622.796 123.349 627.185 122.625 630.68 121.176C634.174 119.727 636.773 117.554 638.478 114.656C640.225 111.759 641.099 108.158 641.099 103.854C641.099 99.5071 640.225 95.8423 638.478 92.8594C636.773 89.8764 634.153 87.6179 630.616 86.0838C627.121 84.5071 622.711 83.7188 617.384 83.7188H598.719V192H571.042ZM641.738 132.426L674.273 192H643.719L611.887 132.426H641.738ZM770.026 61.0909H797.704V146.105C797.704 155.651 795.424 164.003 790.864 171.162C786.347 178.321 780.019 183.903 771.88 187.909C763.741 191.872 754.259 193.854 743.435 193.854C732.569 193.854 723.066 191.872 714.927 187.909C706.788 183.903 700.46 178.321 695.942 171.162C691.425 164.003 689.167 155.651 689.167 146.105V61.0909H716.844V143.74C716.844 148.726 717.931 153.158 720.104 157.036C722.32 160.913 725.431 163.96 729.437 166.176C733.442 168.392 738.109 169.5 743.435 169.5C748.805 169.5 753.471 168.392 757.434 166.176C761.44 163.96 764.529 160.913 766.702 157.036C768.918 153.158 770.026 148.726 770.026 143.74V61.0909ZM891.491 98.7401C890.98 93.5838 888.785 89.5781 884.907 86.723C881.029 83.8679 875.767 82.4403 869.119 82.4403C864.602 82.4403 860.788 83.0795 857.677 84.358C854.566 85.5938 852.18 87.3196 850.518 89.5355C848.899 91.7514 848.089 94.2656 848.089 97.0781C848.004 99.4219 848.494 101.467 849.559 103.214C850.667 104.962 852.18 106.474 854.098 107.753C856.015 108.989 858.231 110.075 860.745 111.013C863.26 111.908 865.944 112.675 868.799 113.314L880.561 116.126C886.271 117.405 891.512 119.109 896.285 121.24C901.058 123.371 905.191 125.991 908.686 129.102C912.18 132.213 914.886 135.878 916.804 140.097C918.764 144.315 919.765 149.152 919.808 154.607C919.765 162.618 917.72 169.564 913.672 175.445C909.666 181.283 903.87 185.821 896.285 189.06C888.743 192.256 879.645 193.854 868.991 193.854C858.423 193.854 849.218 192.234 841.377 188.996C833.579 185.757 827.485 180.963 823.096 174.614C818.75 168.222 816.47 160.317 816.257 150.899H843.039C843.338 155.288 844.595 158.953 846.811 161.893C849.069 164.791 852.074 166.986 855.824 168.477C859.616 169.926 863.899 170.651 868.672 170.651C873.359 170.651 877.429 169.969 880.88 168.605C884.375 167.241 887.081 165.345 888.998 162.916C890.916 160.487 891.875 157.696 891.875 154.543C891.875 151.602 891.001 149.131 889.254 147.128C887.549 145.125 885.035 143.42 881.711 142.014C878.43 140.608 874.403 139.33 869.63 138.179L855.376 134.599C844.339 131.915 835.625 127.717 829.233 122.007C822.841 116.297 819.666 108.605 819.708 98.9318C819.666 91.0057 821.775 84.081 826.037 78.1577C830.341 72.2344 836.243 67.6108 843.743 64.2869C851.243 60.9631 859.765 59.3011 869.311 59.3011C879.027 59.3011 887.507 60.9631 894.751 64.2869C902.038 67.6108 907.706 72.2344 911.754 78.1577C915.802 84.081 917.89 90.9418 918.018 98.7401H891.491ZM938.425 192V61.0909H966.102V115.104H1022.29V61.0909H1049.9V192H1022.29V137.923H966.102V192H938.425ZM1100.4 61.0909V192H1072.72V61.0909H1100.4ZM1123.17 192V61.0909H1211.38V83.9105H1150.85V115.104H1206.84V137.923H1150.85V169.18H1211.64V192H1123.17ZM1233.39 192V61.0909H1261.06V169.18H1317.19V192H1233.39ZM1381.92 192H1335.51V61.0909H1382.3C1395.47 61.0909 1406.81 63.7116 1416.31 68.9531C1425.81 74.152 1433.12 81.6307 1438.23 91.3892C1443.39 101.148 1445.97 112.824 1445.97 126.418C1445.97 140.054 1443.39 151.773 1438.23 161.574C1433.12 171.375 1425.77 178.896 1416.18 184.138C1406.64 189.379 1395.22 192 1381.92 192ZM1363.19 168.286H1380.77C1388.95 168.286 1395.83 166.837 1401.42 163.939C1407.04 160.999 1411.26 156.46 1414.07 150.324C1416.93 144.145 1418.36 136.176 1418.36 126.418C1418.36 116.744 1416.93 108.839 1414.07 102.703C1411.26 96.5668 1407.06 92.0497 1401.48 89.152C1395.9 86.2543 1389.02 84.8054 1380.83 84.8054H1363.19V168.286Z" fill="white"/>
<path d="M164 153V102.5L184.5 114.5V139.5L164 153Z" fill="white"/>
<path d="M126 113V81.5V81L164 102.5V153L127 173.771V140.5L144.5 130.5L146 129L146.5 127L146 125L144.5 123.5L126 113Z" fill="white"/>
<path d="M90 92.5V60.5V60L126 81V113L90 92.5Z" fill="white"/>
<path d="M91 162V194V194.5L127 173.769V140.5L91 162Z" fill="white"/>
<path d="M190 127C190 134.732 185.523 141 180 141C174.477 141 170 134.732 170 127C170 119.268 174.477 113 180 113C185.523 113 190 119.268 190 127Z" fill="white"/>
<rect x="60" y="115" width="18" height="18" rx="2" fill="white"/>
<rect x="60" y="84" width="18" height="18" rx="2" fill="white"/>
<rect x="60" y="146" width="18" height="18" rx="2" fill="white"/>
<rect x="30" y="94" width="16" height="16" rx="2" fill="white"/>
<rect x="60" y="176" width="18" height="18" rx="2" fill="white"/>
<rect x="62" y="60" width="16" height="16" rx="2" fill="white"/>
<rect x="46" y="163" width="13" height="13" rx="2" fill="white"/>
<rect x="46" y="74" width="13" height="13" rx="2" fill="white"/>
<rect x="16" y="117" width="14" height="14" rx="2" fill="white"/>
<rect x="32" y="138" width="14" height="14" rx="2" fill="white"/>
<path d="M139.436 127.063C139.437 127.509 139.315 127.947 139.082 128.336C138.85 128.724 138.514 129.049 138.108 129.28L112.927 143.74C112.503 143.984 112.016 144.118 111.519 144.126C111.021 144.135 110.53 144.019 110.096 143.789C109.666 143.564 109.308 143.235 109.059 142.837C108.809 142.438 108.677 141.984 108.677 141.522V112.604C108.677 112.142 108.809 111.689 109.059 111.29C109.308 110.892 109.666 110.563 110.096 110.337C110.53 110.108 111.021 109.992 111.519 110C112.016 110.009 112.503 110.142 112.927 110.386L138.108 124.847C138.514 125.077 138.85 125.403 139.082 125.791C139.315 126.179 139.437 126.618 139.436 127.063Z" fill="white"/>
</g>
<defs>
<clipPath id="clip0_2619_131">
<rect width="1455" height="254" fill="white"/>
</clipPath>
</defs>
</svg>
